<svg id="eAlcMN21VFw1" xmlns="http://www.w3.org/2000/svg" xmlns:xlink="http://www.w3.org/1999/xlink" viewBox="-430 0 1250 100" shape-rendering="geometricPrecision" text-rendering="geometricPrecision"><g><path d="M4.3,42.1c-.1,0-.2-.1-.3-.1s-.3-.1-.4-.1c-.3,0-.5-.2-.5-.4s.1-.5.2-.7c.1-.3.3-.5.4-.6l.3-.5.1-.1.1-.1h.1c.2,0,.4-.4.8-1s.8-1.3,1.2-2.1.9-1.5,1.3-2.1.7-.9.9-.9l.1-.6c.1-.1.3-.4.6-.9s.6-1,.9-1.5.4-.8.4-1c.1-.2.3-.3.4-.6.1-.2.2-.4.3-.6.2-.3.3-.6.4-.9s.3-.6.4-.9l.7-1.8c.2-.3.3-.7.5-1s.3-.7.5-1s.3-.7.4-1s.3-.7.4-1c.1-.2.2-.6.4-1.1s.3-1.1.6-1.8.4-1.2.6-1.7.4-.8.5-.9v-.4l.5-.8-.1-.3c-.1-.1-.1-.2-.1-.2s0-.1.1-.1v-.1c-.1,0,0-.4,0-1s0-.9,0-1.2c0-.1,0-.2,0-.5c0-.2.1-.4.1-.4v-.5c0-.2,0-.3.1-.5v-1c0-.9-.2-1.8-.6-2.6s-1-1.2-1.9-1.2c-.8,0-1.7.2-2.6.7s-2,1-2.9,1.7c-.9.6-1.7,1.2-2.3,1.7-.1.1-.3.2-.4.3s-.2.2-.3.3-.2.2-.3.3-.2.2-.4.3l-.9.7h.2c-.1.2-.4.4-.8.7-.5.3-.8.4-1,.4v.2l.1.1c.1-.1.1-.1.2-.1s.1,0,.1.1c.1,0,.1,0,.1.1s0,.2-.1.2v-.1h-.2L1.5,14.2h-.1v.3h.2c.1,0,.2.1.2.1-.3.2-.6.6-.7,1.1s-.2,1-.2,1.3c0,.2,0,.5.1.7.1.3.3.4.6.4v.1c-.5,0-.9-.2-1.2-.5s-.4-.7-.4-1.2l.3-.3-.1-.4c-.1.5-.2.4-.2.4l.1-.1c0,.2.1.3.3.3l-.1-.5c0-.1,0-.2-.1-.3v-.2c0-.1,0-.1.1-.2v-.1l.1-.1c.1,0,.1,0,.1-.1.1,0,.2-.1.2-.2h.2l-.1-.1v-.1c0-.1,0-.1.1-.1v-.2h-.1v.1l-.2.2v0l-.1-.2.1-.1.4-.3c0-.1,0-.2,0-.3s0-.2,0-.3c0-.3.1-.5.4-.5.1,0,.2.1.3.2.1,0,.2-.2.2-.4c0-.1-.1-.2-.1-.4c0-.1,0-.2.1-.3c0-.1.1-.2.3-.2s.3-.1.3-.2h-.1c-.1,0-.1,0-.1-.1c0,0,0-.1.1-.1v-.1l.5-.5c.2-.2.4-.4.5-.6.2-.2.3-.4.5-.6s.4-.4.5-.5L5,8.3l.2-.2.1-.1h.1v-.2c.3-.3.6-.5,1-.5l.2-.7c.2-.1.4-.2.8-.4s.7-.4,1-.6.5-.4.5-.5c.1.1.1.1.1.2s.1.2.3.2v-.3c0,0-.1-.1-.1-.2h.1l.2-.2c.1-.1.1-.1.2-.1l.1.1c.2-.2.5-.4.8-.6s.6-.3.9-.3c.1-.1.2-.2.2-.2.2-.1.3-.2.3-.2s.1-.1.2-.2l.1-.1h.2c.5-.4,1.1-.7,1.6-.7.3-.2.5-.3.8-.3.3-.1.6-.1.8-.1v-.1l.3-.1c1.2.1,2.1.5,2.9,1.2s1.4,1.5,1.9,2.4v.2c0,.6.1,1.2.4,1.8.2.5.3,1.1.3,1.8-.1.1-.2.3-.3.6s-.1.5-.1.8c-.1.2-.2.4-.4.4l-.1,1.1c-.1.2-.2.5-.2.8s0,.7-.1,1-.2.5-.5.5v.1c.3.2.4.3.4.4-.1.1-.2.2-.3.2-.1.1-.2.2-.2.3h.1l-.2.1-.6,1.5-.3-.3c-.1.2-.2.3-.3.5-.2.2-.2.3-.2.5c0,0,.1.1.1.2s-.1.3-.3.4-.3.3-.3.4v.1c.1,0,.1.1.1.2c0,.3-.1.7-.3,1.2s-.5,1.1-.8,1.7-.6,1.1-.9,1.7c-.3.5-.5.9-.7,1.2c0,.3,0,.4-.1.4l-.4.3c0,.3-.1.6-.4.9-.3.4-.4.8-.4,1.3c0,.2,0,.3.1.3l.8-2c.3-.7.6-1.3.9-2s.7-1.3,1-2l4.3-7.8c.7-1.3,1.5-2.6,2.3-3.7C24,9.4,25,8.1,26,6.8s2.1-2.6,3.3-3.7c1.2-1.2,2.5-2,3.8-2.6.1-.1.3-.2.6-.3s.5-.2.5-.2c.3,0,.5.1.7.2.1-.1.2-.1.3-.1s.3,0,.5,0c.1,0,.3,0,.4.1.3.1.5.1.8.1l.4.2.3-.1v.1l.3.1c.2,0,.2-.1.2-.1.5.2.9.3,1.2.5l.1-.1h.1l.6.6c.1.1.1,0,.1-.1v-.2h.1c.4.6.9,1.1,1.4,1.4.6.4,1.1.7,1.5,1.1.6.4.8.9.8,1.5c0,1.7-.1,3-.2,4.1s-.4,2-.7,2.8c-.4.8-.9,1.7-1.6,2.5s-1.6,1.9-2.6,3.1l-.1-.1c-.2.2-.6.5-1,.9s-.9.8-1.3,1.1-.7.5-.9.5v.1l.1.2c0,0-.2.2-.5.5s-.6.5-1,.8c-.3.3-.5.4-.6.4l-.1.4-1.6.9v-.1l-.1-.1c0,0-.1,0-.1-.1-.2,0-.3.1-.6.1s-.3.2-.4.3v.1c.2,0,.3.1.3.3v.3h-.4l-.2.1h-.1c0,0-.1,0-.1.1-.1,0-.1.1-.2.1l-.1.1-.2.4h-.1c0,0-.1-.1-.3-.2-.2-.2-.3-.2-.4-.2h-.1c0,0-.1.1-.1.2c0,.2.1.4.1.6l-1.1.1v.2c-.4,0-.8.2-1.2.4s-.8.3-1.3.3c-.3,0-.4-.1-.4-.1.2-.1.2-.1,0-.1-.3,0-.5,0-.5.1l-.2.2c-.1,0-.2,0-.2-.1h-.2c0,0-.1,0-.1-.1h-.3c-.1,0-.2-.1-.4-.1-.3,0-.5,0-.6.1-.1,0-.2.1-.3.1s-.2,0-.3,0c-.4,0-.7-.2-1-.6s-.6-.9-.8-1.4-.3-.9-.3-1.3c0-.2.1-.5.3-.9s.3-.8.4-.9v.1l.2-.2.3-.1.1.1.1-.4c.1.1.3.1.7.2s.6.1.7.1.1-.1.1-.2-.1-.3-.2-.4c-.2-.3-.3-.3-.3-.3l-.1-.1.1-.1c.1-.1.3-.2.6-.4s.5-.3.6-.3l.1-.2.1.1.8-.6h.1c.1,0,.2,0,.2.1c0,0,0,.1.1.1v-.2l.1.1c.1-.4.5-.8,1.1-1.1.3-.2.5-.3.7-.5s.4-.3.6-.4c.1.2.1.3.2.3.2,0,.3-.1.3-.2v-.1c-.1,0-.1-.1-.2-.1.2-.2.3-.3.3-.4l.2-.1.1-.1c0,0,0-.1.1-.1l.6-.1v.1c0,.1,0,.1.1.1c0,0,.1-.1.2-.4s.2-.4.3-.4.1.1.1.2c.3-.2.8-.4,1.5-.8s1.5-.6,2.3-.9s1.3-.4,1.6-.4c.2,0,.3,0,.3.1v-.2l.1.2h.1c0,0,.1,0,.1-.1h.1c-.8.4-1.5.8-2.3,1.1s-1.6.6-2.3,1l-.2-.1v.1l-1.1.5h-.1v.2l-1.3,1.1c-.4.4-.9.5-1.4.5l.1.1c0,.1,0,.1-.1.2s-.1.1-.1.1c-.1,0-.1,0-.1-.1l-.1-.1v.1l-1.6,1.3-.2-.1-.7.4.1.1-.8.7c0,.1.1.2.1.3l-.6.2v.1c0,.1,0,.1-.1.2s-.1.2-.1.2c-.3.2-.6.4-.9.8s-.4.7-.4,1.1c0,.5.3.9.8,1.1.6.2,1.1.3,1.6.3h.1v.1c0,.1,0,.2,0,.3l.7-.1-.2-.3c.1,0,.3,0,.5.1s.3.1.4.1c.3,0,.4-.1.3-.2s.1-.2.3-.3h.1l.1.1c.1,0,.2-.1.3-.1.2-.1.2-.2.2-.2h-.1v0l1.2-.9.1.1-.1-.2c.1,0,.2.1.3.1s.1,0,.2,0s.1,0,.1-.1c.1-.1.1-.1.2-.2s.1-.2.2-.2l.2.1c.1-.1.2-.1.1-.2s0-.2.1-.2l.3-.1c.1,0,.2-.1.2-.1c0-.1,0-.2-.1-.2.2-.2.5-.3.7-.5s.5-.4.7-.6c.4-.4.9-.6,1.5-.6.1,0,.1-.1.1-.2s.1-.2.2-.2v-.1c0-.3.2-.6.5-.9s.5-.6.7-.8v-.1l2-2h.1v-.1l.2-.4.1.1.8-.6-.1-.5.1-.1c0-.1.1-.1.2-.1s.2,0,.3,0c.4,0,.6,0,.7.1l-.1-.3-.1-.1c-.1,0-.2-.1-.3-.1-.2-.1-.3-.2-.3-.2h.5c.3-.3.5-.7.7-1.1l.1.1c.4-.5.7-1,.9-1.6s.5-1.1,1-1.5l-.1-.3c0-.1.1-.2.2-.4.1-.1.1-.1.1-.2s.1-.1.1-.2c0,0,0-.1.1-.1l.1-.1c0-.1.1-.2.1-.4v-1.6c0-.1-.1-.2-.1-.3v-.4c0-.9-.1-1.6-.3-2.3-.2-.6-.8-1.2-1.6-1.5-.3-.1-.7-.2-1.2-.2h-.5c-.2,0-.3,0-.5.1l-.4-.1c-.4,0-.8.2-1.3.5l-1.4.9c-.5.3-.9.5-1.2.5-.4,0-.7.2-.7.7-.4.5-.9,1.1-1.6,1.8s-1.4,1.4-2.1,2.2c-.7.7-1.2,1.3-1.4,1.8c0,.1-.1.2-.2.3s-.2.2-.2.2-.1,0-.1-.1l-.1-.1c0,0-.1.1-.1.2v.2c0,.4-.2.9-.6,1.4s-.8,1-1.3,1.5-.8.9-1.1,1.3c-.9,1.5-1.8,3-2.7,4.5s-1.9,3-2.8,4.5-1.9,3-2.8,4.5-1.9,3-2.8,4.5c-.3.4-.5.8-.7,1.2s-.5.8-.7,1.2c-.3.4-.5.8-.8,1.2s-.5.8-.8,1.2c-.1.3-.3.5-.4.8-.2.3-.3.5-.5.8s-.3.5-.4.8l-.4.8-.1.1c-.1.1-.1.1-.2.2s-.2.2-.3.2v-.1c-.2.2-.5.3-.9.3-1,.1-1.4.2-1.6.4v0ZM0.8,16.7v0c0-.2,0-.3.1-.3c0-.1.1-.2.1-.3s-.1-.2-.1-.2c0,.1,0,.2-.1.3v.5c-.1-.1-.1,0,0,0Zm.6-2.8h.2v-.1h.2v-.3h-.2v.1c-.1,0-.2.1-.2.3Zm1.3-1.3l.1-.3h-.2l-.1.1h.1l.1.2v0ZM4,11c.2-.2.4-.4.4-.5v.1c0,0,0-.1.1-.1v-.1h-.1c0,0-.1,0-.2.1s-.1.1-.2.1v.2l-.1.1c0,.1,0,.1.1.1ZM15.8,23.3c0-.1,0-.1.1-.2L16,23l.1-.3c.1-.1.1-.2.1-.2s-.1.1-.2.1l-.1.3c-.1.1-.2.2-.1.4-.1-.1-.1,0,0,0v0Zm3-6.9c0-.1.1-.2.2-.3s.1-.2.1-.3s0-.1-.1-.1-.2,0-.2.1-.1.3,0,.6c-.1-.1,0,0,0,0Zm1.4-2.5l.1-.3.1-.1c.1-.1.1-.1.1-.2s0-.2.1-.2c0,0-.1,0-.1-.1c0,0,0-.1-.1-.1l-.1.1.1.3h-.1c-.1,0-.1.1-.1.1c0,.1,0,.2,0,.3-.1.1-.1.2,0,.2Zm.1-1.4c.1,0,.1,0,.1-.1c0,0,0-.1.1-.1v-.3c0-.1,0-.2-.1-.3c0-.1-.1-.2-.1-.2v.4c0,.2,0,.3-.1.4c0,.1,0,.2.1.2v0Zm.4-5.9v0l.1-.1h-.1c0,0,0,0,0,.1Z"/><path d="M48.8,40.3c-.3-.4-.7-.7-1-.9s-.6-.4-.9-.7c-.2-.3-.4-.6-.4-1.1h.1l-.1-.7-.1.1-.1.2c0-.1.1-.2.1-.4c0-.1.1-.2.1-.3c0-.2.1-.3.1-.5c0-.1,0-.3,0-.5c0-.4,0-.8.1-1.2s.1-.8.2-1.2.2-.8.3-1.2.2-.8.2-1.3h.1l.5-1.2v-.2c-.1.1-.1.2-.1.2c0,.1-.1.1-.1.2-.4.5-.8,1.1-1.3,1.9-.5.7-1,1.4-1.5,2s-1,1.1-1.4,1.3c-.3.2-.4.3-.5.4s-.2.3-.3.6c-.3.1-.6.3-.9.6-.3.4-.6.7-.9,1s-.6.5-1,.5l-.3.3c-.2.2-.5.3-.8.4s-.6.1-.9.2c-.7-.3-1.4-.6-2.1-1.1-.7-.4-1-1.1-1-1.9c0-.3.1-.6.1-.8h.1v-.2c-.1-.1-.1-.3-.1-.4c0-.2.1-.2.1-.2l.1.1c.1-.1.1-.3.1-.5s0-.4,0-.4l.1-.1c0-.2.1-.5.3-.7.2-.3.4-.5.7-.7.2-.2.3-.4.3-.5l.1-.1c0-.2,0-.3-.1-.4s-.1-.2-.1-.3v-.4h.4l.1-.2v-.1c-.1-.1-.1-.1-.1-.1v-.1c0-.1,0-.2.1-.2l.1-.1v-.1c0,0,0-.1.1-.1v-.1l.2-.2c.1-.1.2-.2.3-.2.3-.4.5-.7.6-1h.2l.1.1c0-.1-.1-.1-.1-.1v-.1c0-.3.2-.6.7-1.1.4-.5,1-1,1.6-1.6s1.2-1.1,1.8-1.6s1-.9,1.3-1.2v-.2h.1c.1-.1.3-.2.4-.3.2-.1.3-.3.5-.4.3-.3.6-.5.8-.5l.1-.2.3-.1.1-.1.1-.1c.1,0,.1-.1.1-.1s.1,0,.1-.1l.1-.1.1-.1v-.1c0,0,0-.1.1-.1l.9-.3.1.1.7-.3.1-.1h.1l.6-.1.3-.2.1-.1v.1l.1-.1.1.1c.3-.1.6-.2.9-.2s.7.1,1.2.1c.5.1.9.2,1.3.5.4.2.7.5.7.8v.1l-1,.6c.1-.2.1-.3.1-.3v-.1c0-.1-.1-.1-.2-.1h-.3c-.7,0-1.3.2-1.9.6s-1.1.8-1.6,1.2c-.3.1-.6.3-.9.6s-.6.6-.9.7c-1.3,1-2.4,1.9-3.4,2.9-1,.9-2,2.1-2.9,3.4-.2.3-.4.6-.6,1-.3.4-.5.7-.7.8-.2.3-.3.6-.5.9s-.3.6-.4.9-.3.6-.4.9c-.2.3-.3.6-.5.8c0,.4-.1.8-.1,1.1-.1.2-.1.4-.1.5s-.1.2-.1.3s0,.2-.1.2l.2.4c.4-.2.9-.4,1.4-.6.5-.3.8-.5.8-.9l.3-.1h.1v-.1c.1-.1.1-.1.1-.1h.1l.1-.2v-.1l.2.2.6-.6c0-.2.1-.3.3-.3.5-.4,1-1,1.4-1.6.2-.3.5-.6.7-.9s.5-.6.7-.8h.1l.6-.8.2-.2.7-.9h.1c.1-.2.2-.4.3-.6l.1.1.4-.5h-.1c.2-.3.3-.5.5-.8s.4-.5.6-.7c.2-.3.4-.5.6-.8s.3-.5.5-.8c0-.2.1-.4.2-.6s.4-.3.6-.3l.3.1c.1-.2.2-.6.2-1.1.2,0,.3,0,.4-.1l.3-.1v.1l.4.1c.1-.1.2-.1.3-.1.3,0,.5.1.8.2s.5.3.7.5c0,.1,0,.1.1.1c0,0,0-.1.1-.1h.2c.4,0,.6.2.6.5v.1c-.2.2-.3.4-.5.7-.1.2-.3.4-.4.7-.3.4-.6.8-1.1,1.2v.1l-.8,1.1.1.2-1.6,2-.1.2c-.1.2-.1.4-.2.6s-.2.4-.3.6l-.4.1c.1.1.1.1.1.2s0,.2.1.2c-.3.5-.5,1-.7,1.4s-.2,1-.2,1.5c-.1.1-.2.1-.2.3s0,.2,0,.3c0,.2,0,.3,0,.5c0,.1,0,.3.1.5c0,.2.1.3.1.5s.1.3.1.5l.5-.3h.1l.1-.1.1-.1c0-.1.1-.2.1-.3l.1.4.4-.2v.2h.1c.1,0,.2-.1.3-.3.1-.1.1-.1.2-.2s.2-.1.3-.1l.1-.1v-.1c0-.2.1-.3.3-.4.1,0,.2-.1.3-.1.1-.1.2-.1.2-.1h.1l1.3-1.2h.1c.1-.1.2-.2.4-.4s.4-.3.6-.4v-.3l.3-.1h.1l1.1-1.5c0,0,0,.1.1.1s.1,0,.1.1c0,0,.1-.1.2-.2s.1-.2.1-.3l.1-.1c.1-.1.1-.1.3-.1.1-.1.2-.1.2-.1.1,0,.1,0,.1-.1-.4.7-.7,1.3-.9,1.8-.3.5-.5,1.1-.8,1.6s-.5,1.1-.9,1.6-.7,1-1.2,1.5l-.2-.2.3-.4-.1-.3-.1.1v0l-.3.3c0,.4-.2.7-.4.9h-.2l-.1-.1v.2l-.3.3-.1-.1-.6,1v-.1l-.1.1c-.1,0-.1.1-.2.1s-.1.1-.2.1c-.2.1-.3.2-.3.3l-1.4.1v0Zm4.8-3.8c0-.1,0-.2.1-.2l.1-.1-.2.1h.1l-.1.2v0v0v0Z"/><path d="M57,39.1c-.5,0-.8-.2-1.1-.5s-.4-.7-.5-1.2-.1-.9-.1-1.2c0-1.2.2-2.5.7-3.8.4-1.3,1-2.4,1.6-3.5.2-.3.3-.5.5-.8l.5-.7c.1-.2.2-.3.3-.6.1-.2.2-.4.3-.5.2-.3.3-.7.6-1s.4-.7.7-1.1c.5-.7.7-1.5.7-2.3l.1.1h.1c.1,0,.2,0,.3-.1h.2c.3,0,.7.1,1.1.4s.8.6,1.2,1s.5.8.5,1.1c0,.2-.1.5-.4.8-.2.3-.5.6-.8.9l-.4.4-.4.5c-.2.3-.5.5-.7.8s-.4.6-.6,1c-.1.1-.1.1-.1.2s0,.2-.1.2c0,.2-.2.4-.5.5v-.2c-.8.8-1.5,1.8-2,3s-.8,2.4-.8,3.5v.4c0,.2,0,.4.1.4c0,.1.1.2.2.2h.1c0,0,0,.1.1.1c0,0,0,.1.1.1v0c0,.1-.1.1-.1.2l-.4.1-.1.1c0,0,.1.1.3.1.2.1.4.1.4.1.1,0,.3-.1.6-.4.3-.2.6-.5.9-.8s.6-.5.8-.6c.2-.2.4-.3.6-.4.3-.3.5-.6.8-1c.3-.3.5-.6.7-1c.3-.3.5-.6.7-.9s.5-.6.7-.9v-.1c0-.1.1-.2.3-.5s.4-.5.6-.8.3-.4.4-.4c0,0,.1.1.1.2s0,.2-.1.2c-.2.4-.5,1-.9,1.8s-.8,1.4-1.2,2.1-.8,1-1.1,1.1c-.1.2-.2.4-.3.6s-.3.4-.5.4c-.1.2-.2.2-.4.2-.1.3-.2.4-.3.4-.1.1-.1.1-.2.2s-.1.1-.1.1c0,.1-.1.2-.3.4-.2.1-.4.2-.5.3-.2.2-.4.3-.6.5-.3.2-.5.3-.8.3h-.1l-.1-.1h-.1l-.1-.1c-.1,0-.3,0-.5.1-.4.4-.5.4-.6.4v0ZM66.4,17c-.5,0-.9-.2-1.1-.7s-.4-.9-.4-1.3c1-.7,1.9-1.4,2.9-2.1s2-1.2,3-1.6l.6-.4.1.2c0,.2-.2.5-.6.8s-.7.5-.9.6c0,.1-.2.3-.5.8s-.6,1-1,1.5c-.4.6-.8,1.1-1.2,1.5-.5.5-.7.7-.9.7Z"/><path d="M62.8,39.7v0c-.1-.1-.2-.2-.3-.2l-.1-.1c-.1,0-.1-.1-.2-.1h.3c.1,0,.1-.1.2-.1s.1-.1.2-.1c.2-.1.3-.2.4-.2.2-.1.3-.3.5-.7s.4-.8.5-1.2.3-.8.4-1l.1-.6c0-.2,0-.3.1-.5.1-.4.2-.7.3-1s.3-.7.5-1l.1-.4c0-.3,0-.4.1-.5c0,0-.1,0-.1-.1h-.1c0,0-.1,0-.1-.1c0,0,0-.1.1-.1v-.1l.4-.7c.1-.3.3-.4.6-.5.1-.3.3-.6.6-1.1s.4-.8.4-1c0-.3-.1-.5-.1-.7-.1-.2-.2-.4-.2-.7c0-.1,0-.1,0-.2s0-.1.1-.2c0-.1.1-.1.1-.2s0-.2.1-.2c0-.1.1-.2.1-.5.1-.3.1-.6.2-.9s.1-.5.1-.6c.1-.7.3-1.2.5-1.5l-.1-.1c.2-.2.3-.4.5-.7.1-.3.2-.5.2-.8c0-.1,0-.2-.1-.3-.1,0-.1,0-.1-.1c0-.2.1-.3.2-.4s.2-.2.3-.2v-.1c-.2-.1-.3-.1-.4-.2s-.2-.1-.3-.1v-.2v0c0,.1,0,.1-.1.1c0,0,0,0,0,.1l-.1-.1c-.1,0-.1,0-.2-.1-.1,0-.1,0-.2-.1-.1,0-.1,0-.2,0s-.1,0-.2-.1c-.1,0-.2-.1-.2-.2s.1-.1.2-.2c.2-.1.3-.1.3-.1.5.1,1.1.2,1.8.4s1.3.3,2,.6c.6.2,1,.5,1.2.8.1.1.1.2.1.3s0,.2,0,.3c0,.3-.1.6-.2,1l-.4,1c-.1.1-.1.3-.1.4s-.1.3-.3.6c-.2.2-.4.4-.6.5l.1.1c0,.1,0,.1.1.1s.2.1.1.1c.1.1.1.2.1.3s0,.2-.1.3-.1.2-.3.2l-.1.1c-.1.1-.1.2-.1.3v.1h.1c0,.3-.1.5-.3.6-.1.3-.2.6-.3.9-.2.4-.4.7-.5,1v.1c0,.1,0,.1-.1.1l-.1.1c0,.1-.1.2-.2.3c0,.1-.1.1-.1.2-.1.1-.1.1-.1.2-.1.1-.1.2-.2.3s-.1.2,0,.4h-.1v.1c0,.1,0,.1-.1.1-.1.1-.2.3-.3.4s-.3.2-.5.3L67.1,35c0,.1-.1.2-.3.3l.3.3h-.4l.2.2h-.2l-.1.1h-.1c0,0-.1.1-.2.1v.3l.1.1-.2.3-.1.1h-.1l-.2.1c-.1.1-.1.1-.1.2c0,.2,0,.3.1.3.1-.1.3-.4.7-.7.3-.4.6-.7.9-1.2.3-.4.6-.8.8-1.2s.3-.6.3-.7c.2,0,.3-.2.4-.5.1-.1.2-.2.2-.3s.1-.1.2-.2c.6-.5,1.2-1.1,1.7-1.7s1-1.3,1.5-1.9s1-1.3,1.5-1.9s1.2-1.3,1.9-1.9c.5-.4,1.2-.9,1.9-1.5s1.4-1.1,2.1-1.5s1.3-.6,1.9-.6c.4,0,.6.2.6.6c0,.2,0,.3-.1.6c0,.2-.1.4-.1.6-.2.5-.4,1.1-.7,1.7s-.5,1.1-.8,1.7c-.2.5-.4.9-.5,1.3-.2.5-.4,1-.6,1.4-.1.1-.1.2-.2.2l-.1.1c0,0,0,.1,0,.2s0,.2-.1.3l.3-.1c-.2.5-.4,1-.6,1.4-.1.4-.2.9-.2,1.4c0,.1,0,.2-.1.2v.1c-.2,0-.3,0-.3-.1-.1,0-.1,0-.2.1c0,0-.1.1-.1.2l-.1.1c0,.1,0,.1-.1.1l.3-.1c0,.3-.1.5-.1.8c0,.1-.1.2-.1.3s0,.2,0,.3c0,.4.1.8.3,1.1s.6.4,1,.4c.1,0,.2,0,.2-.1h.6c.1-.1.3-.1.5-.3.2-.1.5-.2.7-.4.3-.2.5-.3.7-.5s.4-.5.6-.9c-.1.6-.2.9-.3,1.1s-.3.4-.8.8-1,.7-1.7,1.2c-.7.4-1.3.6-1.9.6-.5,0-1-.2-1.4-.5s-.7-.7-.9-1.1l-.2-.2c-.1-.1-.2-.3-.2-.4s0-.1.1-.1v-.1l.3-.1.1-.1c0-.1-.1-.1-.1-.2s0-.1,0-.2v-.3c0-.6.1-1.3.2-1.9s.3-1.3.4-1.9h.1c.1-.5.2-1,.4-1.3l.1-.1h-.2l.1-.2-.1-.4c.1-.1.2-.4.4-.9s.3-.9.5-1.4c.2-.4.3-.7.3-.8-.1,0-.2.1-.3.1-.9.6-1.6,1.4-2.3,2.3-.3.5-.7.9-1,1.3s-.7.8-1,1.2c-.7.8-1.5,1.6-2.3,2.4-.4.4-.8.8-1.2,1.2s-.7.8-1.1,1.3L67,37.2c-.5.6-1,1.2-1.5,1.8-.4.4-.8.6-1.2.6-.2,0-.4,0-.6,0s-.4.1-.7.1h-.2v0Zm6.1-9.2c.1-.2.2-.2.3-.2l-.2-.2c0,.1-.1.1-.1.2s-.1.1,0,.2v0v0Z"/><path d="M84.1,44.6c-.2,0-.5-.1-.7-.1-.3-.1-.5-.2-.7-.4s-.4-.5-.7-1-.5-.9-.5-1.1c0-.6,0-1.2.1-1.8s.2-1.2.3-1.8c.2-.2.3-.4.3-.6s.1-.4.1-.7c.3-.3.4-.6.4-1s.2-.6.6-.6l.1-.1c0,0,0-.1-.1-.2-.1-.2-.1-.3-.1-.4s0-.2.1-.4c0-.1.1-.1.1-.2s.1-.1.1-.2c0,0,.1-.1.1-.3.1-.4.2-.7.3-.9.1-.3.3-.6.5-.8.2-.1.3-.1.4,0s.2.2.1.4c0,.2-.1.4-.1.6h.4c-.1.6-.3,1.2-.4,1.8-.2.6-.3,1.2-.5,1.8-.4,1.2-.6,2.4-.6,3.6c0,1.1.2,2.2.7,3.1l.7-.4.2-.4v.5l.1.2c.1-.2.2-.3.3-.4s.3-.2.6-.2l.1.3c0,.1,0,.2-.1.2-.2.4-.5.8-.9,1-.4.4-.9.5-1.3.5v0Zm1.5-12.9c-.3.1-.5.1-.6-.1s-.2-.3,0-.5.3-.3.3-.4.1-.3.1-.4v-.4c0-.2,0-.4.1-.4l.3-.3c0-.1.1-.1.3-.2l.2-.7c-.2-.3-.2-.5.1-.8l.1-.1v-.1l.1-.1.3-.5.1-.1h.1c-.1-.2,0-.3.1-.5s.2-.3.3-.5.3-.3.4-.5c.3-.3.5-.7.5-1c.1-.3.2-.5.4-.7c0,0-.1,0-.1-.1c0,0,0-.1-.1-.1c0,0,0-.1.1-.1v.1c.1-.1.2-.2.3-.5.2-.3.3-.6.5-.8.1-.1.1-.2.2-.3s.1-.2.2-.3l.2-.4-1.3-.4c-.6-.2-1.2-.5-1.7-.9s-.7-1-.7-1.8c0-.3.1-.7.3-.9.2-.3.4-.5.7-.7.1-.1.2-.2.2-.2.3-.3.5-.4.8-.3s.3.3,0,.6l-.3.4c-.1.2-.3.4-.4.6s-.2.4-.2.7.2.6.7.8s1,.4,1.5.6c.6.1,1,.2,1.2.2c1.3-1.7,2.6-3.4,3.9-5.1s2.6-3.4,3.9-5.1c.1-.1.2-.3.2-.7l1.8-1.9c.1.1.3.1.4.1s.2.1.4.1c.1,0,.3.1.4.1s.2.1.4.1c.3.1.5.1.7.2s.4.3.6.5c.4.3.5.8.5,1.3s-.2,1-.7,1.4-.9.8-1.3,1.1c-.1.1-.3.2-.4.3s-.2.2-.4.3c-.3.3-.5.4-.9.4v-.5h.1c.1-.2.3-.3.4-.5s.3-.4.4-.5c.3-.3.6-.7.7-1.1-.1.1-.3.2-.4.3s-.2.2-.4.3c-.1.1-.3.2-.4.3l-.4.4c-.2.2-.4.5-.8.9s-.7.8-1.2,1.3c-.4.4-.7.8-1.1,1.2s-.6.6-.8.8l-.1.1.2.2-.6.2.1.1c0,.3-.1.4-.2.5-.2.1-.3.1-.5.1-.1.2-.2.4-.3.5s-.3.3-.6.4l.1.1c0,0,0,.1.1.1c0,0,0,.1.1.1h-.1v.1h-.2c0,0-.1.1-.1.2l.1.2c0,0,.1.1.1.2.5-.5.9-1,1.3-1.4.4-.5.9-1,1.3-1.5l2.6-2.9h.1c0,0,0,.1.1.1c0,0,0,.1.1.1c0,.2-.2.6-.5,1.1-.4.5-.8,1-1.3,1.6-.9.9-1.7,1.9-2.5,2.8-.1.1-.2.2-.3.4-.1.1-.2.2-.3.4h.4c.4,0,.8,0,1.1-.1s.7-.1,1-.2c.2,0,.3-.1.5-.1.2-.1.3-.1.5-.1s.3-.1.5-.1.3-.1.5-.1c.4-.1.9-.2,1.5-.3s1.1-.3,1.4-.6c.8-.3,1.7-.4,2.5-.6.1,0,.1-.1.2-.1s.1,0,.1-.1c.1-.1.1-.1.2-.1l.4-.1.4-.1v-.1c.5-.1.9-.2,1.3-.4s.9-.4,1.3-.6.8-.3,1.2-.5c.4-.1.8-.2,1.2-.2l.1-.3c.4-.4.8-.6,1.3-.6v.2c.1.1.2.3.2.4s0,.1-.1.1c-.3.3-.6.4-1,.5c0,.1.1.1.1.1v.1c0,.1-.1.1-.1.1-.1.1-.3.1-.5.1s-.2-.1-.2-.3l.1-.1c-.2,0-.3,0-.4-.1-.2.6-.6.9-1.1.9l-.1.4-.5-.1c-.2.2-.3.2-.5.2-.1.2-.1.3-.2.4s-.2.2-.4.2l.1-.1-.1-.1c-.2.3-.5.5-.8.7s-.7.3-1.1.3l-.1-.3h-.1c0,0,.1.1.1.2s-.1.2-.2.3-.2.1-.3.1c0,0-.1,0-.1-.1h-.1c-.2.1-.3.2-.4.2s-.1,0-.1-.1h-.1c-.2.1-.3.2-.4.2s-.3,0-.6.1c-.4.1-.9.2-1.3.3-.5.2-.9.3-1.3.5c0,0-.1.1-.2.1s-.1,0-.1.1c-1,.5-2,.8-3,.8-1.1.1-2.1.2-3.2.4-.1,0-.2.1-.3.1s-.2,0-.3,0-.2,0-.3,0-.2,0-.3.1c-.2,0-.4.2-.7.5s-.6.6-.8.9-.5.6-.6.8c-.1.1-.3.3-.4.4-.2.1-.3.3-.5.4-.3.2-.6.5-.9.9l-.2.2c-.1.1-.2.2-.2.3-.2.3-.4.4-.6.5.1.2,0,.3-.1.3l-.2.1c-.3.3-.4.6-.4,1-.1.1-.2.2-.2.4l-.1.2-.1.2c-.2.2-.3.5-.5.8-.1.3-.3.6-.5,1s-.3.7-.5,1c-.1.3-.3.6-.4.9v0Z"/><path d="M95.1,39.1c-.5,0-.8-.2-1.1-.5s-.4-.7-.5-1.2-.1-.9-.1-1.2c0-1.2.2-2.5.7-3.8.4-1.3,1-2.4,1.6-3.5.2-.3.3-.5.5-.8l.5-.7c.1-.2.2-.3.3-.6.1-.2.2-.4.3-.5.2-.3.3-.7.6-1c.2-.3.4-.7.7-1.1.5-.7.7-1.5.7-2.3l.1.1h.1c.1,0,.2,0,.3-.1h.2c.3,0,.7.1,1.1.4s.8.6,1.2,1s.5.8.5,1.1c0,.2-.1.5-.4.8-.2.3-.5.6-.8.9l-.4.4-.4.5c-.2.3-.5.5-.7.8s-.4.6-.6,1c-.1.1-.1.1-.1.2s0,.2-.1.2c0,.2-.2.4-.5.5v-.2c-.8.8-1.5,1.8-2,3s-.8,2.4-.8,3.5v.4c0,.2,0,.4.1.4c0,.1.1.2.2.2h.1c0,0,0,.1.1.1c0,0,0,.1.1.1v0c0,.1-.1.1-.1.2l-.1.1-.1.1c0,0,.1.1.3.1.2.1.4.1.4.1.1,0,.3-.1.6-.4.3-.2.6-.5.9-.8s.6-.5.8-.6c.2-.2.4-.3.6-.4.3-.3.5-.6.8-1c.3-.3.5-.6.7-1c.3-.3.5-.6.7-.9s.5-.6.7-.9v-.1c0-.1.1-.2.3-.5s.4-.5.6-.8.3-.4.4-.4c0,0,.1.1.1.2s0,.2-.1.2c-.2.4-.5,1-.9,1.8s-.8,1.4-1.2,2.1-.8,1-1.1,1.1c-.1.2-.2.4-.3.6s-.3.4-.5.4c-.1.2-.2.2-.4.2-.1.3-.2.4-.3.4-.1.1-.1.1-.2.2s-.1.1-.1.1c0,.1-.1.2-.3.4-.2.1-.4.2-.5.3-.2.2-.4.3-.6.5-.3.2-.5.3-.8.3h-.1l-.1-.1h-.1l-.1-.1c-.1,0-.3,0-.5.1-.6.4-.8.4-.9.4v0ZM104.6,17c-.5,0-.9-.2-1.1-.7-.3-.4-.4-.9-.4-1.3c1-.7,1.9-1.4,2.9-2.1s2-1.2,3-1.6l.6-.4.1.2c0,.2-.2.5-.6.8s-.7.5-.9.6c0,.1-.2.3-.5.8s-.6,1-1,1.5-.8,1.1-1.2,1.5c-.5.5-.8.7-.9.7v0Z"/><path d="M101,39.7v0c-.1-.1-.2-.2-.3-.2l-.1-.1c-.1,0-.1-.1-.2-.1h.3c.1,0,.1-.1.2-.1s.1-.1.2-.1c.2-.1.3-.2.4-.2.2-.1.3-.3.5-.7s.4-.8.5-1.2.3-.8.4-1l.1-.6c0-.2,0-.3.1-.5.1-.4.2-.7.3-1s.3-.7.5-1l.1-.4c0-.3,0-.4.1-.5c0,0-.1,0-.1-.1v0c0,0-.1,0-.1-.1c0,0,0-.1.1-.1v-.1l.4-.7c.1-.3.3-.4.6-.5.1-.3.3-.6.6-1.1s.4-.8.4-1c0-.3-.1-.5-.1-.7-.1-.2-.2-.4-.2-.7c0-.1,0-.1,0-.2s0-.1.1-.2c0-.1.1-.1.1-.2s0-.2.1-.2c0-.1.1-.2.1-.5.1-.3.1-.6.2-.9s.1-.5.1-.6c.1-.7.3-1.2.5-1.5l-.1-.1c.2-.2.3-.4.5-.7.1-.3.2-.5.2-.8c0-.1,0-.2-.1-.3s-.1-.1-.1-.2c0-.2.1-.3.2-.4s.2-.2.3-.2v-.1c-.2-.1-.3-.1-.4-.2s-.2-.1-.3-.1v-.2v0c0,.1,0,.1-.1.1c0,0,0,0,0,.1l-.1-.1c-.1,0-.1,0-.2-.1-.1,0-.1,0-.2-.1-.1,0-.1,0-.2,0s-.1,0-.2-.1c-.1,0-.2-.1-.2-.2s.1-.1.2-.2c.2-.1.3-.1.3-.1.5.1,1.1.2,1.8.4s1.3.3,2,.6c.6.2,1,.5,1.2.8.1.1.1.2.1.3s0,.2,0,.3c0,.3-.1.6-.2,1l-.4,1c-.1.1-.1.3-.1.4s-.1.3-.3.6c-.2.2-.4.4-.6.5l.1.1c0,.1,0,.1.1.1s.2.1.1.1c.1.1.1.2.1.3s0,.2-.1.3-.1.2-.3.2l-.1.1c-.1.1-.1.2-.1.3v.1h.1c0,.3-.1.5-.3.6-.1.3-.2.6-.3.9-.2.4-.4.7-.5,1v.1c0,.1,0,.1-.1.1l-.1.1c0,.1-.1.2-.2.3c0,.1-.1.1-.1.2s-.1.1-.1.2c-.1.1-.1.2-.2.3s-.1.2,0,.4h-.1v.1c0,.1,0,.1-.1.1-.1.1-.2.3-.3.4s-.3.2-.5.3l-1.5,3.7c0,.1-.1.2-.3.3l.3.3h-.4l.2.2h-.2l-.1.1h-.1c0,0-.1.1-.2.1v.3l.1.1-.2.3-.1.1h-.1l-.2.1c-.1.1-.1.1-.1.2c0,.2,0,.3.1.3.1-.1.3-.4.7-.7.3-.4.6-.7.9-1.2.3-.4.6-.8.8-1.2s.3-.6.3-.7c.2,0,.3-.2.4-.5.1-.1.2-.2.2-.3s.1-.1.2-.2c.6-.5,1.2-1.1,1.7-1.7s1-1.3,1.5-1.9s1-1.3,1.5-1.9s1.2-1.3,1.9-1.9c.5-.4,1.2-.9,1.9-1.5s1.4-1.1,2.1-1.5s1.3-.6,1.9-.6c.4,0,.6.2.6.6c0,.2,0,.3-.1.6c0,.2-.1.4-.1.6-.2.5-.4,1.1-.7,1.7s-.5,1.1-.8,1.7c-.2.5-.4.9-.5,1.3-.2.5-.4,1-.6,1.4-.1.1-.1.2-.2.2l-.1.1c0,0,0,.1,0,.2s0,.2-.1.3l.3-.1c-.2.5-.4,1-.6,1.4-.1.4-.2.9-.2,1.4c0,.1,0,.2-.1.2v.1c-.2,0-.3,0-.3-.1-.1,0-.1,0-.2.1c0,0-.1.1-.1.2l-.1.1c0,.1,0,.1-.1.1l.3-.1c0,.3-.1.5-.1.8c0,.1-.1.2-.1.3s0,.2,0,.3c0,.4.1.8.3,1.1s.6.4,1,.4c.1,0,.2,0,.2-.1h.1c.1-.1.3-.1.5-.3.2-.1.5-.2.7-.4.3-.2.5-.3.7-.5s.4-.5.6-.9c-.1.6-.2.9-.3,1.1s-.3.4-.8.8-1,.7-1.7,1.2c-.7.4-1.3.6-1.9.6-.5,0-1-.2-1.4-.5s-.7-.7-.9-1.1l-.2-.2c-.1-.1-.2-.3-.2-.4s0-.1.1-.1v-.1l.3-.1.1-.1c0-.1-.1-.1-.1-.2s0-.1,0-.2v-.3c0-.6.1-1.3.2-1.9s.3-1.3.4-1.9h.1c.1-.5.2-1,.4-1.3l.1-.1h-.2l.1-.2-.1-.4c.1-.1.2-.4.4-.9s.3-.9.5-1.4c.2-.4.3-.7.3-.8-.1,0-.2.1-.3.1-.9.6-1.6,1.4-2.3,2.3-.3.5-.7.9-1,1.3s-.7.8-1,1.2c-.7.8-1.5,1.6-2.3,2.4-.4.4-.8.8-1.2,1.2s-.7.8-1.1,1.3l-1.4,1.9c-.5.6-1,1.2-1.5,1.8-.4.4-.8.6-1.2.6-.2,0-.4,0-.6,0s-.4.1-.7.1l.1-.2v0Zm6-9.2c.1-.2.2-.2.3-.2l-.1-.2c0,.1-.1.1-.1.2s-.1.1-.1.2v0v0Z"/><path d="M116.5,59.3c-.1,0-.1-.1-.2-.1-.7-.3-1.4-.6-2-1.1-.6-.4-.9-1.1-.9-2c0-.4.1-.9.2-1.4.1-.2.2-.4.2-.7s.1-.4.1-.7l.2-.1.1-.8.4-.8c.1-.3.3-.6.5-1s.4-.8.6-1.2.4-.6.6-.8v-.2l.2.2c.4-.6.8-1.1,1.3-1.5s1-.8,1.5-1.2c0-.2.1-.4.3-.4l-.1-.2.3-.1l3.1-2.6.1-.1c0-.1,0-.2-.1-.3.1,0,.2.1.3.3s.1.2.1.1v-.1l.1-.1.1-.1h-.1c0,0-.1,0-.1-.1l.1-.2.1-.1c.1-.1.2-.1.2-.1.1,0,.1,0,.1.1s0,.1,0,.1l.4-.6.1.2.2-.2v-.1c.2,0,.5-.2.8-.5.4-.3.6-.5.6-.7h.1l1.5-.8.8-.7h.2v.1c.4-.3.7-.6,1.2-.9.4-.3.9-.5,1.4-.5v-.1l.2.1c0-.1.1-.2.1-.3s.1-.3.1-.4l.1-.9c0-.1.1-.3.1-.7.1-.4.2-.7.2-.7l.2-.2c.1,0,.1,0,.1-.1c0,0,0-.1-.1-.1h-.1c-.1-.1-.1-.1-.1-.2c0-.2.1-.4.1-.6.1-.1.1-.2.1-.3s0-.2.1-.3h-.1c-.1,0-.1-.1-.1-.2c0-.3.1-.5.3-.8s.2-.5.2-.7c0-.4.1-.9.1-1.3c0-.2.1-.4.1-.6s0-.4,0-.6c0-.3,0-.4-.1-.5c0,.1-.1.1-.1.2h.1c-.3.6-.7,1.3-1.2,2.1s-.9,1.6-1.4,2.4-.9,1.5-1.3,2c-.7,1-1.6,2-2.5,2.9s-1.9,1.6-3.1,2.2l-.1-.1c-.1.1-.3.2-.5.2s-.3.1-.5.1c-.7,0-1.3-.3-1.6-.9s-.5-1.3-.5-1.9c0-.5,0-1.1.1-1.7s.2-1.1.5-1.7l.1-.4c0,0,.1-.1.1-.3.2-.1.3-.3.4-.6s.2-.5.2-.7c.2-.1.3-.3.3-.5l.2-.3c.1-.1.2-.1.3-.1c0-.3,0-.5.1-.7s.3-.3.5-.3v-.2l.2-.3-.2-1c.1-.1.2-.3.4-.6s.3-.5.4-.7c-.1-.1-.1-.2-.1-.3c0-.3.2-.6.6-1l.2-.2c.2-.2.3-.5.3-.7l.4-.1c0-.2.2-.3.4-.3h.1c.1-.3.3-.6.4-.7.1-.2.2-.3.4-.4.1-.1.2-.2.2-.2l.2-.1c.2-.2.4-.3.5-.4s.2-.3.4-.6c.1-.1.1-.2.2-.3s.1-.2.2-.3c.5-.4,1.1-.8,1.9-1s1.5-.3,2.2-.3c.6,0,1.3.1,2.1.3s1.4.6,1.7,1.2c.4.6.7,1.3,1,1.9s.5,1.3.5,2.1v.2c0,.1,0,.2-.1.2c0,.1-.1.2-.1.3v.5c0,.1,0,.2.1.3s.1.2.1.3v-.1c0,.1-.1.4-.2.7-.2.4-.3.7-.5,1.1s-.4.5-.5.5-.2-.1-.2-.1c0-.1-.1-.2-.1-.2c0-.2,0-.3,0-.5s0-.3.1-.5c0-.2.1-.3.1-.5s.1-.3.1-.5c.1-.3.2-.7.2-1.1.1-.4.1-.7.1-1.1c0-.2,0-.5-.1-.8c0-.3-.1-.5-.2-.7-.1-.1-.1-.2-.2-.3s-.1-.2-.2-.3-.1-.2-.2-.3-.2-.2-.2-.3c-.3-.4-.7-.6-1.2-.6-.2,0-.4.1-.6.1l-.1.1c-.2,0-.3,0-.4,0s-.3.1-.4.2l-.3.1-.3.2c-2.1,1.3-3.9,3-5.4,5.1s-2.8,4.2-3.8,6.4c-.2.5-.5,1.1-.7,1.7s-.4,1.2-.4,1.7c0,.3.1.5.1.8l.1.1c0,0,.1.1.2.1.2,0,.5-.1.8-.4s.6-.5,1-.9c.3-.3.6-.6.8-.7.2-.2.4-.4.6-.4.3-.4.6-.9.9-1.2.2-.2.3-.3.5-.5s.3-.3.4-.5c.8-1,1.6-2.1,2.4-3.3.9-1.2,1.5-2.2,1.9-3.2.1-.2.1-.3.2-.5s.1-.4.1-.5c0-.3.2-.6.6-.9l.7-.1c.3.1.6.1.8.1s.3,0,.4-.1h.4c.4,0,.6.2.7.5s.1.7.2.9c0,.1,0,.2.1.2l.1.1c0,.1,0,.2,0,.3c0,.2.1.3.1.4s0,.2,0,.3c0,.5-.1,1-.2,1.4-.2.5-.2.9-.2,1.4c0,.4-.1.7-.3,1.1-.2.3-.3.7-.3,1.1c0,.3-.1.5-.3.5h-.1c-.1,0-.1,0-.1.1s0,.1.1.2c0,.1.1.2.1.3c0,0,0,.1-.1.3-.1.1-.1.2-.1.3s-.2.2-.4.2c-.1,0-.2.1-.3.1s-.2,0-.2,0h-.1c0,.1.1.1.1.1s.1-.1.2-.1.2,0,.3,0c.2,0,.2.1.2.2s-.1.3-.2.6-.3.6-.4.9-.3.6-.3.7l.2.2-.1.1c0,0,0,.1-.1.1l-.2.2c.8.2,1.3.4,1.7.7s.6.9.6,1.9c0,.4-.1.6-.2.7s-.2.2-.2.3-.1.1-.2.2-.2.1-.2.1c-.1,0-.2-.1-.2-.1v-.1h-.1l.3-.8c0-.1.1-.2.1-.3s.1-.2.1-.3c0-.4-.3-.6-.8-.8s-1-.3-1.3-.4c-.5,1.2-1.1,2.4-1.8,3.6s-1.3,2.4-1.9,3.5c-.2.4-.5.8-.7,1.2s-.5.9-.7,1.3c-.5.9-1,1.7-1.6,2.4-.4.6-.9,1.2-1.4,1.9-.5.6-1,1.2-1.4,1.9-.4.6-.9,1.1-1.4,1.4s-1,.6-1.6.9c-.5.3-1.1.7-1.8,1.2-.3,0-.6.1-1,.3-.3.2-.6.3-1,.2.2.5.2.5.2.5v0Zm-1.1-1.8c.1,0,.3-.1.4-.1s.2,0,.3,0c.1-.1.2-.1.3-.2s.2-.1.3-.2l.7-.4c.3-.2.5-.3.7-.5s.4-.3.6-.5l.2-.2.2-.2c.1-.1.1-.2.2-.3s.2-.2.2-.2c.1-.1.1-.2.2-.3s.2-.2.2-.2c.1-.1.1-.2.2-.3s.2-.2.2-.2l.3-.1v.1c.2-.2.3-.4.5-.6s.4-.4.6-.5l-.1-.1.9-.8v.3l.1-.1.1-.1.3-.7-.1-.1-.1.1h-.2v-.2c.4-.5.8-1.1,1.3-1.7s1-1.2,1.4-1.8.6-1.2.7-1.7l.8-.8h.1l1-1.6-.1-.3l1.5-1.9c0-.2.2-.5.4-.7.2-.3.3-.5.3-.8c0-.1,0-.1-.1-.1-.3,0-.9.3-1.7.9-.1.1-.3.1-.4.2s-.3.2-.5.3c-.3.2-.6.4-.9.4L124.2,43h-.1l-3.9,3.2c-.2.2-.5.6-.9,1.1s-.6,1-.8,1.4l-.2-.2c0,0-.1.2-.2.5-.1.2-.1.3-.2.4s-.1.2-.1.3v.1c0,0,0,.1-.1.1s-.1.1-.2.1l-.1-.1-1.2,1.9h-.1l-.1-.1c0,.1-.1.1-.1.2s0,.2-.1.2c0,.2-.1.3-.2.4l-.9,2.3c0,.1,0,.2,0,.4c0,.1,0,.2-.1.4-.1.3-.1.5-.1.7.3.5.5.9.9,1.2v0Zm7.3-26.3v0-.2.2c-.1,0,0,0,0,0Z"/><path d="M143.1,38.9c-.2,0-.3,0-.5,0-.1,0-.3,0-.5-.1s-.3-.1-.5-.1-.3-.1-.5-.1l.1-.2c-1,0-1.7-.2-2-.6s-.5-1.1-.5-2.1c0-.1,0-.2.1-.2v-.1c.2,0,.3.1.4.1s.2,0,.2,0c.3,0,.5-.1.7-.2.2,0,.4-.1.6-.1s.4,0,.6-.1c.2,0,.3,0,.5,0s.4,0,.5-.1v-.1c-.5-1.1-1-2.1-1.4-3s-.6-1.9-.6-3c0-.7.1-1.4.4-2s.5-1.2.7-1.9c.1-.2.2-.3.3-.3s.3,0,.3-.1c.1-.2.3-.3.4-.4.2-.2.4-.5.7-.6.1-.1.2-.2.3-.3l.3-.3c.9-.7,1.8-1.4,2.9-1.9s2.1-1,3.1-1.4l1.3.8c.2.3.4.7.6,1s.3.7.3,1.1v.2c0,.1-.1.2-.1.3l-.3.4c-1,.6-1.8,1.2-2.5,1.5-.7.4-1.2.7-1.7,1s-.8.5-.8.5c-.1,0-.2-.1-.2-.1c0-.1.2-.3.6-.7.4-.3.9-.7,1.4-1.1s1-.7,1.4-1s.6-.4.7-.5c-.9.1-1.8.3-2.6.6-.9.3-1.6.7-2.3,1.1-.1,0-.2,0-.3,0s-.2,0-.3.1-.2.2-.2.4-.1.3-.1.4c-.4.4-.7.9-1,1.5-.2.6-.4,1.2-.4,2c0,.2.1.5.2,1.1.2.6.4,1.2.6,1.9.3.7.5,1.3.8,1.8s.6.8.8.8h1.2c.2,0,.4,0,.6,0s.4,0,.6-.1c.4-.1.7-.2,1-.3.7-.2,1.3-.3,2-.3.2-.1.5-.2.8-.3.2,0,.3-.1.5-.1.1,0,.3,0,.4-.1l.3.1-.1.4c-.2.1-.6.2-1.1.4s-1,.4-1.5.5-.9.2-1.1.2l-.2-.1c0,0-.1,0-.1-.1h-.1c-.3,0-.5.1-.8.1-.1.1-.3.1-.4.2s-.3.1-.4.2c-.3.1-.6.2-.9.3s-.7.1-1,.1c-.1.6-.3,1.2-.7,1.8-.2.9-.8,1.2-1.5,1.2v0Zm-1-1.9c.1,0,.1-.1.1-.3c0-.1,0-.1-.1-.3s-.1-.2-.1-.2c-.2,0-.3,0-.5,0s-.4,0-.5-.1c-.2,0-.4-.1-.6-.1s-.4,0-.5,0h-.1c.1.1.3.2.6.4s.7.3,1.1.4c.4.2.5.2.6.2v0Z"/><path d="M157,45.6c-.1,0-.3-.2-.6-.5-.3-.4-.5-.7-.7-1.1s-.3-.7-.3-.8s0-.3,0-.4s0-.3.1-.4.1-.2.1-.4c0-.1.1-.2.1-.4v.2c.2-.1.3-.2.3-.4v-.1l-.3.2c.1-.1.2-.2.3-.3.1-.2.2-.3.3-.3s.2-.1.3-.2l.3-.3-.2.1.9-.7.1.1c.4-.3.8-.4,1.3-.6s1-.3,1.4-.5.8-.5,1-.8v-.1l.2.1c0-.6.1-1.3.2-2s.3-1.3.6-1.9c0-.2.1-.3.3-.3.1,0,.2.1.2.3s.1.3.1.4c0,.5,0,1-.1,1.5-.1.3-.1.5-.1.8s-.1.6-.1.8c.1,0,.2-.1.3-.1s.2,0,.3,0v.1l2.2-.7v.1c.1,0,.1,0,.1,0h.1l-.1.1h-.1c0,0-.1,0-.1.1h.9l-.2.2h.1c.3,0,.5-.1.8-.2l-.1-.1.3-.1-.7-.1.1-.1h.7c.1,0,.3,0,.4,0s.2,0,.4-.1c0,0,.1-.1.3-.1h.2c.2,0,.4,0,.8.1s.6.1.7.1v-.1h.5c.4,0,.6,0,.7.1l.1-.1c-.1-.1-.2-.1-.4-.1s-.3-.1-.2-.1h1.1v.1l2.5-.1.1.1c0,0,.2.1.5.1.2-.3.3-.5.5-.8s.4-.5.5-.7c.2-.3.3-.5.5-.7s.3-.5.5-.7c1-1.6,2-3.3,2.9-5s1.8-3.4,2.6-5.2h-.1c-.3,0-.5-.1-.5-.4c0-.1,0-.2,0-.3s0-.2.1-.4l-.3.3c0,0-.1.2-.3.6-.2.3-.4.7-.7,1.2-.3.4-.5.8-.7,1.2-.2.3-.3.5-.4.5v-.1c0,0-.1,0-.1-.1c0-.4.2-1,.7-1.7.4-.7.9-1.4,1.4-2.2s.8-1.4,1-2l.3-1c.1-.2.1-.3.2-.5s.1-.3.2-.5c.4-1,.8-2,1.4-2.9.5-.9,1.1-1.9,1.6-2.8.1-.3.3-.8.7-1.3s.5-1,.5-1.2c0-.1,0-.1-.1-.1s-.1,0-.1-.2.1-.5.3-1s.4-.8.4-1c.1-.2.3-.4.4-.7.1-.2.3-.4.4-.6l.8-1.1-.8-.1.1-.1-.2-.1-.1.1.1.1h-.1-.1c0,.1,0,.1.1.1c0,0,.1,0,.1.1v.2l-.1.1c-.1-.1-.2-.2-.3-.2s-.2-.3-.3-.3-.2.1-.3.1l-.5-.1v-.2c-.1.2-.2.3-.3.3-.3,0-.5,0-.8,0s-.6,0-.8-.1c-.3,0-.6-.1-.9-.1s-.6,0-.8,0h-.3c-.1,0-.2.1-.3.1h-.3v0l.1-.1h.5c.2,0,.3,0,.3.1l-.6.3.1.1c-.9.1-1.8.2-2.7.4s-1.8.5-2.6.8l.1.1-.6.3.1-.2c-.5.5-.9.9-1.2,1.1s-.5.4-.7.6-.3.4-.4.7-.1.8-.1,1.6v.2c0,.1,0,.2-.1.2s-.3-.2-.4-.6-.2-.8-.3-1.2-.1-.7-.1-.8c0-.3,0-.6.1-.9.1-.1.1-.2.1-.3s.1-.2.1-.3c.1,0,.1-.1.2-.2s.1-.2.1-.2l-.1-.1-.2.1.3-.3c.1-.1.2-.2.2-.3h.1c.1,0,.2-.1.3-.2s.2-.2.2-.3l-.1.1h-.1l.8-.7v.1c.4-.3.8-.4,1.3-.5s.9-.2,1.3-.4c.4-.1.6-.4.7-.8l.1.1c.3,0,.5-.1.6-.1.2-.1.4-.1.6-.1h.1l.2.1l1.9-.5v.1h.2l-.3.1.7.1-.2.1.1.1c.1,0,.2,0,.3-.1s.2-.1.3-.1v0h.1c0,0,.1,0,.1-.1l-.5-.1.1-.1h1.3c.2,0,.4,0,.7.1s.6.1.7.3v-.1c.4,0,.8.1,1,.2l.1-.1-.4-.3c.2,0,.5.1.7.1s.5.1.7.1l1.3.1c0-.2.1-.3.3-.4s.3-.1.5-.1c.7,0,1.4.1,2.1.3s1.1.7,1.2,1.4c.5.1.9.2,1.2.4s.6.4,1,.7.7.5,1.2.7.8.5,1.2.7c.2.2.4.3.6.6.2.2.2.4.2.7c0,.1-.1.4-.1.7-.1.3-.2.5-.4.5-.1,0-.1-.2-.1-.6s-.1-.6-.2-.7l-.1.1c-.1-.1-.3-.2-.7-.5s-.8-.4-1.1-.6c-.4-.2-.6-.4-.7-.5-.5-.3-.8-.4-1.1-.4-.1,0-.3,0-.5,0s-.4,0-.6-.1c-1,2.5-2.1,5-3.3,7.5l-3.7,7.3-2.2,4.4c-.4.7-.7,1.5-1.1,2.2s-.8,1.4-1.3,2.2c-.6.9-1.3,2-2.2,3.3-.9,1.2-1.8,2.4-2.8,3.6.3,0,.5.1.8.1s.6.1.9.1l1.6.3v.1c.2.1.4.1.6.1l.6.1c.1.1.2.1.3.2s.2.1.3.2c.5.2,1,.3,1.7.5s1.3.4,1.9.7c.5.3.8.7.8,1.1c0,.1,0,.3-.1.6s-.2.5-.3.5-.2-.2-.3-.6-.2-.6-.3-.6l-.1.1c-.2-.2-.6-.3-1.3-.6-.7-.2-1.4-.4-2-.6-.7-.2-1.2-.3-1.4-.3h-.3c-.1,0-.2,0-.3.1h-.6c-.4,0-.8-.1-1.1-.2s-.7-.3-1-.5v.1l.1.2-.2.1-.1-.1.1-.1-.1-.1c0,0-.2-.1-.4-.1s-.3,0-.4.1h-.5l-.1.1h-.1l-.3-.1c-.4.4-.7.7-1.1,1s-.7.6-1.1.8c-.1.1-.3.2-.6.5s-.5.4-.5.5c-.7.5-1.5.9-2.3,1.3s-1.7.6-2.6.6c-1.3,0-2.3-.3-3.2-.8s-1.5-1.4-1.9-2.4c-.4.1-.8.2-1.1.4s-.7.3-1.1.5l-.7.4.2-.2c.1-.1.1-.1-.2.1s-.5.4-.6.4c-.3.1-.5.3-.8.6l.4-.3c-.3.3-.6.6-.9.9s-.4.7-.4,1.2l.1.6c.1.2.1.4.1.6l-.3.5c0-.1,0-.1,0,0v0Zm10-2.9c1.2,0,2.2-.4,3.2-1.1s1.9-1.5,2.6-2.3c.1,0,.2-.1.3-.2s.1-.1.2-.2.2-.2.2-.3l-.4-.1.1-.1-.2-.1-.1.1.1.1h-.3c0,.1.1.1.2.1v.2l-.1.1c0-.1-.2-.1-.4-.1s-.3-.1-.4-.2c-.2,0-.3.1-.4.2l-.6-.1-.1-.1c-.2.2-.4.3-.5.3h-.9c-.5,0-1,0-1.6.1-.6,0-1.1.1-1.6.1s-.7.1-.8.1v.1l.1-.1h.4c.1,0,.2-.1.4-.1c0,0,.1,0,.1.1h.1-.6l.2.1c-.5.1-1.1.2-1.7.3s-1.1.2-1.7.4c.2,1,.7,1.7,1.5,2.1s1.7.6,2.7.6v0Zm7.5-35.5c0-.1.1-.1.1-.1s0-.1.1-.1v.1l-.2.1v0Z"/><path d="M191,39.7l-.1-.1c0,0-.1-.1-.2-.1l-.1-.1c-.1,0-.1-.1-.2-.1h.3c.1,0,.1-.1.2-.1s.1-.1.2-.1c.2-.1.3-.2.4-.2.2-.1.3-.3.5-.7s.4-.8.5-1.2.3-.8.4-1l.1-.6c0-.2,0-.3.1-.5.1-.4.2-.7.3-1s.3-.7.5-1l.1-.4c0-.3,0-.4.1-.5c0,0-.1,0-.1-.1h-.1c0,0-.1,0-.1-.1c0,0,0-.1.1-.1v-.1l.4-.7c.1-.3.3-.4.6-.5.1-.3.3-.6.6-1.1s.4-.8.4-1c0-.3-.1-.5-.1-.7-.1-.2-.2-.4-.2-.7c0-.1,0-.1,0-.2s0-.1.1-.2c0-.1.1-.1.1-.2s0-.2.1-.2c0-.1.1-.2.1-.5.1-.3.1-.6.2-.9s.1-.5.1-.6c.1-.7.3-1.2.5-1.5l-.1-.1c.2-.2.3-.4.5-.7.1-.3.2-.5.2-.8c0-.1,0-.2-.1-.3s-.1-.1-.1-.2c0-.2.1-.3.2-.4s.2-.2.3-.2v-.1c-.2-.1-.3-.1-.4-.2s-.2-.1-.3-.1v-.2v0c0,.1,0,.1-.1.1c0,0,0,0,0,.1l-.1-.1c-.1,0-.1,0-.2-.1-.1,0-.1,0-.2-.1-.1,0-.1,0-.2,0s-.1,0-.2-.1c-.1,0-.2-.1-.2-.2s.1-.1.2-.2.3-.1.3-.1c.5.1,1.1.2,1.8.4s1.3.3,2,.6c.6.2,1,.5,1.2.8.1.1.1.2.1.3s0,.2,0,.3c0,.3-.1.6-.2,1l-.4,1c-.1.1-.1.3-.1.4s-.1.3-.3.6c-.2.2-.4.4-.6.5l.1.1c0,.1,0,.1.1.1s.2.1.1.1c.1.1.1.2.1.3s0,.2-.1.3-.1.2-.3.2l-.1.1c-.1.1-.1.2-.1.3v.1h.1c0,.3-.1.5-.3.6-.1.3-.2.6-.3.9-.2.4-.4.7-.5,1v.1c0,.1,0,.1-.1.1l-.1.1c0,.1-.1.2-.2.3c0,.1-.1.1-.1.2-.1.1-.1.1-.1.2-.1.1-.1.2-.2.3s-.1.2,0,.4h-.1v.1c0,.1,0,.1-.1.1-.1.1-.2.3-.3.4s-.3.2-.5.3l-1.5,3.7c0,.1-.1.2-.3.3l.3.3h-.4l.2.2h-.2l-.1.1h-.1c0,0-.1.1-.2.1v.3l.1.1-.2.3-.1.1h-.1l-.2.1c-.1.1-.1.1-.1.2c0,.2,0,.3.1.3.1-.1.3-.4.7-.7.3-.4.6-.7.9-1.2.3-.4.6-.8.8-1.2s.3-.6.3-.7c.2,0,.3-.2.4-.5.1-.1.2-.2.2-.3s.1-.1.2-.2c.6-.5,1.2-1.1,1.7-1.7s1-1.3,1.5-1.9s1-1.3,1.5-1.9s1.2-1.3,1.9-1.9c.5-.4,1.2-.9,1.9-1.5s1.4-1.1,2.1-1.5s1.3-.6,1.9-.6c.4,0,.6.2.6.6c0,.2,0,.3-.1.6c0,.2-.1.4-.1.6-.2.5-.4,1.1-.7,1.7s-.5,1.1-.8,1.7c-.2.5-.4.9-.5,1.3-.2.5-.4,1-.6,1.4-.1.1-.1.2-.2.2l-.1.1c0,0,0,.1,0,.2s0,.2-.1.3l.3-.1c-.2.5-.4,1-.6,1.4-.1.4-.2.9-.2,1.4c0,.1,0,.2-.1.2v.1c-.2,0-.3,0-.3-.1-.1,0-.1,0-.2.1c0,0-.1.1-.1.2l-.1.1c0,.1,0,.1-.1.1l.3-.1c0,.3-.1.5-.1.8c0,.1-.1.2-.1.3s0,.2,0,.3c0,.4.1.8.3,1.1s.6.4,1,.4c.1,0,.2,0,.2-.1h.1c.1-.1.3-.1.5-.3.2-.1.5-.2.7-.4.3-.2.5-.3.7-.5s.4-.5.6-.9c-.1.6-.2.9-.3,1.1s-.3.4-.8.8-1,.7-1.7,1.2c-.7.4-1.3.6-1.9.6-.5,0-1-.2-1.4-.5s-.7-.7-.9-1.1l-.2-.2c-.1-.1-.2-.3-.2-.4s0-.1.1-.1v-.1l.3-.1.1-.1c0-.1-.1-.1-.1-.2s0-.1,0-.2v-.3c0-.6.1-1.3.2-1.9s.3-1.3.4-1.9h.1c.1-.5.2-1,.4-1.3l.1-.1h-.2l.1-.2-.1-.4c.1-.1.2-.4.4-.9s.3-.9.5-1.4c.2-.4.3-.7.3-.8-.1,0-.2.1-.3.1-.9.6-1.6,1.4-2.3,2.3-.3.5-.7.9-1,1.3s-.7.8-1,1.2c-.7.8-1.5,1.6-2.3,2.4-.4.4-.8.8-1.2,1.2s-.7.8-1.1,1.3l-1.4,1.9c-.5.6-1,1.2-1.5,1.8-.4.4-.8.6-1.2.6-.2,0-.4,0-.6,0s-.4.1-.7.1l.2-.2v0Zm6-9.2c.1-.2.2-.2.3-.2l-.1-.2c0,.1-.1.1-.1.2-.1.1-.1.1-.1.2v0v0Z"/><path d="M225,47.8c-1.7,0-3-.5-3.9-1.6s-1.3-2.4-1.3-3.9c0-.7.1-1.5.2-2.2.2-.7.4-1.4.6-2.1h-.1l-.7,2.1h-.1c-.1,0-.1,0-.1-.1v-.1c0-.4.2-1.1.5-1.9s.8-1.6,1.3-2.5s1-1.7,1.5-2.5.9-1.3,1.2-1.7l.1.2c.3-.4.8-.9,1.4-1.6s1.2-1.3,1.8-2s1-1.3,1.2-1.7c.6-1.1,1-1.6,1.3-1.7s.4.2.3.8-.6,1.5-1.4,2.5c-.7.9-1.5,2-2.3,3.2s-1.6,2.5-2.3,3.8-1.3,2.6-1.8,4c-.5,1.3-.8,2.6-.9,3.7v.4c0,1.5.5,2.5,1.4,3.1s2.1.8,3.4.8s2.6-.4,4-1.1c1.3-.7,2.7-1.7,4-2.8s2.7-2.4,4-3.9c1.3-1.4,2.5-2.9,3.7-4.4.6-.8,1.3-1.7,1.9-2.7.7-1,1.4-1.9,2-2.8s1.2-1.7,1.6-2.2v-.1c0,0-.1,0-.1-.1v-.1c0-.2.2-.6.5-1.2s.8-1.4,1.2-2.2c.5-.8.9-1.5,1.3-2.1s.6-.9.6-1c.7-.9,1.4-1.9,2.1-2.9s1.3-2,1.8-3c.3-.5.5-1,.7-1.5s.5-1,.7-1.5.4-1.1.6-1.6.4-1,.6-1.5c.2-.3.4-.9.6-1.6.1-.3.3-.7.4-1s.3-.7.4-1c-.3,0-.6-.1-1-.1-.3,0-.7,0-1,0s-.6,0-1,0c-.3,0-.6-.1-.9-.2-.2-.1-.3-.1-.4-.2l-.1-.1c-.1-.1-.1-.1-.2-.2-.3-.2-.4-.2-.3-.1s.1.2.2.4c0,.2-.1.2-.3.2L254,4c-.2-.1-.5-.1-.9-.1s-.7,0-.9.1c.1.1.1.1,0,.2s-.1.1-.2.1c-.2-.1-.4-.2-.7-.3s-.6-.1-.7-.1c.1.1.1.1.1.2s-.1.1-.3,0l-1.1-.3-.1-.2c0,0-.1-.1-.3-.1s-.2.1-.2.2c0,0,0,.1.1.1s.1.1.2.1c.1.1.1.2.1.3.1.1.1.1-.1.1-.2-.1-.5-.2-.9-.3s-.6,0-.7.2c-.8,0-1.9.1-3.1.5s-2.4.8-3.6,1.4c-1.2.5-2.2,1-2.9,1.5l.1.1-.7.5v-.2l-1.5,1.3-.5.5h.1l.5-.5-.1.1c-.3.3-.5.6-.9,1-.3.4-.6.8-.7,1.2-.1.5-.1,1.1,0,1.6.1.6.1,1,.1,1.2l-.1.1h-.1c-.3-.1-.5-.3-.7-.6-.1-.3-.3-.6-.4-.9-.2-.6-.4-1-.5-1.4-.1-.3-.1-.7,0-1s.2-.8.4-1.4c.1,0,.3-.1.4-.3c0-.1.1-.1.1-.2v-.1l-.3.2.4-.5c.1-.1.1-.1.2-.2s.1-.2.2-.2h.1c.1.1.2,0,.4-.3.1-.1.2-.2.2-.3l.1-.1-.1.1c-.2-.1-.3-.1-.3-.1l1.2-1.1h.1c.6-.4,1.2-.8,1.8-.9s1.1-.3,1.6-.6c.5-.2.9-.6,1.3-1.2.2-.1.3-.3.3-.4s.1-.1.3-.1.3-.1.5-.1c.2-.1.3-.1.5-.2s.3-.1.5-.2.3-.1.5-.1c.1,0,.1,0-.1.1s-.3.2-.3.3c1.3-.5,2.7-.8,4.1-1.1c1.4-.2,2.8-.4,4.3-.4.1,0,.3,0,.7,0s.8,0,1.1.1c.4,0,.6.1.6.1.5.1,1,.2,1.4.3.5.1.7.1.7,0c.6.3,1.2.4,1.8.3.5-.1,1.1,0,1.7.3l.2-.1c0,0,.2,0,.4.1c0,0,.1.1.2.1l.4.1c.1-.2.2-.3.3-.4.3-.3.7-.5,1.4-.5.6,0,1.2.2,1.7.6.5.3.8.8.8,1.3l-.2.3.9.4c.5.2.8.4,1.2.8.3.4.4.9.1,1.6c0,.1-.1.2-.2.5s-.3.4-.3.4c-.1-.1-.2-.3-.3-.8-.1-.4-.2-.7-.3-.7h-.1l-.1.1-.3-.1c-.2-.1-.4-.1-.6-.2s-.5-.1-.7-.2c-.2.5-.4.8-.5,1c0,.3,0,.7,0,1.4s-.1,1.3-.1,2c-.1.7-.1,1.4-.2,1.9-.1.6-.2,1-.4,1.2l.3,1.1h-.4l-.5.4c-.3.2-.5.4-.5.5s.1.2.2.2c.1.1.3.1.3.1s-.1.1-.1.2s0,.2-.1.3c0,.2-.1.4-.2.4l-.3-.2c.1.2.1.3.1.5v.5c0,.2,0,.4-.1.6s-.1.4-.2.6l.1.4-.6,1l.5,1.1c-.5.5-.7,1.1-.7,1.8c0,.2,0,.3,0,.5s0,.3.1.5c0,.2.1.3.1.5v.5c0,1.1-.4,2-1.1,2.7v-.1l-.1.1c0,.1.2.2.5.4s.5.4.6.4c-.1.3-.2.6-.2.9s-.1.6-.1,1c0,2,.1,3.4.4,4.2s.7,1.3,1.1,1.4.9-.1,1.4-.5c.4-.3.8-.7,1.2-1.4.5-.6.9-1.2,1.2-1.9s.5-1,.4-1.3l.3.1c0-.4.2-.8.5-1.3.4-.5.6-.9.9-1.1v-.1c.1-.1.1-.2.2-.4c0-.1.1-.2.1-.2l.1-.1c0,0,0-.1.1-.1l.1-.1.1-.2c0,0,.1,0,.1.1.1-.1.1-.1.2-.2s.1-.2.1-.3c.1-.2.1-.3.2-.5v-.1l.1-.1c0-.1.1-.2.1-.3s.1-.3.2-.4c.2-.3.3-.5.4-.6.2-.3.4-.6.6-.8.2-.3.4-.5.4-.8.3-.3.5-.6.7-1.1s.4-.8.7-.9c.1-.1.1-.2.2-.3s.2-.2.2-.3c.1-.1.1-.2.2-.3s.2-.2.2-.3v-.1c0-.1.1-.1.1-.2s.1-.1.1-.2l.2-.3h.1l.2-.3.1-.3-.1-.1h.1c.1-.3.3-.6.6-.9.1-.1.2-.3.3-.4s.2-.3.3-.4l.1-.1v.1c.1-.2.3-.4.4-.6s.3-.3.4-.5l-.1-.1c0-.2.1-.5.4-.9s.5-.7.6-.8c0-.1.2-.3.5-.8s.6-.9.9-1.4c.3-.4.5-.7.6-.7s.2.1.2.1s0,.1-.1.1c-.3,1-.7,1.9-1.3,3-.6,1-1.2,1.9-1.8,2.7v.2l-.1.1v-.1l-.4.5v.1c-.1.2-.2.3-.3.4l-.3.4h.1l.1.1c-.1.1-.2.3-.3.4s-.2.3-.2.4l-.5.8-.1-.1-.3.1v.2l-.1.1.1.2.1-.1.2.1c0,.2-.1.3-.2.4l-.1-.1.1.2c-.2.4-.4.8-.7,1.1s-.6.7-.9,1l.1.4-.1.1-.4.1v.1l.1.1-.3.2v-.1c-.1.1-.1.2-.1.3l-.1.3c-.1.1-.2.2-.3.3s-.3.3-.4.3l-.1.3-.5,1.4c-.5.5-.9,1-1.2,1.4s-.5.9-.8,1.7l-.1.1h-.1c-.1,0-.1,0-.2,0s-.2,0-.3-.1l-.1.1c.2.1.3.2.3.3l-.1.1c-.4.2-.6.5-.6.9c0,.1,0,.1,0,.2s0,.2.1.3l-.8.1-.8,2.1h-.1l-.1.1c-.1,0-.1.1-.2.1s-.1.1-.2.1-.1.1-.2.1c-.1.1-.1.1-.2.1-.3.2-.6.5-.8.9s-.4.8-.7,1.2-.8.6-1.6.6c-1,0-1.8-.3-2.5-1s-1.2-1.4-1.6-2.4-.6-1.9-.6-2.8c0-.4,0-.7.1-1c0-.3.1-.7.1-1c.1-.3.1-.6.1-1c0-.3.1-.7.1-1v-1.2c.2-.2.2-.3.2-.4l-.1-.3c0-.1-.1-.1-.1-.2s0-.1,0-.2c.2,0,.3-.1.4-.2c0-.1.1-.1.1-.2s.1-.1.1-.1v-.1c0-.2,0-.3-.1-.3-.1-.1-.1-.1-.1-.2.1-.1.1-.1.2-.1c0,0,.1.1.2.1l.2-.1c-.1-.2-.1-.3-.2-.4s-.1-.3-.1-.6.1-.6.1-.9c.1-.3.2-.6.3-.8l-.3-1c.1-.1.2-.4.3-.9s.1-1.1.2-1.7.1-1.2.1-1.7s0-.9,0-1.1v-.5c-.8,1.4-1.7,2.8-2.5,4.2-.9,1.4-1.7,2.7-2.7,4.1-.1.2-.3.4-.6.7s-.5.7-.7,1-.3.5-.3.7.1.2.2.2v.1c-.1.2-.3.5-.6.7-.1.1-.2.3-.3.4s-.2.3-.3.4c-.3.3-.6.8-1.1,1.4-.4.6-.8,1.2-1.2,1.9-.4.6-.7,1.1-1,1.5l-.8,1c-.1.2-.3.3-.4.5s-.2.4-.4.6c-.1.2-.3.5-.5.8s-.5.6-.8,1c-.6.8-1.3,1.6-2.2,2.5s-1.8,1.8-2.7,2.8c-.5.4-1,.9-1.5,1.3s-.9.8-1.4,1.2c-.9.8-1.7,1.4-2.5,1.9s-1.3.8-1.8.8c-.2.2-.4.3-.6.4s-.5.2-.7.3c-1,.5-2,.9-2.9,1.1-.1.2-1.1.3-2.3.3v0Zm7.7-38.7l.1-.2h.1c0,0,0,.1-.1.1c0,0,0,.1-.1.1Zm47.8,29.7c-.6,0-1.2-.2-1.6-.5s-.9-.7-1.3-1.1c0-.1-.1-.2-.1-.4-.1-.2-.2-.3-.2-.4-.4-.5-.6-1-.7-1.3s-.2-.7-.3-1.1-.2-.9-.3-1.5c-.1-.1-.1-.2,0-.4c0-.1,0-.2.1-.1c0-.6,0-1.2-.1-1.8-.1-.5-.1-1.1-.2-1.8c0-.1-.1-.2-.1-.3s0-.2-.1-.3c0-.1-.1-.3-.1-.6c0-.1,0-.3.1-.5s.1-.3.2-.4l-.1-.1-.1-.1c.1-.1.1-.2.1-.3s.1-.2.2-.2l-.1-.2.1-.1c0-.2,0-.4,0-.6s0-.4.1-.6c0-.2.1-.3.1-.5s0-.4,0-.5s0-.2,0-.3s0-.3-.1-.4h.1l.1.1.2-.1-.1-.7.1-.1.1.1h.1l-.3-.6.6-.2c0-.2-.1-.3-.3-.3l.1-.1l1.3-5.1-.1-.1-.4.1c0-.1.1-.3.2-.7s.3-.8.5-1.3.3-.9.5-1.3.3-.6.3-.6c0-.5.1-1.1.4-1.7s.5-1.2.7-1.7l.1-.1-.2-.3.5-.6v-.1l-.7.2-.1-.1.1-.1.9-1.8c.2-.4.3-.8.3-1.2s0-.7.1-1s.3-.5.8-.7l.1-.1h.1v.1c.1,0,.3-.1.7-.1s.9.1,1.7.1c.7.1,1.4.3,2,.5s.9.6.9,1-.2.9-.5,1.4c-.3.6-.7,1.1-1.1,1.8-.4.6-.9,1.2-1.3,1.8s-.7,1.1-.8,1.5l-.4,1.1-.1.1.1-.3-.2.1-.3.5.1.1.1-.1.1.1c-.1.1-.3.3-.6.7-.2.3-.4.5-.4.7l.1.1-.1-.1.2-.2c0,.4,0,.8-.1,1.2s-.2.8-.4,1.1l-.5-.1c0,.3-.1.5-.2.5v-.1l-.1-.1.1-.1.4-1.1.1-.1-.4-.4c.1-.2.2-.3.2-.5h-.2c0,.2-.1.4-.2.6s-.2.4-.2.6c-.1.2-.1.4-.2.6s-.1.4-.1.6s0,.4.1.4l-.3-.1v.1l.2.2c-.1,0-.2.1-.3.1-.1.1-.2.1-.2.2l.2.1v-.1h.1c0,0-.1.1-.1.2c0,.2,0,.4.1.6c0,.1.1.2.1.3s0,.2,0,.3c0,.3-.1.5-.4.5c0,.2.1.3.2.5l-.1,1.2.1.1h-.3l.1.3c-.2.4-.4.9-.7,1.4s-.6,1-.9,1.4c-.3.5-.4.9-.4,1.3c0,1.2.1,2.3.1,3.5c0,.6.1,1.1.1,1.7s0,1.1,0,1.7c0,.4.1.9.2,1.3.1.2.1.4.2.7s.1.4.1.7c0,.1.1.2.1.4v.7c0,.1,0,.2.1.4.1.5.4.9,1,1.2s1.1.5,1.5.5c.5,0,1-.2,1.4-.5.4-.4.8-.7,1.1-1.1.1-.1.2-.2.3-.1.1,0,0,.1,0,.3-.3.7-.9,1.4-1.7,1.9-.6.4-1.4.7-2,.7v0Z"/><path d="M284.7,55.1c-.2,0-.5-.1-.7-.4s-.4-.6-.6-.8c-.2-.3-.3-.7-.3-1c1.8-2.7,3.8-5.2,6-7.6s4.5-4.7,6.9-6.8c.8-1.7,1.7-3.4,2.5-5l2.5-5-1.2,1.3c-.4.5-.8.9-1.2,1.3-.3.3-.6.5-.9.8l-.8.9c-.1.1-.2.3-.3.4-.1.2-.2.3-.3.5s-.3.3-.5.5c-.1.1-.3.2-.4.3s-.3.2-.4.3-.3.2-.4.3-.3.2-.4.3-.3.2-.4.3-.2.1-.3.2-.3.2-.4.4c-.1.1-.3.2-.5.4-.3.3-.7.5-1.1.5-.6,0-1-.3-1.3-.9s-.4-1.2-.4-1.7c0-.7.1-1.5.4-2.2.1-.4.3-.7.4-1.1s.3-.7.4-1.1l2-5.4c.2-.3.3-.7.5-1.1s.4-.8.6-1.2c.4-.7.6-1.5.6-2.3c0-.1,0-.2.1-.2c0,0,0-.1-.1-.1-.2.2-.3.3-.6.5-.2.1-.4.3-.7.4-.4.2-.8.5-1.2,1-.8,1-1.6,2-2.3,3.1s-1.3,2.2-2,3.2c-.1.1-.2.3-.3.4-.1.2-.3.2-.5.2s-.3-.1-.3-.3c0-.4.2-.8.6-1.4s.6-1.1.8-1.5c.2-.3.3-.6.5-.8.1-.1.2-.2.3-.3s.2-.2.2-.4c.3-.7.8-1.4,1.4-2.3.6-.8,1.4-1.6,2.2-2.2s1.6-.9,2.3-.9s1.3.3,1.6.8c.4.5.5,1.1.5,1.7s-.1,1.3-.2,1.9c-.2.7-.3,1.3-.5,1.8.1.1.1.2.1.4c0,.3-.1.6-.3.9s-.4.5-.4.8c-.1.7-.3,1.2-.5,1.5s-.5.8-.8,1.3c.1.2,0,.5-.3,1.1-.3.5-.4.9-.5,1.1s-.2.4-.2.6-.1.4-.2.6v.2c0,.1-.1.1-.1.2.1-.1.2-.1.3-.2s.1-.1.2-.1c.1-.1.2-.2.3-.2.1-.1.2-.1.4-.2l.1-.1c0,0,.1,0,.1-.1c0-.3.2-.5.5-.5.1,0,.1-.1.2-.1.1-.1.1-.1.2-.1.1-.1.2-.2.3-.2.1-.3.3-.5.5-.7.1-.1.2-.1.3-.2s.2-.1.4-.2l1.6-1.6c.1-.2.2-.3.3-.5.1-.1.1-.3.2-.4.1-.2.3-.4.8-.6l.2-.3v-.3c0-.2,0-.3.1-.4s.1-.2.3-.3.3-.3.4-.5c.1-.3.1-.5.2-.6l.9-1.2c.1-.2.1-.3.1-.3l.3-.3v-.1c0-.1,0-.1-.1-.1-.1-.1-.1-.1-.1-.2s.1-.1.1-.1l.2-.1c.4,0,.8.1,1.2.2.5.1.7.4.7.9c0,.1,0,.2,0,.3s0,.3-.1.4c0,1.1-.3,2.1-.7,3.2-.2.5-.4,1-.6,1.5s-.4,1-.6,1.6l-.5,1.4c-.2.5-.3,1-.5,1.5.7-.6,1.4-1.1,2.2-1.6s1.6-.9,2.4-1.3c.3-.2.5-.3.8-.3.1,0,.2.1.2.2s-.1.2-.4.4l-.5.4c-.7.4-1.4.9-2.1,1.3-.7.5-1.3,1-1.9,1.5-.5.3-.9.7-1.3,1.1-.2.2-.3.4-.4.6-.1.3-.3.5-.4.8-.1.1-.1.2-.2.3s-.1.2-.1.3c0,.2-.1.5-.3.7-.1.2-.3.4-.4.6s-.2.4-.3.6-.2.4-.3.6-.2.4-.3.6c-.1.1-.1.2-.2.3s-.2.3-.3.5-.2.3-.3.5c-.1.1-.1.2-.2.3-.2.4-.4.7-.6.9-.2.3-.4.4-.5.4h-.1c0-.1,0-.2.1-.3c0-.1.1-.1.1-.2s.1-.1.1-.2c.3-.4.6-.9.9-1.5s.6-1,.6-1.3c0-.1,0-.1-.1-.1l-.4.6c-.3.2-.4.4-.5.6l-.4.7-1.7,2.7.1.1c0,.1,0,.2-.1.2s-.1.1-.1.1s0,.1-.1.1l-.1.1c-.1.1-.2.3-.2.5v.1l.1.1c0,.1-.1.2-.2.2l-.3.1-.1.1c-.1.2-.2.4-.3.5-.1.2-.2.4-.4.7s-.4.4-.6.4c-.3.4-.6.8-.9,1.2s-.5.9-.7,1.4c0,0,0,.1.1.1v.1c0,.1-.1.2-.2.2h-.1l-.1-.1-.1-.1c0,0-.1,0-.1-.1-.1.4-.2.6-.5.7-.1.2-.2.3-.4.4-.1,0-.3.1-.5.3h-.1c-.1.1-.2.3-.3.4-.2.1-.3.2-.4.2l-.1.1h-.1l-.1.1c-.1.2-.3.3-.5.4s-.4.2-.6.3c-.1.2-.3.4-.6.6-.3.3-.5.4-.7.4h-.2c0,.7-.3.8-.5.8v0Zm.5-2.2c.2-.1.4-.1.6-.2s.4-.2.5-.3c.3-.3.7-.7,1.3-1.3s1.2-1.3,1.8-2.1s1.2-1.5,1.7-2.1.9-1.3,1.5-2c.5-.7,1-1.4,1.4-2.1s.7-1.2.7-1.5c-.5.5-.9.9-1.4,1.4s-.9.9-1.4,1.4c-1,1-2,2-2.9,3-.5.6-1.1,1.3-1.5,2-.5.7-.9,1.3-1.4,2-.2.3-.4.6-.6.8-.1.3-.3.6-.3,1c0-.1,0-.1,0,0v0Z"/><path d="M325.5,41.6c-.1,0-.2-.1-.2-.2c0-.2-.1-.2-.2-.2-.2,0-.4.1-.6.2s-.5.1-.7.1c-.1,0-.3-.1-.5-.2s-.3-.3-.3-.4l.1-.1.1-.1c0,0,0-.1-.1-.1s-.1,0-.1.1h-.1l-1,.1h-.5c-.2,0-.3,0-.5.1l-.1-.1c.1,0,.1,0,.1-.1v-.1c.1,0,.2-.1.3-.1s.2-.1.2-.2l-.1-.1h-1.4c-.1-.1-.3-.3-.5-.4-.3-.2-.4-.3-.4-.5c0,0,0-.1.1-.1c0,0,.1-.1.1-.2-.6-.4-1.1-1-1.4-1.7s-.5-1.5-.6-2.4-.1-1.6-.1-2.4v-.3c0-.1.1-.2.1-.2l.1.1.1-.1h.1c-.1-.2-.1-.3-.1-.4v-.4c0-.5.1-1.1.2-1.8c0-.1,0-.1,0-.2s0-.2.1-.3c0-.1,0-.1.1-.1v.1l.8-2.5c.1-.1.2-.2.3-.3l.3-.3c.1-.1.2-.2.3-.3s.2-.2.3-.4c0-.1.2-.4.4-.8s.5-.9.7-1.5c.3-.5.6-1,.8-1.4.3-.4.5-.6.7-.7c0-.1.1-.2.1-.4.1-.1.1-.2.2-.4s.1-.2.2-.4.1-.2.1-.4c.2-.2.3-.4.5-.6s.4-.3.6-.5c.1,0,.2-.2.4-.4l.1-.1h.1l.1-.1.2-.1-.2-.1c.8-1.3,1.8-2.6,3.2-3.8s2.9-2.3,4.5-3.3c1.4-.9,2.9-1.8,4.4-2.6.1-.2.1-.3.1-.3c0-.1.1-.1.2-.1.2-.1.3-.1.5-.2s.3-.2.5-.2l1-.4c1.1-.5,2-.9,2.8-1.3s1.6-.7,2.4-1s1.7-.5,2.8-.7c.3,0,.5-.1.8-.1s.6,0,.8,0c.5,0,1.1-.1,1.6-.1.4.1.8.3,1.2.7s.7.8,1,1.2.4.9.4,1.2c0,.7-.3,1.2-.8,1.5-.2.1-.4.2-.7.3l-.7.3c-.3.1-.5.2-.7.3s-.5.2-.7.4c-.3.1-.5.2-.8.3s-.5.2-.8.3c-.6.2-1.4.6-2.3,1-1,.4-2,.9-3.1,1.5s-2.2,1.2-3.2,1.8c-1.1.6-2.1,1.3-3,2.1-.9.7-1.7,1.4-2.3,2.1-.7.7-1.1,1.4-1.2,2.1-.1.1-.2.1-.3.1-.2,0-.3-.1-.3-.4c0-.1.1-.2.1-.2.5-1.5,1.3-2.9,2.6-4.1c1.2-1.2,2.6-2.2,4.2-3.1s3.1-1.6,4.5-2.3c1.1-.5,2.2-1,3.4-1.5c1.1-.5,2.2-1,3.4-1.5l.3-.2c.1-.1.2-.1.2-.2h.1l.1-.1-.1-.1c-.1,0-.1,0-.2-.1-.1,0-.2-.1-.1-.2-.3.1-.6.2-1.1.3s-.8.2-1.1.2c-.2,0-.2-.1-.2-.1h-.1c-.2,0-.6.1-1.3.3-.6.2-1.3.4-2.1.7s-1.5.6-2.3.9-1.4.6-1.9.8-.9.4-1,.4c-.6.3-1.2.7-1.7,1.2-.3.2-.6.4-.9.6s-.6.4-.9.6c.1,0,.2,0,.3.1.1,0,.2.1.1.2-.2,0-.5.1-1,.3s-.9.4-1.3.6-.7.4-.7.6l.1-.1c0,0,.1,0,.1-.1c0,0,.1-.1.2-.1c0,0,.1,0,.1.1l-.1.3c-.6.2-1.3.6-2,1.2s-1.6,1.4-2.5,2.3-1.7,1.8-2.5,2.8-1.5,1.9-2.1,2.7-1.1,1.5-1.5,2.1c-.8,1.3-1.5,2.7-2.1,4.3s-.9,3.2-.9,4.7c0,3.3,1.7,4.9,5,4.9h1c.1,0,.2,0,.3-.1v-.1c.2-.2.4-.3.7-.3c0,0,.1,0,.1.1h.1c.1-.2.2-.2.3-.2l.4-.1.7.2v-.1c.2-.2.4-.3.8-.5s.7-.3.8-.3h.1c0,0,.1,0,.1-.1l.2-.1c.3-.2.5-.4.7-.6l.6-.6.4-.2-.1.4.3-.1v-.1c0-.1.1-.2.1-.2l.1-.1.2-.1c.2-.1.5-.4,1.1-.9s1.2-1,1.9-1.5s1.3-1.1,1.9-1.5s1-.7,1.2-.7l-.1-.1c.4-.4.9-.8,1.6-1.3s1.3-1.1,1.9-1.6.9-.9,1-1.3h.3c0,.3-.1.3-.2.3l-.8,1.6-.5.4c-.1.1-.2.1-.3.2s-.2.1-.2.2c-.8.9-1.8,1.9-2.9,2.9s-2.3,2.1-3.4,3.1c-1.2,1-2.3,1.8-3.4,2.3-.2.1-.4.2-.7.3s-.5.3-.5.4l.3-.1-1.9,1.1.1-.1c-.1,0-.3.1-.7.3-.4.1-.8.3-1.3.5s-.9.4-1.3.5c-.5.6-.7.7-.7.7v0Zm-3,20.4c-.9,0-1.6-.2-2.1-.6s-.8-1.1-.8-2c0-.6.1-1.1.2-1.5l.4-1.5.2-.1.4-1.1.4-1.1c.2-.4.4-.7.7-1.1s.5-.7.7-1.1c.6-1.1,1.1-2,1.5-2.7s.8-1.3,1.3-1.9s1.3-1.3,2.3-2.1c0-.2.1-.3.3-.4.1,0,.1-.1.1-.1l.1-.1-.1-.1c0-.1.1-.1.2-.1s.2-.1.2-.1v-.1l2.5-2.3c0,0,0-.1.1-.3s.1-.3.1-.3h.1c0,.4-.1.7-.2,1h.1c0,0,.1-.1.1-.2.1-.1.1-.2.1-.2v-.2c.5-.4,1-1,1.4-1.5l.1.2.5-.6v-.1c.1,0,.3-.1.7-.4s.8-.6,1.3-.9.9-.7,1.3-1s.6-.5.6-.6l.1-.1l3.9-1.8.5.1c.1-.3.3-.5.5-.7c0,0,0-.1.1-.1h.1v0c.3-.3.8-.5,1.2-.6l.1-.1c.1-.1.1-.1.1-.1c0-.1,0-.2-.1-.2s-.1-.1-.1-.2c0-.2.1-.4.2-.6s.2-.4.2-.6v-.1h-.1c0,0,0,.1-.1.1c0,0-.1,0-.1-.1c0-.3.1-.6.3-.9.1-.2.2-.5.3-.8l.1-1c0-.2.1-.3.1-.5c0-.1,0-.3,0-.4s0-.2,0-.3s0-.3-.1-.4l-.1.1v-.1c0-.3,0-.5,0-.8s0-.6.1-.9c0-.3.1-.6.1-.9s0-.6.1-.8c.3-.3.7-.5,1.2-.5s.9.2,1.3.5.8.7,1,1.1l-.1.1.1.3c.1.1.1.2,0,.3c0,.1.1.3.1.7c0,.5-.1,1-.1,1.5-.2.5-.3,1.1-.3,1.5s-.1.7-.3,1c-.1.1-.2.3-.3.5s-.1.3-.1.5v.4c0,.2,0,.3-.1.4s-.1.1-.2.1-.2.1-.2.2s0,.2.1.2c0,.1.1.1.1.2s0,.1-.1.2c0,.1-.1.1-.1.2h.6c.9,0,1.8.1,2.5.4.8.2,1.1.9,1.1,1.9c0,.2-.1.4-.2.5s-.2.2-.2.4c-.1.1-.1.1-.1.2s-.1.1-.2.1-.1,0-.1-.1c0,0,0-.1-.1-.1c0-.2.1-.4.2-.6s.1-.4.1-.6c0-.3-.2-.5-.5-.7s-.7-.3-1.1-.4-.7-.1-1-.1-.5,0-.7,0-.4.1-.7.1c.1.1.1.2.1.3l-.1.6c-.1.3-.2.5-.2.5-.5,1.3-1.1,2.6-1.9,4s-1.5,2.7-2.3,4.1c-.5.7-1,1.6-1.6,2.5s-1.2,1.9-1.8,2.8-1.1,1.7-1.6,2.4c-.2.4-.5.7-.7,1.1-.3.4-.5.8-.8,1.1-.3.4-.5.7-.8,1.1s-.5.7-.7,1.1c-.5.8-1,1.4-1.4,1.8-.5.4-1,.8-1.5,1.1-.5.4-1.2.9-1.9,1.5-.4,0-.9.2-1.4.4s-1.1.2-1.5.2c-.1.1-.3.2-.6.3s-.6.3-.9.4-.5.2-.6.1c-.5.2-1,.2-1.6.2v0Zm.4-1.2c.2,0,.5,0,1-.1s.9-.1,1.4-.3c.5-.1.8-.2,1-.3s.5-.3.9-.7.9-.7,1.3-1.1c.5-.4.8-.7,1-.9s.5-.5.8-.9.6-.8.7-1c.5-.6,1.1-1.4,1.8-2.2.7-.9,1.4-1.7,2-2.6.7-.9,1.2-1.8,1.7-2.6s.8-1.6.8-2.2l.8-.8h.1c.3-.4.5-.9.7-1.3s.4-.9.7-1.3c.1-.3.3-.6.6-.9.1-.2.2-.3.3-.5.1-.1.2-.3.3-.5s.3-.5.5-1c.3-.4.5-.9.7-1.3s.3-.7.3-.9v-.1c.1-.3.2-.6.3-1c.1-.2.1-.3.2-.5s.1-.3.2-.5c-.7.3-1.4.6-2.1.9s-1.3.6-2,.9c-.1.1-.3.1-.4.2s-.2.1-.4.2c-.3.1-.5.3-.7.4-.3.2-.6.4-.9.7-.3.2-.6.5-.9.7s-.6.4-.9.7c-.3.2-.6.4-.9.7l-1,.7c0,0-.1.1-.2.2s-.2.1-.2.1l.1-.1-3.6,3.2h-.1c-1.1,1.1-2.1,2.3-3,3.6-.2.3-.4.6-.6,1-.2.3-.3.7-.5,1s-.3.6-.6,1c-.2.3-.4.7-.7,1-.2.3-.3.5-.5.8s-.4.5-.6.7c-.1.4-.3.9-.5,1.4-.2.6-.4,1.1-.6,1.7s-.3,1-.3,1.3c0,.6.1,1.2.4,1.6.4.7.9.9,1.6.9v0Z"/><path d="M362.3,40.3c-.3-.4-.7-.7-1-.9s-.6-.4-.9-.7c-.2-.3-.4-.6-.4-1.1h.1l-.1-.7-.1.1-.1.1c0-.1.1-.2.1-.4c0-.1.1-.2.1-.3c0-.2.1-.3.1-.5c0-.1,0-.3,0-.5c0-.4,0-.8.1-1.2s.1-.8.2-1.2.2-.8.3-1.2.2-.8.2-1.3h.1l.5-1.2-.1-.2c-.1.1-.1.2-.1.2c0,.1-.1.1-.1.2-.4.5-.8,1.1-1.3,1.9-.5.7-1,1.4-1.5,2s-1,1.1-1.4,1.3c-.3.2-.4.3-.5.4s-.2.3-.3.6c-.3.1-.6.3-.9.6-.3.4-.6.7-.9,1s-.6.5-1,.5l-.1.2c-.2.2-.5.3-.8.4s-.6.1-.9.2c-.7-.3-1.4-.6-2.1-1.1-.7-.4-1-1.1-1-1.9c0-.3.1-.6.1-.8h.1v-.2c-.1-.1-.1-.3-.1-.4c0-.2.1-.2.1-.2l.1.1c.1-.1.1-.3.1-.5s0-.4,0-.4l.1-.1c0-.2.1-.5.3-.7.2-.3.4-.5.7-.7.2-.2.3-.4.3-.5l.1-.1c0-.2,0-.3-.1-.4s-.1-.2-.1-.3v-.2h.2l.1-.2v-.1c-.1-.1-.1-.1-.1-.1v-.1c0-.1,0-.2.1-.2l.1-.1v-.1c0,0,0-.1.1-.1v-.1l.2-.2c.1-.1.2-.2.3-.2.3-.4.5-.7.6-1h.2l.1.1c0-.1-.1-.1-.1-.1v-.1c0-.3.2-.6.7-1.1.4-.5,1-1,1.6-1.6s1.2-1.1,1.8-1.6s1-.9,1.3-1.2v-.2h.1c.1-.1.3-.2.4-.3s.3-.3.5-.4c.3-.3.6-.5.8-.5l.1-.2.3-.1.1-.1.1-.1c.1,0,.1-.1.1-.1s.1,0,.1-.1l.1-.1.1-.1v-.1c0,0,0-.1.1-.1l.9-.3.1.1.7-.3.1-.1h.1l.6-.1.3-.2.1-.1v.1l.1-.1.1.1c.3-.1.6-.2.9-.2s.7.1,1.2.1c.5.1.9.2,1.3.5.4.2.7.5.7.8v.1l-1,.6c.1-.2.1-.3.1-.3v-.1c0-.1-.1-.1-.2-.1h-.3c-.7,0-1.3.2-1.9.6s-1.1.8-1.6,1.2c-.3.1-.6.3-.9.6s-.6.6-.9.7c-1.3,1-2.4,1.9-3.4,2.9-1,.9-2,2.1-2.9,3.4-.2.3-.4.6-.6,1-.3.4-.5.7-.7.8-.2.3-.3.6-.5.9s-.3.6-.4.9-.3.6-.4.9c-.2.3-.3.6-.5.8c0,.4-.1.8-.1,1.1-.1.2-.1.4-.1.5s-.1.2-.1.3s0,.2-.1.2l.2.4c.4-.2.9-.4,1.4-.6.5-.3.8-.5.8-.9l.3-.1h.1v-.1c.1-.1.1-.1.1-.1h.1l.1-.2v-.1l.2.2.6-.6c0-.2.1-.3.3-.3.5-.4,1-1,1.4-1.6.2-.3.5-.6.7-.9s.5-.6.7-.8h.1l.6-.8.3-.2.7-.9h.1c.1-.2.2-.4.3-.6l.1.1.4-.5-.1-.1c.2-.3.3-.5.5-.8s.4-.5.6-.7c.2-.3.4-.5.6-.8s.3-.5.5-.8c0-.2.1-.4.2-.6.2-.2.4-.3.6-.3l.3.1c.1-.2.2-.6.2-1.1.2,0,.3,0,.4-.1l.3-.1v.1l.4.1c.1-.1.2-.1.3-.1.3,0,.5.1.8.2s.5.3.7.5c0,.1,0,.1.1.1c0,0,0-.1.1-.1h.2c.4,0,.6.2.6.5v.1c-.2.2-.3.4-.5.7-.1.2-.3.4-.4.7-.3.4-.6.8-1.1,1.2v.1l-.8,1.1.1.2-1.6,2-.1.1c-.1.2-.1.4-.2.6s-.2.4-.3.6l-.4.1c.1.1.1.1.1.2s0,.2.1.2c-.3.5-.5,1-.7,1.4-.2.5-.2,1-.2,1.5-.1.1-.2.1-.2.3c0,.1,0,.2,0,.3c0,.2,0,.3,0,.5c0,.1,0,.3.1.5s.1.3.1.5.1.3.1.5l.5-.3h.1l.1-.1.1-.1c0-.1.1-.2.1-.3l.1.4.4-.2v.2h.1c.1,0,.2-.1.3-.3.1-.1.1-.1.2-.2s.2-.1.3-.1l.1-.1v-.1c0-.2.1-.3.3-.4.1,0,.2-.1.3-.1.1-.1.2-.1.2-.1h.1l1.3-1.2h.1c.1-.1.2-.2.4-.4s.4-.3.6-.4v-.3l.3-.1h.1l1.1-1.5c0,0,0,.1.1.1s.1,0,.1.1c0,0,.1-.1.2-.2s.1-.2.1-.3l.1-.1c.1-.1.1-.1.3-.1.1-.1.2-.1.2-.1.1,0,.1,0,.1-.1-.4.7-.7,1.3-.9,1.8-.3.5-.5,1.1-.8,1.6s-.5,1.1-.9,1.6c-.3.5-.7,1-1.2,1.5l-.2-.2.3-.4-.1-.3-.1.1v.2l-.3.3c0,.4-.2.7-.4.9h-.2l-.1-.1v.2l-.3.3-.1-.1-.6.8v-.1l-.1.1c-.1,0-.1.1-.2.1s-.1.1-.2.1c-.2.1-.3.2-.3.3l-1.4.3v0Zm4.8-3.8c0-.1,0-.2.1-.2l.1-.1-.2.1h.1l-.1.2v0v0v0Z"/><path d="M376.4,35.9c-.1,0-.2,0-.2-.1c0,0-.1.1-.3.1-.4,0-.8-.3-1.3-.9-.4-.6-.6-1.1-.6-1.5c0-.7.2-1.5.6-2.3l1.1-2.2c.2-.4.3-.6.3-.8l-.2-.4-.2-.2-.2-.2-.2-.2c-.2-.2-.4-.5-.6-.8s-.3-.6-.4-1c-.1.1-.2.3-.4.7s-.5.8-.7,1.2-.4.6-.5.6-.1,0-.1-.1l-.1-.1c-.1,0-.1.1-.2.4-.1.2-.3.5-.5.8-.2.4-.5.7-.7,1s-.4.5-.6.5c-.1,0-.2-.1-.2-.2s.1-.3.2-.6.3-.5.5-.8.3-.4.4-.5c.4-.5.7-1,1-1.4s.5-.8.7-1.3c.2-.4.4-.8.6-1.3.2-.4.5-.9.7-1.5.1-.4.2-.9.3-1.4.5-1.4,1.1-2.7,1.7-3.8.7-1.2,1.6-2.3,2.5-3.3.2-.2.5-.5.8-.8s.6-.7.9-.9c.3-.3.6-.4.8-.4s.4.1.7.2c.1.1.2.1.3.2s.2.1.3.2l1,.5c.4.2.5.5.5.9c0,.2,0,.3-.1.3-.1.3-.4.7-.9,1.1s-1.1.8-1.7,1.2-1.1.8-1.5,1.2c-.6.5-1.1,1.1-1.5,1.7s-.8,1.3-1.2,2.1c0,.1-.1.2-.1.3-.1.1-.1.2-.1.3c0,.2-.1.5-.2.8c0,.1-.1.1-.1.2s-.1.2-.1.3c0,.2,0,.3.1.3c0,.1.1.2.1.4s0,.3-.1.4c0,.1-.1.2-.1.4c0,.3.2.7.5,1c.4.3.7.6,1,1c.3.3.5.8.5,1.2s-.1.9-.4,1.4-.5,1.1-.9,1.6c-.3.5-.6,1-.8,1.5l-.2.6-.1.3c0,.1,0,.1.1.1l.1.1c.3,0,.7-.2,1.2-.6s1-.9,1.5-1.4.9-.8,1.1-1c.4-.4.7-.9,1.1-1.3s.6-.9.9-1.4c.1-.2.2-.3.3-.6.1-.2.3-.3.5-.3s.3.1.3.3-.2.6-.5,1.1c-.3.6-.7,1.1-1.1,1.7-.4.5-.7.9-.8,1.1l-.1.1v.1c-.1.2-.2.4-.4.4c0,0-.1.1-.1.2s-.1.2-.1.2c0,.1-.1.1-.1.2l-.2.1c0,.1-.1.2-.3.3l-.3.3c0,0-.1,0-.1.1s0,.1-.1.1c0,.2-.2.3-.4.3-.1.1-.2.3-.3.5s-.3.3-.4.3c-.2.2-.4.3-.6.3l-.1.1c0,0,0,.1-.1.1-.1.2-.2.2-.4.2-.2.4-.3.4-.4.4v0Z"/><path d="M393.1,40.3c-.3-.4-.7-.7-1-.9s-.6-.4-.9-.7-.4-.6-.4-1.1h.1l-.1-.7-.1.1-.1.1c0-.1.1-.2.1-.4c0-.1.1-.2.1-.3c0-.2.1-.3.1-.5c0-.1,0-.3,0-.5c0-.4,0-.8.1-1.2s.1-.8.2-1.2.2-.8.3-1.2.2-.8.2-1.3h.1l.5-1.2-.1-.2c-.1.1-.1.2-.1.2c0,.1-.1.1-.1.2-.4.5-.8,1.1-1.3,1.9-.5.7-1,1.4-1.5,2s-1,1.1-1.4,1.3c-.3.2-.4.3-.5.4s-.2.3-.3.6c-.3.1-.6.3-.9.6-.3.4-.6.7-.9,1s-.6.5-1,.5l-.2.4c-.2.2-.5.3-.8.4s-.6.1-.9.2c-.7-.3-1.4-.6-2.1-1.1s-1-1.1-1-1.9c0-.3.1-.6.1-.8h.1v-.2c-.1-.1-.1-.3-.1-.4c0-.2.1-.2.1-.2l.1.1c.1-.1.1-.3.1-.5s0-.4,0-.4l.1-.1c0-.2.1-.5.3-.7.2-.3.4-.5.7-.7s.3-.4.3-.5l.1-.1c0-.2,0-.3-.1-.4s-.1-.2-.1-.3v-.4h.2l.1-.2v-.1c-.1-.1-.1-.1-.1-.1v-.1c0-.1,0-.2.1-.2l.1-.1v-.1c0,0,0-.1.1-.1v-.1l.2-.2c.1-.1.2-.2.3-.2.3-.4.5-.7.6-1h.2l.1.1c0-.1-.1-.1-.1-.1v-.1c0-.3.2-.6.7-1.1.4-.5,1-1,1.6-1.6s1.2-1.1,1.8-1.6s1-.9,1.3-1.2v-.2h.1c.1-.1.3-.2.4-.3.2-.1.3-.3.5-.4.3-.3.6-.5.8-.5l.1-.2.3-.1.1-.1.1-.1c.1,0,.1-.1.1-.1s.1,0,.1-.1l.1-.1.1-.1v-.1c0,0,0-.1.1-.1l.9-.3.1.1.7-.3.1-.1h.1l.6-.1.3-.2.1-.1v.1l.1-.1.1.1c.3-.1.6-.2.9-.2s.7.1,1.2.1c.5.1.9.2,1.3.5.4.2.7.5.7.8v.1l-1,.6c.1-.2.1-.3.1-.3v-.1c0-.1-.1-.1-.2-.1h-.3c-.7,0-1.3.2-1.9.6s-1.1.8-1.6,1.2c-.3.1-.6.3-.9.6s-.6.6-.9.7c-1.3,1-2.4,1.9-3.4,2.9-1,.9-2,2.1-2.9,3.4-.2.3-.4.6-.6,1-.3.4-.5.7-.7.8-.2.3-.3.6-.5.9s-.3.6-.4.9-.3.6-.4.9c-.2.3-.3.6-.5.8c0,.4-.1.8-.1,1.1-.1.2-.1.4-.1.5s-.1.2-.1.3s0,.2-.1.2l.2.4c.4-.2.9-.4,1.4-.6.5-.3.8-.5.8-.9l.3-.1h.1v-.1c.1-.1.1-.1.1-.1h.1l.1-.2v-.1l.2.2.6-.6c0-.2.1-.3.3-.3.5-.4,1-1,1.4-1.6.2-.3.5-.6.7-.9s.5-.6.7-.8h.1l.6-.8-.1-.2.7-.9h.1c.1-.2.2-.4.3-.6l.1.1.4-.5-.1-.1c.2-.3.3-.5.5-.8s.4-.5.6-.7c.2-.3.4-.5.6-.8s.3-.5.5-.8c0-.2.1-.4.2-.6s.4-.3.6-.3l.3.1c.1-.2.2-.6.2-1.1.2,0,.3,0,.4-.1l.3-.1v.1l.4.1c.1-.1.2-.1.3-.1.3,0,.5.1.8.2s.5.3.7.5c0,.1,0,.1.1.1c0,0,0-.1.1-.1h.2c.4,0,.6.2.6.5v.1c-.2.2-.3.4-.5.7-.1.2-.3.4-.4.7-.3.4-.6.8-1.1,1.2v.1l-.8,1.1.1.2-1.6,2-.1.1c-.1.2-.1.4-.2.6s-.2.4-.3.6l-.4.1c.1.1.1.1.1.2s0,.2.1.2c-.3.5-.5,1-.7,1.4-.2.5-.2,1-.2,1.5-.1.1-.2.1-.2.3c0,.1,0,.2,0,.3c0,.2,0,.3,0,.5c0,.1,0,.3.1.5c0,.2.1.3.1.5s.1.3.1.5l.5-.3h.1l.1-.1.1-.1c0-.1.1-.2.1-.3l.1.4.4-.2v.2h.1c.1,0,.2-.1.3-.3.1-.1.1-.1.2-.2s.2-.1.3-.1l.1-.1v-.1c0-.2.1-.3.3-.4.1,0,.2-.1.3-.1.1-.1.2-.1.2-.1h.1l1.3-1.2h.1c.1-.1.2-.2.4-.4s.4-.3.6-.4v-.3l.3-.1h.1l1.1-1.5c0,0,0,.1.1.1s.1,0,.1.1c0,0,.1-.1.2-.2s.1-.2.1-.3l.1-.1c.1-.1.1-.1.3-.1.1-.1.2-.1.2-.1.1,0,.1,0,.1-.1-.4.7-.7,1.3-.9,1.8-.3.5-.5,1.1-.8,1.6s-.5,1.1-.9,1.6-.7,1-1.2,1.5l-.2-.2.3-.4-.1-.3-.1.1v.2l-.3.3c0,.4-.2.7-.4.9h-.2l-.1-.1v.2l-.3.3-.1-.1-.6.8v-.1l-.1.1c-.1,0-.1.1-.2.1s-.1.1-.2.1c-.2.1-.3.2-.3.3l-.9.3v0Zm4.8-3.8c0-.1,0-.2.1-.2v-.1l-.2.1h.1l-.1.2h.1v0v0Z"/><path d="M395.4,59.3c-.1,0-.1-.1-.2-.1-.7-.3-1.4-.6-2-1.1-.6-.4-.9-1.1-.9-2c0-.4.1-.9.2-1.4.1-.2.2-.4.2-.7.1-.2.1-.4.1-.7l.2-.1.1-.8.4-.8c.1-.3.3-.6.5-1s.4-.8.6-1.2.4-.6.6-.8v-.2l.2.2c.4-.6.8-1.1,1.3-1.5s1-.8,1.5-1.2c0-.2.1-.4.3-.4l-.1-.2.3-.1l3.1-2.6.1-.1c0-.1,0-.2-.1-.3.1,0,.2.1.3.3s.1.2.1.1v-.1l.1-.1.1-.1h-.1c0,0-.1,0-.1-.1l.1-.2.1-.1c.1-.1.2-.1.2-.1.1,0,.1,0,.1.1s0,.1,0,.1l.4-.6.1.2.2-.2v-.1c.2,0,.5-.2.8-.5s.6-.5.6-.7h.1l1.5-.8.8-.7h.2v.1c.4-.3.7-.6,1.2-.9.4-.3.9-.5,1.4-.5v-.1l.2.1c0-.1.1-.2.1-.3s.1-.3.1-.4l.1-.9c0-.1.1-.3.1-.7.1-.4.2-.7.2-.7l.2-.2c.1,0,.1,0,.1-.1c0,0,0-.1-.1-.1h-.1c-.1-.1-.1-.1-.1-.2c0-.2.1-.4.1-.6.1-.1.1-.2.1-.3s0-.2.1-.3h-.1c-.1,0-.1-.1-.1-.2c0-.3.1-.5.3-.8s.2-.5.2-.7c0-.4.1-.9.1-1.3c0-.2.1-.4.1-.6s0-.4,0-.6c0-.3,0-.4-.1-.5c0,.1-.1.1-.1.2h.1c-.3.6-.7,1.3-1.2,2.1s-.9,1.6-1.4,2.4-.9,1.5-1.3,2c-.7,1-1.6,2-2.5,2.9s-1.9,1.6-3.1,2.2l-.1-.1c-.1.1-.3.2-.5.2s-.3.1-.5.1c-.7,0-1.3-.3-1.6-.9s-.5-1.3-.5-1.9c0-.5,0-1.1.1-1.7s.2-1.1.5-1.7l.1-.4c0,0,.1-.1.1-.3.2-.1.3-.3.4-.6s.2-.5.2-.7c.2-.1.3-.3.3-.5l.2-.3c.1-.1.2-.1.3-.1c0-.3,0-.5.1-.7s.3-.3.5-.3v-.2l.2-.3-.2-1c.1-.1.2-.3.4-.6s.3-.5.4-.7c-.1-.1-.1-.2-.1-.3c0-.3.2-.6.6-1l.2-.2c.2-.2.3-.5.3-.7l.4-.1c0-.2.2-.3.4-.3h.1c.1-.3.3-.6.4-.7.1-.2.2-.3.4-.4.1-.1.2-.2.2-.2l.2-.1c.2-.2.4-.3.5-.4s.2-.3.4-.6c.1-.1.1-.2.2-.3s.1-.2.2-.3c.5-.4,1.1-.8,1.9-1s1.5-.3,2.2-.3c.6,0,1.3.1,2.1.3s1.4.6,1.7,1.2c.4.6.7,1.3,1,1.9s.5,1.3.5,2.1v.2c0,.1,0,.2-.1.2c0,.1-.1.2-.1.3v.5c0,.1,0,.2.1.3c0,.1.1.2.1.3v-.1c0,.1-.1.4-.2.7-.2.4-.3.7-.5,1.1-.2.3-.4.5-.5.5s-.2-.1-.2-.1c0-.1-.1-.2-.1-.2c0-.2,0-.3,0-.5s0-.3.1-.5c0-.2.1-.3.1-.5s.1-.3.1-.5c.1-.3.2-.7.2-1.1.1-.4.1-.7.1-1.1c0-.2,0-.5-.1-.8c0-.3-.1-.5-.2-.7-.1-.1-.1-.2-.2-.3s-.1-.2-.2-.3-.1-.2-.2-.3-.2-.2-.2-.3c-.3-.4-.7-.6-1.2-.6-.2,0-.4.1-.6.1l-.1.1c-.2,0-.3,0-.4,0s-.3.1-.4.2l-.3.1-.3.2c-2.1,1.3-3.9,3-5.4,5.1s-2.8,4.2-3.8,6.4c-.2.5-.5,1.1-.7,1.7s-.4,1.2-.4,1.7c0,.3.1.5.1.8l.1.1c0,0,.1.1.2.1.2,0,.5-.1.8-.4s.6-.5,1-.9c.3-.3.6-.6.8-.7.2-.2.4-.4.6-.4.3-.4.6-.9.9-1.2.2-.2.3-.3.5-.5s.3-.3.4-.5c.8-1,1.6-2.1,2.4-3.3.9-1.2,1.5-2.2,1.9-3.2.1-.2.1-.3.2-.5s.1-.4.1-.5c0-.3.2-.6.6-.9l.7-.1c.3.1.6.1.8.1s.3,0,.4-.1h.4c.4,0,.6.2.7.5s.1.7.2.9c0,.1,0,.2.1.2l.1.1c0,.1,0,.2,0,.3c0,.2.1.3.1.4s0,.2,0,.3c0,.5-.1,1-.2,1.4-.2.5-.2.9-.2,1.4c0,.4-.1.7-.3,1.1-.2.3-.3.7-.3,1.1c0,.3-.1.5-.3.5h-.1c-.1,0-.1,0-.1.1s0,.1.1.2c0,.1.1.2.1.3c0,0,0,.1-.1.3s-.1.2-.1.3-.2.2-.4.2c-.1,0-.2.1-.3.1s-.2,0-.2,0h-.1c0,.1.1.1.1.1s.1-.1.2-.1.2,0,.3,0c.2,0,.2.1.2.2s-.1.3-.2.6-.3.6-.4.9-.3.6-.3.7l.2.2-.1.1c0,0,0,.1-.1.1l-.2.2c.8.2,1.3.4,1.7.7s.6.9.6,1.9c0,.4-.1.6-.2.7s-.2.2-.2.3-.1.1-.2.2-.2.1-.2.1c-.1,0-.2-.1-.2-.1v-.1h-.1l.3-.8c0-.1.1-.2.1-.3s.1-.2.1-.3c0-.4-.3-.6-.8-.8s-1-.3-1.3-.4c-.5,1.2-1.1,2.4-1.8,3.6s-1.3,2.4-1.9,3.5c-.2.4-.5.8-.7,1.2s-.5.9-.7,1.3c-.5.9-1,1.7-1.6,2.4-.4.6-.9,1.2-1.4,1.9-.5.6-1,1.2-1.4,1.9-.4.6-.9,1.1-1.4,1.4s-1,.6-1.6.9-1.1.7-1.8,1.2c-.3,0-.6.1-1,.3-.3.2-.6.3-1,.2.3.5.2.5.2.5v0Zm-1-1.8c.1,0,.3-.1.4-.1s.2,0,.3,0c.1-.1.2-.1.3-.2s.2-.1.3-.2l.7-.4c.3-.2.5-.3.7-.5s.4-.3.6-.5l.2-.2.1-.2c.1-.1.1-.2.2-.3s.2-.2.2-.2c.1-.1.1-.2.2-.3s.2-.2.2-.2c.1-.1.1-.2.2-.3s.2-.2.2-.2l.3-.1v.1c.2-.2.3-.4.5-.6s.4-.4.6-.5l-.1-.1.9-.8v.3l.1-.1.1-.1.3-.7-.1-.1-.1.1h-.2v-.2c.4-.5.8-1.1,1.3-1.7s1-1.2,1.4-1.8.6-1.2.7-1.7l.8-.8h.1l1-1.6-.1-.3l1.5-1.9c0-.2.2-.5.4-.7.2-.3.3-.5.3-.8c0-.1,0-.1-.1-.1-.3,0-.9.3-1.7.9-.1.1-.3.1-.4.2s-.3.2-.5.3c-.3.2-.6.4-.9.4L403.1,43h-.1l-3.9,3.2c-.2.2-.5.6-.9,1.1s-.6,1-.8,1.4l-.2-.2c0,0-.1.2-.2.5-.1.2-.1.3-.2.4s-.1.2-.1.3v.1c0,0,0,.1-.1.1c0,.1-.1.1-.2.1l-.1-.1-1.2,1.9h-.1l-.1-.1c0,.1-.1.1-.1.2s0,.2-.1.2c0,.2-.1.3-.2.4l-.9,2.3c0,.1,0,.2,0,.4c0,.1,0,.2-.1.4-.1.3-.1.5-.1.7.4.5.6.9,1,1.2v0Zm7.3-26.3l.1-.1-.1-.1-.1.2c0,0,.1,0,.1,0Z"/><path d="M419.3,38.9c-.4,0-.7-.1-1.1-.1-.5-.2-1-.7-1.5-1.6l.4-.1-.3-.2-.4-1.2h-.1c0-.1-.1-.2-.1-.4v-.3c0-.1.1-.4.2-.7.2-.3.3-.6.4-.9l-.5.1v-.3c0,0,.1-.1.1-.2s.1-.2.2-.2l.1.1.1-.1v-.2c0-.1,0-.3,0-.4s.1-.3.2-.4c0-.2,0-.3.1-.3l.1-.2h.1v-.2l.3-.4c.2-.2.3-.2.3-.2v-.1l-.1.1c-.1,0-.2-.1-.2-.2c0,0,0-.1.1-.1v-.2c0,0,.1-.1.1-.2s0-.2-.1-.3l.3-.4.2.1-.1-.1h.1l.1-.1.1-.5.2.4.1-.8c0-.2.1-.3.1-.5s.1-.3.1-.5l.5-.1v-.4h-.1v-.2l.2-.2v0l.1-.1v-.2l.4-.3v-.2c.2-.1.4-.3.6-.7.1-.2.3-.4.7-.4h-.3l.1-.1-.2.1v-.4h.1l.1-.1h.1l.1-.2v-.2c.2-.1.4-.3.6-.5s.3-.4.3-.6l.2-.1v-.2l.2.1.6-.6v-.2l.4-.2.2-.3c0-.1.1-.1.1-.1s.1,0,.2.1.2.1.3.1h.3c.5,0,1,.2,1.5.6s.9.8,1.3,1.3.5,1,.5,1.5c0,.2.1.3.1.5c0,.1.1.2.1.3s0,.2,0,.3v.2c0,.1,0,.2-.1.2-.5,1.3-1.4,2.5-2.5,3.7s-2.3,2.1-3.5,2.8c-.3.1-.5.3-.9.4-.3.1-.6.2-1,.2-.1,0-.2,0-.2-.1l-.3-.1c.1,0,.2-.1.4-.2.1,0,.1-.1.2-.1s.1-.1.2-.1l.3-.1c.1,0,.1,0,.1-.1l-.1-.1c0-.1.1-.2.2-.2.2-.1.4-.2.5-.2l.5-.1c.2-.1.4-.1.5-.2s.2-.1.2-.3c.1-.1.3-.3.5-.6.2-.4.4-.6.5-.7l.4-.1.5-.7-.1-.2.4-.2v-.2h.1c.4-.4.6-.7.8-1s.4-.7.6-1.2c0-.1.1-.1.1-.1v-.1c.2-.4.3-.8.3-1.1c0-.8-.4-1.2-1.1-1.2-.1,0-.2,0-.2-.1-.1,0-.2,0-.2.1h.2l-.2.2c-.2.1-.3.2-.5.3-.1.1-.2.3-.2.5h-.2c.1,0,.1.1.1.2-.2,0-.4.1-.5.2l.2.1c-.1.1-.1.1-.2.2s-.2.1-.3.2c-.1,0-.2.1-.3.1-.1.1-.2.1-.2.2-.4.3-.5.5-.5.7c0,0,0,.1.1.1l.1.1c.1,0,.1.1.2.1l-.4-.1c.1,0,.1-.1.1-.1-.1,0-.2,0-.3.1-.1,0-.1,0,0,.1l.1.1c0,0-.1,0-.1.1l-.1.1h-.1c-.1.2-.3.3-.4.5s-.2.3-.3.5c-.1.3-.3.6-.5.9l.3.2h-.3l-.2.2v.2l-.3.2.1.1-.5.8-.1.1v.4l-.5.6.1.2h-.1v.3c-.2.2-.4.5-.4.9c0,.3-.2.6-.4,1h.3l-.4.2v.1l-.1.1c0,.1,0,.2,0,.3s0,.2.1.3c0,.1.1.2.1.3s0,.2,0,.3c0,.3.1.6.3,1s.4.6.7.6c.6,0,1.2-.2,1.8-.5.6-.4,1.2-.5,1.8-.6l1-.8c.5-.4,1-.9,1.3-1.5.4-.6.9-1.1,1.4-1.5h.1l-.1-.1c.1-.1.2-.3.4-.6s.3-.5.3-.6c0,0,.1-.1.1-.2s0-.1.1-.1c.1-.2.2-.2.3-.2s.2.1.2.2s0,.2-.1.2c0,.3-.1.8-.4,1.4s-.6.9-.9,1.1v.1c-.2.2-.3.4-.5.7s-.5.7-.9,1.2-.7.8-1,.8l-.7.4v.2c0,.2-.1.3-.3.3-.1.2-.3.2-.5.2-.1.2-.3.3-.5.4-.1,0-.2.1-.4.2-.1.1-.2.2-.5.3-.2.1-.4.2-.5.2-.2.1-.4.2-.6.2s-.4,0-.6,0l-.8.1v0Z"/></g></svg>
