   <svg version="1.1" xmlns="http://www.w3.org/2000/svg" xmlns:xlink="http://www.w3.org/1999/xlink"
                    x="1000px" y="100px" viewBox="-430 0 1250 100">
                    <g id="Paintings_In_My_Garage">
                        <path id="cppaint" d="M4.3,42.1C4.2,42.1,4.1,42,4,42c-0.1,0-0.3-0.1-0.4-0.1c-0.3,0-0.5-0.2-0.5-0.4s0.1-0.5,0.2-0.7
		c0.1-0.3,0.3-0.5,0.4-0.6L4,39.7l0.1-0.1l0.1-0.1h0.1c0.2,0,0.4-0.4,0.8-1s0.8-1.3,1.2-2.1s0.9-1.5,1.3-2.1s0.7-0.9,0.9-0.9
		l0.1-0.6c0.1-0.1,0.3-0.4,0.6-0.9s0.6-1,0.9-1.5s0.4-0.8,0.4-1c0.1-0.2,0.3-0.3,0.4-0.6c0.1-0.2,0.2-0.4,0.3-0.6
		c0.2-0.3,0.3-0.6,0.4-0.9c0.1-0.3,0.3-0.6,0.4-0.9l0.7-1.8c0.2-0.3,0.3-0.7,0.5-1c0.2-0.3,0.3-0.7,0.5-1s0.3-0.7,0.4-1
		s0.3-0.7,0.4-1c0.1-0.2,0.2-0.6,0.4-1.1s0.3-1.1,0.6-1.8s0.4-1.2,0.6-1.7s0.4-0.8,0.5-0.9v-0.4l0.5-0.8L17,13.6
		c-0.1-0.1-0.1-0.2-0.1-0.2s0-0.1,0.1-0.1v-0.1c-0.1,0,0-0.4,0-1s0-0.9,0-1.2c0-0.1,0-0.2,0-0.5c0-0.2,0.1-0.4,0.1-0.4V9.6
		c0-0.2,0-0.3,0.1-0.5v-1c0-0.9-0.2-1.8-0.6-2.6s-1-1.2-1.9-1.2c-0.8,0-1.7,0.2-2.6,0.7s-2,1-2.9,1.7C8.3,7.3,7.5,7.9,6.9,8.4
		C6.8,8.5,6.6,8.6,6.5,8.7C6.4,8.8,6.3,8.9,6.2,9S6,9.2,5.9,9.3S5.7,9.5,5.5,9.6l-0.9,0.7h0.2C4.7,10.5,4.4,10.7,4,11
		c-0.5,0.3-0.8,0.4-1,0.4v0.2l0.1,0.1c0.1-0.1,0.1-0.1,0.2-0.1s0.1,0,0.1,0.1c0.1,0,0.1,0,0.1,0.1s0,0.2-0.1,0.2v-0.1H3.2l-1.7,2.3
		H1.4v0.3h0.2c0.1,0,0.2,0.1,0.2,0.1c-0.3,0.2-0.6,0.6-0.7,1.1s-0.2,1-0.2,1.3c0,0.2,0,0.5,0.1,0.7c0.1,0.3,0.3,0.4,0.6,0.4v0.1
		c-0.5,0-0.9-0.2-1.2-0.5S0,17,0,16.5l0.3-0.3l-0.1-0.4C0.1,16.3,0,16.2,0,16.2l0.1-0.1c0,0.2,0.1,0.3,0.3,0.3l-0.1-0.5
		c0-0.1,0-0.2-0.1-0.3v-0.2c0-0.1,0-0.1,0.1-0.2v-0.1L0.4,15c0.1,0,0.1,0,0.1-0.1c0.1,0,0.2-0.1,0.2-0.2h0.2l-0.1-0.1v-0.1
		c0-0.1,0-0.1,0.1-0.1v-0.2H0.8v0.1l-0.2,0.2l0,0l-0.1-0.2l0.1-0.1L1,13.9c0-0.1,0-0.2,0-0.3s0-0.2,0-0.3c0-0.3,0.1-0.5,0.4-0.5
		c0.1,0,0.2,0.1,0.3,0.2c0.1,0,0.2-0.2,0.2-0.4c0-0.1-0.1-0.2-0.1-0.4c0-0.1,0-0.2,0.1-0.3c0-0.1,0.1-0.2,0.3-0.2
		c0.2,0,0.3-0.1,0.3-0.2H2.4c-0.1,0-0.1,0-0.1-0.1c0,0,0-0.1,0.1-0.1v-0.1l0.5-0.5c0.2-0.2,0.4-0.4,0.5-0.6c0.2-0.2,0.3-0.4,0.5-0.6
		C4.1,9.3,4.3,9.1,4.4,9L5,8.3l0.2-0.2L5.3,8h0.1V7.8c0.3-0.3,0.6-0.5,1-0.5l0.2-0.7C6.8,6.5,7,6.4,7.4,6.2s0.7-0.4,1-0.6
		s0.5-0.4,0.5-0.5C9,5.2,9,5.2,9,5.3s0.1,0.2,0.3,0.2V5.2c0,0-0.1-0.1-0.1-0.2h0.1l0.2-0.2c0.1-0.1,0.1-0.1,0.2-0.1l0.1,0.1
		c0.2-0.2,0.5-0.4,0.8-0.6s0.6-0.3,0.9-0.3c0.1-0.1,0.2-0.2,0.2-0.2C11.9,3.6,12,3.5,12,3.5s0.1-0.1,0.2-0.2l0.1-0.1h0.2
		c0.5-0.4,1.1-0.7,1.6-0.7c0.3-0.2,0.5-0.3,0.8-0.3c0.3-0.1,0.6-0.1,0.8-0.1V2L16,1.9c1.2,0.1,2.1,0.5,2.9,1.2s1.4,1.5,1.9,2.4v0.2
		c0,0.6,0.1,1.2,0.4,1.8c0.2,0.5,0.3,1.1,0.3,1.8c-0.1,0.1-0.2,0.3-0.3,0.6c-0.1,0.3-0.1,0.5-0.1,0.8c-0.1,0.2-0.2,0.4-0.4,0.4
		l-0.1,1.1c-0.1,0.2-0.2,0.5-0.2,0.8c0,0.3,0,0.7-0.1,1s-0.2,0.5-0.5,0.5v0.1c0.3,0.2,0.4,0.3,0.4,0.4c-0.1,0.1-0.2,0.2-0.3,0.2
		c-0.1,0.1-0.2,0.2-0.2,0.3h0.1l-0.2,0.1L19,17.1l-0.3-0.3c-0.1,0.2-0.2,0.3-0.3,0.5c-0.2,0.2-0.2,0.3-0.2,0.5c0,0,0.1,0.1,0.1,0.2
		s-0.1,0.3-0.3,0.4c-0.2,0.1-0.3,0.3-0.3,0.4v0.1c0.1,0,0.1,0.1,0.1,0.2c0,0.3-0.1,0.7-0.3,1.2c-0.2,0.5-0.5,1.1-0.8,1.7
		s-0.6,1.1-0.9,1.7c-0.3,0.5-0.5,0.9-0.7,1.2c0,0.3,0,0.4-0.1,0.4l-0.4,0.3c0,0.3-0.1,0.6-0.4,0.9c-0.3,0.4-0.4,0.8-0.4,1.3
		c0,0.2,0,0.3,0.1,0.3l0.8-2c0.3-0.7,0.6-1.3,0.9-2s0.7-1.3,1-2l4.3-7.8c0.7-1.3,1.5-2.6,2.3-3.7C24,9.4,25,8.1,26,6.8
		s2.1-2.6,3.3-3.7c1.2-1.2,2.5-2,3.8-2.6c0.1-0.1,0.3-0.2,0.6-0.3C34,0.1,34.2,0,34.2,0c0.3,0,0.5,0.1,0.7,0.2
		c0.1-0.1,0.2-0.1,0.3-0.1s0.3,0,0.5,0c0.1,0,0.3,0,0.4,0.1c0.3,0.1,0.5,0.1,0.8,0.1l0.4,0.2l0.3-0.1v0.1l0.3,0.1
		c0.2,0,0.2-0.1,0.2-0.1C38.6,0.7,39,0.8,39.3,1l0.1-0.1h0.1l0.6,0.6c0.1,0.1,0.1,0,0.1-0.1V1.2h0.1c0.4,0.6,0.9,1.1,1.4,1.4
		c0.6,0.4,1.1,0.7,1.5,1.1C43.8,4.1,44,4.6,44,5.2c0,1.7-0.1,3-0.2,4.1s-0.4,2-0.7,2.8c-0.4,0.8-0.9,1.7-1.6,2.5s-1.6,1.9-2.6,3.1
		l-0.1-0.1c-0.2,0.2-0.6,0.5-1,0.9s-0.9,0.8-1.3,1.1c-0.4,0.3-0.7,0.5-0.9,0.5v0.1l0.1,0.2c0,0-0.2,0.2-0.5,0.5s-0.6,0.5-1,0.8
		c-0.3,0.3-0.5,0.4-0.6,0.4l-0.1,0.4l-1.6,0.9v-0.1l-0.1-0.1c0,0-0.1,0-0.1-0.1c-0.2,0-0.3,0.1-0.6,0.1s-0.3,0.2-0.4,0.3v0.1
		c0.2,0,0.3,0.1,0.3,0.3v0.3h-0.4l-0.2,0.1h-0.1c0,0-0.1,0-0.1,0.1c-0.1,0-0.1,0.1-0.2,0.1l-0.1,0.1L29.7,25h-0.1
		c0,0-0.1-0.1-0.3-0.2c-0.2-0.2-0.3-0.2-0.4-0.2h-0.1c0,0-0.1,0.1-0.1,0.2c0,0.2,0.1,0.4,0.1,0.6l-1.1,0.1v0.2
		c-0.4,0-0.8,0.2-1.2,0.4c-0.4,0.2-0.8,0.3-1.3,0.3c-0.3,0-0.4-0.1-0.4-0.1c0.2-0.1,0.2-0.1,0-0.1c-0.3,0-0.5,0-0.5,0.1l-0.2,0.2
		c-0.1,0-0.2,0-0.2-0.1h-0.2c0,0-0.1,0-0.1-0.1h-0.3c-0.1,0-0.2-0.1-0.4-0.1c-0.3,0-0.5,0-0.6,0.1c-0.1,0-0.2,0.1-0.3,0.1
		c-0.1,0-0.2,0-0.3,0c-0.4,0-0.7-0.2-1-0.6s-0.6-0.9-0.8-1.4c-0.2-0.5-0.3-0.9-0.3-1.3c0-0.2,0.1-0.5,0.3-0.9
		c0.2-0.4,0.3-0.8,0.4-0.9v0.1l0.2-0.2l0.3-0.1l0.1,0.1l0.1-0.4c0.1,0.1,0.3,0.1,0.7,0.2c0.4,0.1,0.6,0.1,0.7,0.1s0.1-0.1,0.1-0.2
		s-0.1-0.3-0.2-0.4c-0.2-0.3-0.3-0.3-0.3-0.3l-0.1-0.1L22,20c0.1-0.1,0.3-0.2,0.6-0.4c0.3-0.2,0.5-0.3,0.6-0.3l0.1-0.2l0.1,0.1
		l0.8-0.6h0.1c0.1,0,0.2,0,0.2,0.1c0,0,0,0.1,0.1,0.1v-0.2l0.1,0.1c0.1-0.4,0.5-0.8,1.1-1.1c0.3-0.2,0.5-0.3,0.7-0.5
		s0.4-0.3,0.6-0.4c0.1,0.2,0.1,0.3,0.2,0.3c0.2,0,0.3-0.1,0.3-0.2v-0.1c-0.1,0-0.1-0.1-0.2-0.1c0.2-0.2,0.3-0.3,0.3-0.4l0.2-0.1
		L28,16c0,0,0-0.1,0.1-0.1l0.6-0.1v0.1c0,0.1,0,0.1,0.1,0.1c0,0,0.1-0.1,0.2-0.4s0.2-0.4,0.3-0.4s0.1,0.1,0.1,0.2
		c0.3-0.2,0.8-0.4,1.5-0.8s1.5-0.6,2.3-0.9s1.3-0.4,1.6-0.4c0.2,0,0.3,0,0.3,0.1v-0.2l0.1,0.2h0.1c0,0,0.1,0,0.1-0.1h0.1
		c-0.8,0.4-1.5,0.8-2.3,1.1s-1.6,0.6-2.3,1l-0.2-0.1v0.1l-1.1,0.5h-0.1v0.2l-1.3,1.1c-0.4,0.4-0.9,0.5-1.4,0.5l0.1,0.1
		c0,0.1,0,0.1-0.1,0.2s-0.1,0.1-0.1,0.1c-0.1,0-0.1,0-0.1-0.1l-0.1-0.1V18l-1.6,1.3l-0.2-0.1L24,19.6l0.1,0.1l-0.8,0.7
		c0,0.1,0.1,0.2,0.1,0.3l-0.6,0.2V21c0,0.1,0,0.1-0.1,0.2s-0.1,0.2-0.1,0.2c-0.3,0.2-0.6,0.4-0.9,0.8s-0.4,0.7-0.4,1.1
		c0,0.5,0.3,0.9,0.8,1.1c0.6,0.2,1.1,0.3,1.6,0.3h0.1v0.1c0,0.1,0,0.2,0,0.3l0.7-0.1l-0.2-0.3c0.1,0,0.3,0,0.5,0.1s0.3,0.1,0.4,0.1
		c0.3,0,0.4-0.1,0.3-0.2s0.1-0.2,0.3-0.3h0.1l0.1,0.1c0.1,0,0.2-0.1,0.3-0.1c0.2-0.1,0.2-0.2,0.2-0.2h-0.1l0,0l1.2-0.9l0.1,0.1
		l-0.1-0.2c0.1,0,0.2,0.1,0.3,0.1c0.1,0,0.1,0,0.2,0s0.1,0,0.1-0.1c0.1-0.1,0.1-0.1,0.2-0.2s0.1-0.2,0.2-0.2l0.2,0.1
		c0.1-0.1,0.2-0.1,0.1-0.2s0-0.2,0.1-0.2l0.3-0.1c0.1,0,0.2-0.1,0.2-0.1c0-0.1,0-0.2-0.1-0.2c0.2-0.2,0.5-0.3,0.7-0.5
		s0.5-0.4,0.7-0.6c0.4-0.4,0.9-0.6,1.5-0.6c0.1,0,0.1-0.1,0.1-0.2s0.1-0.2,0.2-0.2v-0.1c0-0.3,0.2-0.6,0.5-0.9s0.5-0.6,0.7-0.8v-0.1
		l2-2h0.1V16l0.2-0.4l0.1,0.1l0.8-0.6l-0.1-0.5l0.1-0.1c0-0.1,0.1-0.1,0.2-0.1c0.1,0,0.2,0,0.3,0c0.4,0,0.6,0,0.7,0.1l-0.1-0.3
		L38,14.1c-0.1,0-0.2-0.1-0.3-0.1c-0.2-0.1-0.3-0.2-0.3-0.2h0.5c0.3-0.3,0.5-0.7,0.7-1.1l0.1,0.1c0.4-0.5,0.7-1,0.9-1.6
		s0.5-1.1,1-1.5l-0.1-0.3c0-0.1,0.1-0.2,0.2-0.4c0.1-0.1,0.1-0.1,0.1-0.2s0.1-0.1,0.1-0.2c0,0,0-0.1,0.1-0.1l0.1-0.1
		c0-0.1,0.1-0.2,0.1-0.4V6.4c0-0.1-0.1-0.2-0.1-0.3V5.7c0-0.9-0.1-1.6-0.3-2.3c-0.2-0.6-0.8-1.2-1.6-1.5c-0.3-0.1-0.7-0.2-1.2-0.2
		h-0.5c-0.2,0-0.3,0-0.5,0.1l-0.4-0.1c-0.4,0-0.8,0.2-1.3,0.5l-1.4,0.9c-0.5,0.3-0.9,0.5-1.2,0.5c-0.4,0-0.7,0.2-0.7,0.7
		c-0.4,0.5-0.9,1.1-1.6,1.8S29,7.5,28.3,8.3c-0.7,0.7-1.2,1.3-1.4,1.8c0,0.1-0.1,0.2-0.2,0.3s-0.2,0.2-0.2,0.2s-0.1,0-0.1-0.1
		l-0.1-0.1c0,0-0.1,0.1-0.1,0.2v0.2c0,0.4-0.2,0.9-0.6,1.4s-0.8,1-1.3,1.5s-0.8,0.9-1.1,1.3c-0.9,1.5-1.8,3-2.7,4.5
		c-0.9,1.5-1.9,3-2.8,4.5s-1.9,3-2.8,4.5s-1.9,3-2.8,4.5c-0.3,0.4-0.5,0.8-0.7,1.2s-0.5,0.8-0.7,1.2c-0.3,0.4-0.5,0.8-0.8,1.2
		s-0.5,0.8-0.8,1.2c-0.1,0.3-0.3,0.5-0.4,0.8c-0.2,0.3-0.3,0.5-0.5,0.8s-0.3,0.5-0.4,0.8L7.4,41l-0.1,0.1c-0.1,0.1-0.1,0.1-0.2,0.2
		c-0.1,0.1-0.2,0.2-0.3,0.2v-0.1c-0.2,0.2-0.5,0.3-0.9,0.3C4.9,41.8,4.5,41.9,4.3,42.1L4.3,42.1z M0.8,16.7L0.8,16.7
		c0-0.2,0-0.3,0.1-0.3c0-0.1,0.1-0.2,0.1-0.3c0-0.1-0.1-0.2-0.1-0.2c0,0.1,0,0.2-0.1,0.3V16.7C0.7,16.6,0.7,16.7,0.8,16.7z
		 M1.4,13.9h0.2v-0.1h0.2v-0.3H1.6v0.1C1.5,13.6,1.4,13.7,1.4,13.9z M2.7,12.6l0.1-0.3H2.6l-0.1,0.1h0.1L2.7,12.6L2.7,12.6z M4,11
		c0.2-0.2,0.4-0.4,0.4-0.5v0.1c0,0,0-0.1,0.1-0.1v-0.1H4.4c0,0-0.1,0-0.2,0.1c-0.1,0.1-0.1,0.1-0.2,0.1l0,0.2l-0.1,0.1
		C3.9,11,3.9,11,4,11z M15.8,23.3c0-0.1,0-0.1,0.1-0.2L16,23l0.1-0.3c0.1-0.1,0.1-0.2,0.1-0.2s-0.1,0.1-0.2,0.1l-0.1,0.3
		C15.8,23,15.7,23.1,15.8,23.3C15.7,23.2,15.7,23.3,15.8,23.3L15.8,23.3z M18.8,16.4c0-0.1,0.1-0.2,0.2-0.3c0.1-0.1,0.1-0.2,0.1-0.3
		c0-0.1,0-0.1-0.1-0.1s-0.2,0-0.2,0.1C18.8,15.9,18.7,16.1,18.8,16.4C18.7,16.3,18.8,16.4,18.8,16.4z M20.2,13.9l0.1-0.3l0.1-0.1
		c0.1-0.1,0.1-0.1,0.1-0.2c0-0.1,0-0.2,0.1-0.2c0,0-0.1,0-0.1-0.1c0,0,0-0.1-0.1-0.1L20.3,13l0.1,0.3h-0.1c-0.1,0-0.1,0.1-0.1,0.1
		c0,0.1,0,0.2,0,0.3C20.1,13.8,20.1,13.9,20.2,13.9z M20.3,12.5c0.1,0,0.1,0,0.1-0.1c0,0,0-0.1,0.1-0.1V12c0-0.1,0-0.2-0.1-0.3
		c0-0.1-0.1-0.2-0.1-0.2v0.4c0,0.2,0,0.3-0.1,0.4C20.2,12.4,20.2,12.5,20.3,12.5L20.3,12.5z M20.7,6.6L20.7,6.6l0.1-0.1h-0.1
		C20.7,6.5,20.7,6.5,20.7,6.6z" />
                        <path id="capaint" d="M48.8,40.3c-0.3-0.4-0.7-0.7-1-0.9s-0.6-0.4-0.9-0.7c-0.2-0.3-0.4-0.6-0.4-1.1h0.1l-0.1-0.7L46.4,37l-0.1,0.2
		c0-0.1,0.1-0.2,0.1-0.4c0-0.1,0.1-0.2,0.1-0.3c0-0.2,0.1-0.3,0.1-0.5c0-0.1,0-0.3,0-0.5c0-0.4,0-0.8,0.1-1.2s0.1-0.8,0.2-1.2
		c0.1-0.4,0.2-0.8,0.3-1.2s0.2-0.8,0.2-1.3h0.1l0.5-1.2l0-0.2c-0.1,0.1-0.1,0.2-0.1,0.2c0,0.1-0.1,0.1-0.1,0.2
		c-0.4,0.5-0.8,1.1-1.3,1.9c-0.5,0.7-1,1.4-1.5,2s-1,1.1-1.4,1.3c-0.3,0.2-0.4,0.3-0.5,0.4c-0.1,0.1-0.2,0.3-0.3,0.6
		c-0.3,0.1-0.6,0.3-0.9,0.6c-0.3,0.4-0.6,0.7-0.9,1c-0.3,0.3-0.6,0.5-1,0.5l-0.3,0.3c-0.2,0.2-0.5,0.3-0.8,0.4s-0.6,0.1-0.9,0.2
		c-0.7-0.3-1.4-0.6-2.1-1.1c-0.7-0.4-1-1.1-1-1.9c0-0.3,0.1-0.6,0.1-0.8h0.1v-0.2C35,34.7,35,34.5,35,34.4c0-0.2,0.1-0.2,0.1-0.2
		l0.1,0.1c0.1-0.1,0.1-0.3,0.1-0.5s0-0.4,0-0.4l0.1-0.1c0-0.2,0.1-0.5,0.3-0.7c0.2-0.3,0.4-0.5,0.7-0.7c0.2-0.2,0.3-0.4,0.3-0.5
		l0.1-0.1c0-0.2,0-0.3-0.1-0.4c-0.1-0.1-0.1-0.2-0.1-0.3v-0.4H37l0.1-0.2v-0.1C37,29.8,37,29.8,37,29.8v-0.1c0-0.1,0-0.2,0.1-0.2
		l0.1-0.1v-0.1c0,0,0-0.1,0.1-0.1v-0.1l0.2-0.2c0.1-0.1,0.2-0.2,0.3-0.2c0.3-0.4,0.5-0.7,0.6-1h0.2l0.1,0.1c0-0.1-0.1-0.1-0.1-0.1
		v-0.1c0-0.3,0.2-0.6,0.7-1.1c0.4-0.5,1-1,1.6-1.6s1.2-1.1,1.8-1.6s1-0.9,1.3-1.2v-0.2h0.1c0.1-0.1,0.3-0.2,0.4-0.3
		c0.2-0.1,0.3-0.3,0.5-0.4c0.3-0.3,0.6-0.5,0.8-0.5l0.1-0.2l0.3-0.1l0.1-0.1l0.1-0.1c0.1,0,0.1-0.1,0.1-0.1s0.1,0,0.1-0.1l0.1-0.1
		l0.1-0.1v-0.1c0,0,0-0.1,0.1-0.1l0.9-0.3l0.1,0.1l0.7-0.3l0.1-0.1h0.1l0.6-0.1l0.3-0.2l0.1-0.1v0.1l0.1-0.1l0.1,0.1
		c0.3-0.1,0.6-0.2,0.9-0.2s0.7,0.1,1.2,0.1c0.5,0.1,0.9,0.2,1.3,0.5c0.4,0.2,0.7,0.5,0.7,0.8V20l-1,0.6c0.1-0.2,0.1-0.3,0.1-0.3
		v-0.1c0-0.1-0.1-0.1-0.2-0.1h-0.3c-0.7,0-1.3,0.2-1.9,0.6c-0.6,0.4-1.1,0.8-1.6,1.2c-0.3,0.1-0.6,0.3-0.9,0.6
		c-0.3,0.3-0.6,0.6-0.9,0.7c-1.3,1-2.4,1.9-3.4,2.9c-1,0.9-2,2.1-2.9,3.4c-0.2,0.3-0.4,0.6-0.6,1c-0.3,0.4-0.5,0.7-0.7,0.8
		c-0.2,0.3-0.3,0.6-0.5,0.9c-0.2,0.3-0.3,0.6-0.4,0.9c-0.1,0.3-0.3,0.6-0.4,0.9c-0.2,0.3-0.3,0.6-0.5,0.8c0,0.4-0.1,0.8-0.1,1.1
		c-0.1,0.2-0.1,0.4-0.1,0.5s-0.1,0.2-0.1,0.3s0,0.2-0.1,0.2l0.2,0.4c0.4-0.2,0.9-0.4,1.4-0.6c0.5-0.3,0.8-0.5,0.8-0.9l0.3-0.1h0.1
		v-0.1c0.1-0.1,0.1-0.1,0.1-0.1h0.1l0.1-0.2v-0.1l0.2,0.2l0.6-0.6c0-0.2,0.1-0.3,0.3-0.3c0.5-0.4,1-1,1.4-1.6
		c0.2-0.3,0.5-0.6,0.7-0.9c0.2-0.3,0.5-0.6,0.7-0.8h0.1l0.6-0.8l0.2-0.2l0.7-0.9h0.1c0.1-0.2,0.2-0.4,0.3-0.6l0.1,0.1l0.4-0.5H47
		c0.2-0.3,0.3-0.5,0.5-0.8s0.4-0.5,0.6-0.7c0.2-0.3,0.4-0.5,0.6-0.8c0.2-0.3,0.3-0.5,0.5-0.8c0-0.2,0.1-0.4,0.2-0.6s0.4-0.3,0.6-0.3
		l0.3,0.1c0.1-0.2,0.2-0.6,0.2-1.1c0.2,0,0.3,0,0.4-0.1l0.3-0.1v0.1l0.4,0.1c0.1-0.1,0.2-0.1,0.3-0.1c0.3,0,0.5,0.1,0.8,0.2
		s0.5,0.3,0.7,0.5c0,0.1,0,0.1,0.1,0.1c0,0,0-0.1,0.1-0.1h0.2c0.4,0,0.6,0.2,0.6,0.5v0.1c-0.2,0.2-0.3,0.4-0.5,0.7
		c-0.1,0.2-0.3,0.4-0.4,0.7c-0.3,0.4-0.6,0.8-1.1,1.2v0.1l-0.8,1.1l0.1,0.2l-1.6,2L50,30.7c-0.1,0.2-0.1,0.4-0.2,0.6
		c-0.1,0.2-0.2,0.4-0.3,0.6L49.1,32c0.1,0.1,0.1,0.1,0.1,0.2c0,0.1,0,0.2,0.1,0.2c-0.3,0.5-0.5,1-0.7,1.4s-0.2,1-0.2,1.5
		c-0.1,0.1-0.2,0.1-0.2,0.3s0,0.2,0,0.3c0,0.2,0,0.3,0,0.5c0,0.1,0,0.3,0.1,0.5c0,0.2,0.1,0.3,0.1,0.5s0.1,0.3,0.1,0.5l0.5-0.3h0.1
		l0.1-0.1l0.1-0.1c0-0.1,0.1-0.2,0.1-0.3l0.1,0.4l0.4-0.2v0.2H50c0.1,0,0.2-0.1,0.3-0.3c0.1-0.1,0.1-0.1,0.2-0.2
		c0.1-0.1,0.2-0.1,0.3-0.1l0.1-0.1v-0.1c0-0.2,0.1-0.3,0.3-0.4c0.1,0,0.2-0.1,0.3-0.1c0.1-0.1,0.2-0.1,0.2-0.1h0.1l1.3-1.2h0.1
		c0.1-0.1,0.2-0.2,0.4-0.4s0.4-0.3,0.6-0.4v-0.3l0.3-0.1h0.1l1.1-1.5c0,0,0,0.1,0.1,0.1s0.1,0,0.1,0.1c0,0,0.1-0.1,0.2-0.2
		c0.1-0.1,0.1-0.2,0.1-0.3l0.1-0.1c0.1-0.1,0.1-0.1,0.3-0.1c0.1-0.1,0.2-0.1,0.2-0.1c0.1,0,0.1,0,0.1-0.1c-0.4,0.7-0.7,1.3-0.9,1.8
		c-0.3,0.5-0.5,1.1-0.8,1.6s-0.5,1.1-0.9,1.6s-0.7,1-1.2,1.5l-0.2-0.2l0.3-0.4l-0.1-0.3L53,37.2v0l-0.3,0.3c0,0.4-0.2,0.7-0.4,0.9
		h-0.2L52,38.3v0.2l-0.3,0.3l-0.1-0.1l-0.6,1v-0.1l-0.1,0.1c-0.1,0-0.1,0.1-0.2,0.1c-0.1,0-0.1,0.1-0.2,0.1
		c-0.2,0.1-0.3,0.2-0.3,0.3L48.8,40.3L48.8,40.3z M53.6,36.5c0-0.1,0-0.2,0.1-0.2l0.1-0.1l-0.2,0.1h0.1L53.6,36.5L53.6,36.5
		L53.6,36.5L53.6,36.5z" />
                        <path id="cipaint1" d="M57,39.1c-0.5,0-0.8-0.2-1.1-0.5s-0.4-0.7-0.5-1.2s-0.1-0.9-0.1-1.2c0-1.2,0.2-2.5,0.7-3.8
		c0.4-1.3,1-2.4,1.6-3.5c0.2-0.3,0.3-0.5,0.5-0.8l0.5-0.7c0.1-0.2,0.2-0.3,0.3-0.6c0.1-0.2,0.2-0.4,0.3-0.5c0.2-0.3,0.3-0.7,0.6-1
		s0.4-0.7,0.7-1.1c0.5-0.7,0.7-1.5,0.7-2.3l0.1,0.1h0.1c0.1,0,0.2,0,0.3-0.1h0.2c0.3,0,0.7,0.1,1.1,0.4s0.8,0.6,1.2,1
		c0.4,0.4,0.5,0.8,0.5,1.1c0,0.2-0.1,0.5-0.4,0.8c-0.2,0.3-0.5,0.6-0.8,0.9l-0.4,0.4L62.7,27c-0.2,0.3-0.5,0.5-0.7,0.8
		s-0.4,0.6-0.6,1c-0.1,0.1-0.1,0.1-0.1,0.2s0,0.2-0.1,0.2c0,0.2-0.2,0.4-0.5,0.5v-0.2c-0.8,0.8-1.5,1.8-2,3s-0.8,2.4-0.8,3.5v0.4
		c0,0.2,0,0.4,0.1,0.4c0,0.1,0.1,0.2,0.2,0.2h0.1c0,0,0,0.1,0.1,0.1c0,0,0,0.1,0.1,0.1l0,0c0,0.1-0.1,0.1-0.1,0.2L58,37.5l-0.1,0.1
		c0,0,0.1,0.1,0.3,0.1c0.2,0.1,0.4,0.1,0.4,0.1c0.1,0,0.3-0.1,0.6-0.4c0.3-0.2,0.6-0.5,0.9-0.8s0.6-0.5,0.8-0.6
		c0.2-0.2,0.4-0.3,0.6-0.4c0.3-0.3,0.5-0.6,0.8-1c0.3-0.3,0.5-0.6,0.7-1c0.3-0.3,0.5-0.6,0.7-0.9c0.2-0.3,0.5-0.6,0.7-0.9v-0.1
		c0-0.1,0.1-0.2,0.3-0.5c0.2-0.3,0.4-0.5,0.6-0.8s0.3-0.4,0.4-0.4c0,0,0.1,0.1,0.1,0.2s0,0.2-0.1,0.2c-0.2,0.4-0.5,1-0.9,1.8
		s-0.8,1.4-1.2,2.1s-0.8,1-1.1,1.1c-0.1,0.2-0.2,0.4-0.3,0.6c-0.1,0.2-0.3,0.4-0.5,0.4c-0.1,0.2-0.2,0.2-0.4,0.2
		C61.2,36.9,61.1,37,61,37c-0.1,0.1-0.1,0.1-0.2,0.2s-0.1,0.1-0.1,0.1c0,0.1-0.1,0.2-0.3,0.4c-0.2,0.1-0.4,0.2-0.5,0.3
		c-0.2,0.2-0.4,0.3-0.6,0.5c-0.3,0.2-0.5,0.3-0.8,0.3h-0.1l-0.1-0.1h-0.1l-0.1-0.1c-0.1,0-0.3,0-0.5,0.1
		C57.2,39.1,57.1,39.1,57,39.1L57,39.1z M66.4,17c-0.5,0-0.9-0.2-1.1-0.7s-0.4-0.9-0.4-1.3c1-0.7,1.9-1.4,2.9-2.1c1-0.7,2-1.2,3-1.6
		l0.6-0.4l0.1,0.2c0,0.2-0.2,0.5-0.6,0.8c-0.4,0.3-0.7,0.5-0.9,0.6c0,0.1-0.2,0.3-0.5,0.8s-0.6,1-1,1.5c-0.4,0.6-0.8,1.1-1.2,1.5
		C66.8,16.8,66.6,17,66.4,17z" />
                        <path id="cnpaint1" d="M62.8,39.7L62.8,39.7c-0.1-0.1-0.2-0.2-0.3-0.2l-0.1-0.1c-0.1,0-0.1-0.1-0.2-0.1h0.3c0.1,0,0.1-0.1,0.2-0.1
		s0.1-0.1,0.2-0.1c0.2-0.1,0.3-0.2,0.4-0.2c0.2-0.1,0.3-0.3,0.5-0.7s0.4-0.8,0.5-1.2s0.3-0.8,0.4-1l0.1-0.6c0-0.2,0-0.3,0.1-0.5
		c0.1-0.4,0.2-0.7,0.3-1c0.1-0.3,0.3-0.7,0.5-1l0.1-0.4c0-0.3,0-0.4,0.1-0.5c0,0-0.1,0-0.1-0.1h-0.1c0,0-0.1,0-0.1-0.1
		c0,0,0-0.1,0.1-0.1v-0.1l0.4-0.7c0.1-0.3,0.3-0.4,0.6-0.5c0.1-0.3,0.3-0.6,0.6-1.1c0.3-0.5,0.4-0.8,0.4-1c0-0.3-0.1-0.5-0.1-0.7
		c-0.1-0.2-0.2-0.4-0.2-0.7c0-0.1,0-0.1,0-0.2s0-0.1,0.1-0.2c0-0.1,0.1-0.1,0.1-0.2s0-0.2,0.1-0.2c0-0.1,0.1-0.2,0.1-0.5
		c0.1-0.3,0.1-0.6,0.2-0.9s0.1-0.5,0.1-0.6c0.1-0.7,0.3-1.2,0.5-1.5l-0.1-0.1c0.2-0.2,0.3-0.4,0.5-0.7c0.1-0.3,0.2-0.5,0.2-0.8
		c0-0.1,0-0.2-0.1-0.3c-0.1,0-0.1,0-0.1-0.1c0-0.2,0.1-0.3,0.2-0.4s0.2-0.2,0.3-0.2v-0.1c-0.2-0.1-0.3-0.1-0.4-0.2s-0.2-0.1-0.3-0.1
		v-0.2l0,0c0,0.1,0,0.1-0.1,0.1c0,0,0,0,0,0.1l-0.1-0.1c-0.1,0-0.1,0-0.2-0.1c-0.1,0-0.1,0-0.2-0.1c-0.1,0-0.1,0-0.2,0
		s-0.1,0-0.2-0.1c-0.1,0-0.2-0.1-0.2-0.2s0.1-0.1,0.2-0.2c0.2-0.1,0.3-0.1,0.3-0.1c0.5,0.1,1.1,0.2,1.8,0.4s1.3,0.3,2,0.6
		c0.6,0.2,1,0.5,1.2,0.8c0.1,0.1,0.1,0.2,0.1,0.3c0,0.1,0,0.2,0,0.3c0,0.3-0.1,0.6-0.2,1l-0.4,1c-0.1,0.1-0.1,0.3-0.1,0.4
		s-0.1,0.3-0.3,0.6c-0.2,0.2-0.4,0.4-0.6,0.5l0.1,0.1c0,0.1,0,0.1,0.1,0.1s0.2,0.1,0.1,0.1C72,25,72,25.1,72,25.2
		c0,0.1,0,0.2-0.1,0.3c-0.1,0.1-0.1,0.2-0.3,0.2l-0.1,0.1c-0.1,0.1-0.1,0.2-0.1,0.3v0.1h0.1c0,0.3-0.1,0.5-0.3,0.6
		c-0.1,0.3-0.2,0.6-0.3,0.9c-0.2,0.4-0.4,0.7-0.5,1v0.1c0,0.1,0,0.1-0.1,0.1L70.2,29c0,0.1-0.1,0.2-0.2,0.3c0,0.1-0.1,0.1-0.1,0.2
		c-0.1,0.1-0.1,0.1-0.1,0.2c-0.1,0.1-0.1,0.2-0.2,0.3c-0.1,0.1-0.1,0.2,0,0.4h-0.1v0.1c0,0.1,0,0.1-0.1,0.1
		c-0.1,0.1-0.2,0.3-0.3,0.4c-0.1,0.1-0.3,0.2-0.5,0.3L67.1,35c0,0.1-0.1,0.2-0.3,0.3l0.3,0.3h-0.4l0.2,0.2h-0.2l-0.1,0.1h-0.1
		c0,0-0.1,0.1-0.2,0.1v0.3l0.1,0.1l-0.2,0.3l-0.1,0.1H66l-0.2,0.1c-0.1,0.1-0.1,0.1-0.1,0.2c0,0.2,0,0.3,0.1,0.3
		c0.1-0.1,0.3-0.4,0.7-0.7c0.3-0.4,0.6-0.7,0.9-1.2c0.3-0.4,0.6-0.8,0.8-1.2c0.2-0.4,0.3-0.6,0.3-0.7c0.2,0,0.3-0.2,0.4-0.5
		c0.1-0.1,0.2-0.2,0.2-0.3s0.1-0.1,0.2-0.2c0.6-0.5,1.2-1.1,1.7-1.7c0.5-0.6,1-1.3,1.5-1.9s1-1.3,1.5-1.9s1.2-1.3,1.9-1.9
		c0.5-0.4,1.2-0.9,1.9-1.5c0.7-0.6,1.4-1.1,2.1-1.5s1.3-0.6,1.9-0.6c0.4,0,0.6,0.2,0.6,0.6c0,0.2,0,0.3-0.1,0.6
		c0,0.2-0.1,0.4-0.1,0.6c-0.2,0.5-0.4,1.1-0.7,1.7c-0.3,0.6-0.5,1.1-0.8,1.7c-0.2,0.5-0.4,0.9-0.5,1.3c-0.2,0.5-0.4,1-0.6,1.4
		c-0.1,0.1-0.1,0.2-0.2,0.2l-0.1,0.1c0,0,0,0.1,0,0.2s0,0.2-0.1,0.3l0.3-0.1c-0.2,0.5-0.4,1-0.6,1.4c-0.1,0.4-0.2,0.9-0.2,1.4
		c0,0.1,0,0.2-0.1,0.2v0.1c-0.2,0-0.3,0-0.3-0.1c-0.1,0-0.1,0-0.2,0.1c0,0-0.1,0.1-0.1,0.2l-0.1,0.1c0,0.1,0,0.1-0.1,0.1l0.3-0.1
		c0,0.3-0.1,0.5-0.1,0.8c0,0.1-0.1,0.2-0.1,0.3s0,0.2,0,0.3c0,0.4,0.1,0.8,0.3,1.1c0.2,0.3,0.6,0.4,1,0.4c0.1,0,0.2,0,0.2-0.1H80
		c0.1-0.1,0.3-0.1,0.5-0.3c0.2-0.1,0.5-0.2,0.7-0.4c0.3-0.2,0.5-0.3,0.7-0.5s0.4-0.5,0.6-0.9c-0.1,0.6-0.2,0.9-0.3,1.1
		s-0.3,0.4-0.8,0.8c-0.5,0.4-1,0.7-1.7,1.2C79,37.8,78.4,38,77.8,38c-0.5,0-1-0.2-1.4-0.5s-0.7-0.7-0.9-1.1l-0.2-0.2
		c-0.1-0.1-0.2-0.3-0.2-0.4c0-0.1,0-0.1,0.1-0.1v-0.1l0.3-0.1l0.1-0.1c0-0.1-0.1-0.1-0.1-0.2c0-0.1,0-0.1,0-0.2v-0.3
		c0-0.6,0.1-1.3,0.2-1.9c0.1-0.6,0.3-1.3,0.4-1.9h0.1c0.1-0.5,0.2-1,0.4-1.3l0.1-0.1h-0.2l0.1-0.2l-0.1-0.4c0.1-0.1,0.2-0.4,0.4-0.9
		c0.2-0.5,0.3-0.9,0.5-1.4c0.2-0.4,0.3-0.7,0.3-0.8c-0.1,0-0.2,0.1-0.3,0.1c-0.9,0.6-1.6,1.4-2.3,2.3c-0.3,0.5-0.7,0.9-1,1.3
		s-0.7,0.8-1,1.2c-0.7,0.8-1.5,1.6-2.3,2.4c-0.4,0.4-0.8,0.8-1.2,1.2c-0.4,0.4-0.7,0.8-1.1,1.3L67,37.2c-0.5,0.6-1,1.2-1.5,1.8
		c-0.4,0.4-0.8,0.6-1.2,0.6c-0.2,0-0.4,0-0.6,0s-0.4,0.1-0.7,0.1L62.8,39.7L62.8,39.7z M68.9,30.5c0.1-0.2,0.2-0.2,0.3-0.2L69,30.1
		c0,0.1-0.1,0.1-0.1,0.2C68.9,30.4,68.8,30.4,68.9,30.5L68.9,30.5L68.9,30.5z" />
                        <path id="ctpaint" d="M84.1,44.6c-0.2,0-0.5-0.1-0.7-0.1c-0.3-0.1-0.5-0.2-0.7-0.4s-0.4-0.5-0.7-1c-0.3-0.5-0.5-0.9-0.5-1.1
		c0-0.6,0-1.2,0.1-1.8s0.2-1.2,0.3-1.8c0.2-0.2,0.3-0.4,0.3-0.6c0-0.2,0.1-0.4,0.1-0.7c0.3-0.3,0.4-0.6,0.4-1s0.2-0.6,0.6-0.6
		l0.1-0.1c0,0,0-0.1-0.1-0.2c-0.1-0.2-0.1-0.3-0.1-0.4c0-0.1,0-0.2,0.1-0.4c0-0.1,0.1-0.1,0.1-0.2c0-0.1,0.1-0.1,0.1-0.2
		c0,0,0.1-0.1,0.1-0.3c0.1-0.4,0.2-0.7,0.3-0.9c0.1-0.3,0.3-0.6,0.5-0.8c0.2-0.1,0.3-0.1,0.4,0s0.2,0.2,0.1,0.4
		c0,0.2-0.1,0.4-0.1,0.6h0.4c-0.1,0.6-0.3,1.2-0.4,1.8c-0.2,0.6-0.3,1.2-0.5,1.8c-0.4,1.2-0.6,2.4-0.6,3.6c0,1.1,0.2,2.2,0.7,3.1
		l0.7-0.4l0.2-0.4V43l0.1,0.2c0.1-0.2,0.2-0.3,0.3-0.4c0.1-0.1,0.3-0.2,0.6-0.2l0.1,0.3c0,0.1,0,0.2-0.1,0.2c-0.2,0.4-0.5,0.8-0.9,1
		C85,44.5,84.5,44.6,84.1,44.6L84.1,44.6z M85.6,31.7c-0.3,0.1-0.5,0.1-0.6-0.1s-0.2-0.3,0-0.5s0.3-0.3,0.3-0.4
		c0-0.1,0.1-0.3,0.1-0.4v-0.4c0-0.2,0-0.4,0.1-0.4l0.3-0.3c0-0.1,0.1-0.1,0.3-0.2l0.2-0.7c-0.2-0.3-0.2-0.5,0.1-0.8l0.1-0.1v-0.1
		l0.1-0.1l0.3-0.5l0.1-0.1h0.1c-0.1-0.2,0-0.3,0.1-0.5s0.2-0.3,0.3-0.5s0.3-0.3,0.4-0.5c0.3-0.3,0.5-0.7,0.5-1
		c0.1-0.3,0.2-0.5,0.4-0.7c0,0-0.1,0-0.1-0.1c0,0,0-0.1-0.1-0.1c0,0,0-0.1,0.1-0.1v0.1c0.1-0.1,0.2-0.2,0.3-0.5
		c0.2-0.3,0.3-0.6,0.5-0.8c0.1-0.1,0.1-0.2,0.2-0.3c0.1-0.1,0.1-0.2,0.2-0.3l0.2-0.4l-1.3-0.4c-0.6-0.2-1.2-0.5-1.7-0.9
		s-0.7-1-0.7-1.8c0-0.3,0.1-0.7,0.3-0.9c0.2-0.3,0.4-0.5,0.7-0.7c0.1-0.1,0.2-0.2,0.2-0.2c0.3-0.3,0.5-0.4,0.8-0.3s0.3,0.3,0,0.6
		l-0.3,0.4c-0.1,0.2-0.3,0.4-0.4,0.6s-0.2,0.4-0.2,0.7c0,0.3,0.2,0.6,0.7,0.8c0.5,0.2,1,0.4,1.5,0.6c0.6,0.1,1,0.2,1.2,0.2
		c1.3-1.7,2.6-3.4,3.9-5.1c1.3-1.7,2.6-3.4,3.9-5.1c0.1-0.1,0.2-0.3,0.2-0.7l1.8-1.9c0.1,0.1,0.3,0.1,0.4,0.1s0.2,0.1,0.4,0.1
		c0.1,0,0.3,0.1,0.4,0.1s0.2,0.1,0.4,0.1c0.3,0.1,0.5,0.1,0.7,0.2s0.4,0.3,0.6,0.5c0.4,0.3,0.5,0.8,0.5,1.3s-0.2,1-0.7,1.4
		s-0.9,0.8-1.3,1.1c-0.1,0.1-0.3,0.2-0.4,0.3s-0.2,0.2-0.4,0.3c-0.3,0.3-0.5,0.4-0.9,0.4v-0.5h0.1c0.1-0.2,0.3-0.3,0.4-0.5
		c0.1-0.2,0.3-0.4,0.4-0.5c0.3-0.3,0.6-0.7,0.7-1.1c-0.1,0.1-0.3,0.2-0.4,0.3s-0.2,0.2-0.4,0.3c-0.1,0.1-0.3,0.2-0.4,0.3l-0.4,0.4
		c-0.2,0.2-0.4,0.5-0.8,0.9s-0.7,0.8-1.2,1.3c-0.4,0.4-0.7,0.8-1.1,1.2s-0.6,0.6-0.8,0.8l-0.1,0.1l0.2,0.2L96,16.1l0.1,0.1
		c0,0.3-0.1,0.4-0.2,0.5c-0.2,0.1-0.3,0.1-0.5,0.1c-0.1,0.2-0.2,0.4-0.3,0.5c-0.1,0.1-0.3,0.3-0.6,0.4l0.1,0.1c0,0,0,0.1,0.1,0.1
		c0,0,0,0.1,0.1,0.1h-0.1v0.1h-0.2c0,0-0.1,0.1-0.1,0.2l0.1,0.2c0,0,0.1,0.1,0.1,0.2c0.5-0.5,0.9-1,1.3-1.4c0.4-0.5,0.9-1,1.3-1.5
		l2.6-2.9h0.1c0,0,0,0.1,0.1,0.1c0,0,0,0.1,0.1,0.1c0,0.2-0.2,0.6-0.5,1.1c-0.4,0.5-0.8,1-1.3,1.6c-0.9,0.9-1.7,1.9-2.5,2.8
		c-0.1,0.1-0.2,0.2-0.3,0.4c-0.1,0.1-0.2,0.2-0.3,0.4h0.4c0.4,0,0.8,0,1.1-0.1c0.3-0.1,0.7-0.1,1-0.2c0.2,0,0.3-0.1,0.5-0.1
		c0.2-0.1,0.3-0.1,0.5-0.1s0.3-0.1,0.5-0.1s0.3-0.1,0.5-0.1c0.4-0.1,0.9-0.2,1.5-0.3c0.6-0.1,1.1-0.3,1.4-0.6
		c0.8-0.3,1.7-0.4,2.5-0.6c0.1,0,0.1-0.1,0.2-0.1s0.1,0,0.1-0.1c0.1-0.1,0.1-0.1,0.2-0.1l0.4-0.1l0.4-0.1v-0.1
		c0.5-0.1,0.9-0.2,1.3-0.4c0.4-0.2,0.9-0.4,1.3-0.6s0.8-0.3,1.2-0.5c0.4-0.1,0.8-0.2,1.2-0.2l0.1-0.3c0.4-0.4,0.8-0.6,1.3-0.6v0.2
		c0.1,0.1,0.2,0.3,0.2,0.4s0,0.1-0.1,0.1c-0.3,0.3-0.6,0.4-1,0.5c0,0.1,0.1,0.1,0.1,0.1v0.1c0,0.1-0.1,0.1-0.1,0.1
		c-0.1,0.1-0.3,0.1-0.5,0.1s-0.2-0.1-0.2-0.3l0.1-0.1c-0.2,0-0.3,0-0.4-0.1c-0.2,0.6-0.6,0.9-1.1,0.9l-0.1,0.4l-0.5-0.1
		c-0.2,0.2-0.3,0.2-0.5,0.2c-0.1,0.2-0.1,0.3-0.2,0.4s-0.2,0.2-0.4,0.2l0.1-0.1l-0.1-0.1c-0.2,0.3-0.5,0.5-0.8,0.7s-0.7,0.3-1.1,0.3
		l-0.1-0.3H106c0,0,0.1,0.1,0.1,0.2s-0.1,0.2-0.2,0.3c-0.1,0.1-0.2,0.1-0.3,0.1c0,0-0.1,0-0.1-0.1h-0.1c-0.2,0.1-0.3,0.2-0.4,0.2
		s-0.1,0-0.1-0.1h-0.1c-0.2,0.1-0.3,0.2-0.4,0.2s-0.3,0-0.6,0.1c-0.4,0.1-0.9,0.2-1.3,0.3c-0.5,0.2-0.9,0.3-1.3,0.5
		c0,0-0.1,0.1-0.2,0.1s-0.1,0-0.1,0.1c-1,0.5-2,0.8-3,0.8c-1.1,0.1-2.1,0.2-3.2,0.4c-0.1,0-0.2,0.1-0.3,0.1c-0.1,0-0.2,0-0.3,0
		s-0.2,0-0.3,0c-0.1,0-0.2,0-0.3,0.1c-0.2,0-0.4,0.2-0.7,0.5c-0.3,0.3-0.6,0.6-0.8,0.9s-0.5,0.6-0.6,0.8c-0.1,0.1-0.3,0.3-0.4,0.4
		c-0.2,0.1-0.3,0.3-0.5,0.4c-0.3,0.2-0.6,0.5-0.9,0.9L89.4,25c-0.1,0.1-0.2,0.2-0.2,0.3c-0.2,0.3-0.4,0.4-0.6,0.5
		c0.1,0.2,0,0.3-0.1,0.3l-0.2,0.1c-0.3,0.3-0.4,0.6-0.4,1c-0.1,0.1-0.2,0.2-0.2,0.4l-0.1,0.2L87.5,28c-0.2,0.2-0.3,0.5-0.5,0.8
		c-0.1,0.3-0.3,0.6-0.5,1s-0.3,0.7-0.5,1C85.9,31.1,85.7,31.4,85.6,31.7L85.6,31.7z" />
                        <path id="cipaint" d="M95.1,39.1c-0.5,0-0.8-0.2-1.1-0.5c-0.3-0.3-0.4-0.7-0.5-1.2s-0.1-0.9-0.1-1.2c0-1.2,0.2-2.5,0.7-3.8
		c0.4-1.3,1-2.4,1.6-3.5c0.2-0.3,0.3-0.5,0.5-0.8l0.5-0.7c0.1-0.2,0.2-0.3,0.3-0.6c0.1-0.2,0.2-0.4,0.3-0.5c0.2-0.3,0.3-0.7,0.6-1
		c0.2-0.3,0.4-0.7,0.7-1.1c0.5-0.7,0.7-1.5,0.7-2.3l0.1,0.1h0.1c0.1,0,0.2,0,0.3-0.1h0.2c0.3,0,0.7,0.1,1.1,0.4s0.8,0.6,1.2,1
		c0.4,0.4,0.5,0.8,0.5,1.1c0,0.2-0.1,0.5-0.4,0.8c-0.2,0.3-0.5,0.6-0.8,0.9l-0.4,0.4l-0.4,0.5c-0.2,0.3-0.5,0.5-0.7,0.8
		s-0.4,0.6-0.6,1c-0.1,0.1-0.1,0.1-0.1,0.2s0,0.2-0.1,0.2c0,0.2-0.2,0.4-0.5,0.5v-0.2c-0.8,0.8-1.5,1.8-2,3S96,34.9,96,36v0.4
		c0,0.2,0,0.4,0.1,0.4c0,0.1,0.1,0.2,0.2,0.2h0.1c0,0,0,0.1,0.1,0.1c0,0,0,0.1,0.1,0.1l0,0c0,0.1-0.1,0.1-0.1,0.2l-0.1,0.1l-0.1,0.1
		c0,0,0.1,0.1,0.3,0.1c0.2,0.1,0.4,0.1,0.4,0.1c0.1,0,0.3-0.1,0.6-0.4c0.3-0.2,0.6-0.5,0.9-0.8s0.6-0.5,0.8-0.6
		c0.2-0.2,0.4-0.3,0.6-0.4c0.3-0.3,0.5-0.6,0.8-1c0.3-0.3,0.5-0.6,0.7-1c0.3-0.3,0.5-0.6,0.7-0.9c0.2-0.3,0.5-0.6,0.7-0.9v-0.1
		c0-0.1,0.1-0.2,0.3-0.5c0.2-0.3,0.4-0.5,0.6-0.8s0.3-0.4,0.4-0.4c0,0,0.1,0.1,0.1,0.2s0,0.2-0.1,0.2c-0.2,0.4-0.5,1-0.9,1.8
		s-0.8,1.4-1.2,2.1s-0.8,1-1.1,1.1c-0.1,0.2-0.2,0.4-0.3,0.6c-0.1,0.2-0.3,0.4-0.5,0.4c-0.1,0.2-0.2,0.2-0.4,0.2
		c-0.1,0.3-0.2,0.4-0.3,0.4c-0.1,0.1-0.1,0.1-0.2,0.2s-0.1,0.1-0.1,0.1c0,0.1-0.1,0.2-0.3,0.4c-0.2,0.1-0.4,0.2-0.5,0.3
		c-0.2,0.2-0.4,0.3-0.6,0.5c-0.3,0.2-0.5,0.3-0.8,0.3h-0.1l-0.1-0.1h-0.1l-0.1-0.1c-0.1,0-0.3,0-0.5,0.1
		C95.4,39.1,95.2,39.1,95.1,39.1L95.1,39.1z M104.6,17c-0.5,0-0.9-0.2-1.1-0.7c-0.3-0.4-0.4-0.9-0.4-1.3c1-0.7,1.9-1.4,2.9-2.1
		c1-0.7,2-1.2,3-1.6l0.6-0.4l0.1,0.2c0,0.2-0.2,0.5-0.6,0.8c-0.4,0.3-0.7,0.5-0.9,0.6c0,0.1-0.2,0.3-0.5,0.8s-0.6,1-1,1.5
		s-0.8,1.1-1.2,1.5C105,16.8,104.7,17,104.6,17L104.6,17z" />
                        <path id="cnpaint" d="M101,39.7L101,39.7c-0.1-0.1-0.2-0.2-0.3-0.2l-0.1-0.1c-0.1,0-0.1-0.1-0.2-0.1h0.3c0.1,0,0.1-0.1,0.2-0.1
		s0.1-0.1,0.2-0.1c0.2-0.1,0.3-0.2,0.4-0.2c0.2-0.1,0.3-0.3,0.5-0.7s0.4-0.8,0.5-1.2s0.3-0.8,0.4-1l0.1-0.6c0-0.2,0-0.3,0.1-0.5
		c0.1-0.4,0.2-0.7,0.3-1c0.1-0.3,0.3-0.7,0.5-1l0.1-0.4c0-0.3,0-0.4,0.1-0.5c0,0-0.1,0-0.1-0.1h0c0,0-0.1,0-0.1-0.1
		c0,0,0-0.1,0.1-0.1v-0.1l0.4-0.7c0.1-0.3,0.3-0.4,0.6-0.5c0.1-0.3,0.3-0.6,0.6-1.1c0.3-0.5,0.4-0.8,0.4-1c0-0.3-0.1-0.5-0.1-0.7
		c-0.1-0.2-0.2-0.4-0.2-0.7c0-0.1,0-0.1,0-0.2s0-0.1,0.1-0.2c0-0.1,0.1-0.1,0.1-0.2s0-0.2,0.1-0.2c0-0.1,0.1-0.2,0.1-0.5
		c0.1-0.3,0.1-0.6,0.2-0.9s0.1-0.5,0.1-0.6c0.1-0.7,0.3-1.2,0.5-1.5l-0.1-0.1c0.2-0.2,0.3-0.4,0.5-0.7c0.1-0.3,0.2-0.5,0.2-0.8
		c0-0.1,0-0.2-0.1-0.3c-0.1-0.1-0.1-0.1-0.1-0.2c0-0.2,0.1-0.3,0.2-0.4s0.2-0.2,0.3-0.2v-0.1c-0.2-0.1-0.3-0.1-0.4-0.2
		s-0.2-0.1-0.3-0.1v-0.2l0,0c0,0.1,0,0.1-0.1,0.1c0,0,0,0,0,0.1l-0.1-0.1c-0.1,0-0.1,0-0.2-0.1c-0.1,0-0.1,0-0.2-0.1
		c-0.1,0-0.1,0-0.2,0s-0.1,0-0.2-0.1c-0.1,0-0.2-0.1-0.2-0.2s0.1-0.1,0.2-0.2c0.2-0.1,0.3-0.1,0.3-0.1c0.5,0.1,1.1,0.2,1.8,0.4
		s1.3,0.3,2,0.6c0.6,0.2,1,0.5,1.2,0.8c0.1,0.1,0.1,0.2,0.1,0.3c0,0.1,0,0.2,0,0.3c0,0.3-0.1,0.6-0.2,1l-0.4,1
		c-0.1,0.1-0.1,0.3-0.1,0.4s-0.1,0.3-0.3,0.6c-0.2,0.2-0.4,0.4-0.6,0.5l0.1,0.1c0,0.1,0,0.1,0.1,0.1s0.2,0.1,0.1,0.1
		c0.1,0.1,0.1,0.2,0.1,0.3c0,0.1,0,0.2-0.1,0.3c-0.1,0.1-0.1,0.2-0.3,0.2l-0.1,0.1c-0.1,0.1-0.1,0.2-0.1,0.3v0.1h0.1
		c0,0.3-0.1,0.5-0.3,0.6c-0.1,0.3-0.2,0.6-0.3,0.9c-0.2,0.4-0.4,0.7-0.5,1v0.1c0,0.1,0,0.1-0.1,0.1l-0.1,0.1c0,0.1-0.1,0.2-0.2,0.3
		c0,0.1-0.1,0.1-0.1,0.2s-0.1,0.1-0.1,0.2c-0.1,0.1-0.1,0.2-0.2,0.3c-0.1,0.1-0.1,0.2,0,0.4h-0.1v0.1c0,0.1,0,0.1-0.1,0.1
		c-0.1,0.1-0.2,0.3-0.3,0.4c-0.1,0.1-0.3,0.2-0.5,0.3l-1.5,3.7c0,0.1-0.1,0.2-0.3,0.3l0.3,0.3H105l0.2,0.2H105l-0.1,0.1h-0.1
		c0,0-0.1,0.1-0.2,0.1v0.3l0.1,0.1l-0.2,0.3l-0.1,0.1h-0.1l-0.2,0.1c-0.1,0.1-0.1,0.1-0.1,0.2c0,0.2,0,0.3,0.1,0.3
		c0.1-0.1,0.3-0.4,0.7-0.7c0.3-0.4,0.6-0.7,0.9-1.2c0.3-0.4,0.6-0.8,0.8-1.2c0.2-0.4,0.3-0.6,0.3-0.7c0.2,0,0.3-0.2,0.4-0.5
		c0.1-0.1,0.2-0.2,0.2-0.3s0.1-0.1,0.2-0.2c0.6-0.5,1.2-1.1,1.7-1.7c0.5-0.6,1-1.3,1.5-1.9s1-1.3,1.5-1.9s1.2-1.3,1.9-1.9
		c0.5-0.4,1.2-0.9,1.9-1.5c0.7-0.6,1.4-1.1,2.1-1.5s1.3-0.6,1.9-0.6c0.4,0,0.6,0.2,0.6,0.6c0,0.2,0,0.3-0.1,0.6
		c0,0.2-0.1,0.4-0.1,0.6c-0.2,0.5-0.4,1.1-0.7,1.7c-0.3,0.6-0.5,1.1-0.8,1.7c-0.2,0.5-0.4,0.9-0.5,1.3c-0.2,0.5-0.4,1-0.6,1.4
		c-0.1,0.1-0.1,0.2-0.2,0.2l-0.1,0.1c0,0,0,0.1,0,0.2s0,0.2-0.1,0.3l0.3-0.1c-0.2,0.5-0.4,1-0.6,1.4c-0.1,0.4-0.2,0.9-0.2,1.4
		c0,0.1,0,0.2-0.1,0.2v0.1c-0.2,0-0.3,0-0.3-0.1c-0.1,0-0.1,0-0.2,0.1c0,0-0.1,0.1-0.1,0.2l-0.1,0.1c0,0.1,0,0.1-0.1,0.1l0.3-0.1
		c0,0.3-0.1,0.5-0.1,0.8c0,0.1-0.1,0.2-0.1,0.3s0,0.2,0,0.3c0,0.4,0.1,0.8,0.3,1.1c0.2,0.3,0.6,0.4,1,0.4c0.1,0,0.2,0,0.2-0.1h0.1
		c0.1-0.1,0.3-0.1,0.5-0.3c0.2-0.1,0.5-0.2,0.7-0.4c0.3-0.2,0.5-0.3,0.7-0.5s0.4-0.5,0.6-0.9c-0.1,0.6-0.2,0.9-0.3,1.1
		s-0.3,0.4-0.8,0.8c-0.5,0.4-1,0.7-1.7,1.2c-0.7,0.4-1.3,0.6-1.9,0.6c-0.5,0-1-0.2-1.4-0.5s-0.7-0.7-0.9-1.1l-0.2-0.2
		c-0.1-0.1-0.2-0.3-0.2-0.4c0-0.1,0-0.1,0.1-0.1v-0.1l0.3-0.1l0.1-0.1c0-0.1-0.1-0.1-0.1-0.2c0-0.1,0-0.1,0-0.2v-0.3
		c0-0.6,0.1-1.3,0.2-1.9c0.1-0.6,0.3-1.3,0.4-1.9h0.1c0.1-0.5,0.2-1,0.4-1.3l0.1-0.1h-0.2l0.1-0.2l-0.1-0.4c0.1-0.1,0.2-0.4,0.4-0.9
		c0.2-0.5,0.3-0.9,0.5-1.4c0.2-0.4,0.3-0.7,0.3-0.8c-0.1,0-0.2,0.1-0.3,0.1c-0.9,0.6-1.6,1.4-2.3,2.3c-0.3,0.5-0.7,0.9-1,1.3
		s-0.7,0.8-1,1.2c-0.7,0.8-1.5,1.6-2.3,2.4c-0.4,0.4-0.8,0.8-1.2,1.2c-0.4,0.4-0.7,0.8-1.1,1.3l-1.4,1.9c-0.5,0.6-1,1.2-1.5,1.8
		c-0.4,0.4-0.8,0.6-1.2,0.6c-0.2,0-0.4,0-0.6,0s-0.4,0.1-0.7,0.1L101,39.7L101,39.7z M107,30.5c0.1-0.2,0.2-0.2,0.3-0.2l-0.1-0.2
		c0,0.1-0.1,0.1-0.1,0.2C107.1,30.4,107,30.4,107,30.5L107,30.5L107,30.5z" />
                        <path id="cgpaint" d="M116.5,59.3c-0.1,0-0.1-0.1-0.2-0.1c-0.7-0.3-1.4-0.6-2-1.1c-0.6-0.4-0.9-1.1-0.9-2c0-0.4,0.1-0.9,0.2-1.4
		c0.1-0.2,0.2-0.4,0.2-0.7s0.1-0.4,0.1-0.7l0.2-0.1l0.1-0.8l0.4-0.8c0.1-0.3,0.3-0.6,0.5-1s0.4-0.8,0.6-1.2s0.4-0.6,0.6-0.8v-0.2
		l0.2,0.2c0.4-0.6,0.8-1.1,1.3-1.5s1-0.8,1.5-1.2c0-0.2,0.1-0.4,0.3-0.4l-0.1-0.2l0.3-0.1l3.1-2.6l0.1-0.1c0-0.1,0-0.2-0.1-0.3
		c0.1,0,0.2,0.1,0.3,0.3c0.1,0.2,0.1,0.2,0.1,0.1v-0.1l0.1-0.1l0.1-0.1h-0.1c0,0-0.1,0-0.1-0.1l0.1-0.2l0.1-0.1
		c0.1-0.1,0.2-0.1,0.2-0.1c0.1,0,0.1,0,0.1,0.1s0,0.1,0,0.1l0.4-0.6l0.1,0.2l0.2-0.2v-0.1c0.2,0,0.5-0.2,0.8-0.5
		c0.4-0.3,0.6-0.5,0.6-0.7h0.1l1.5-0.8l0.8-0.7h0.2v0.1c0.4-0.3,0.7-0.6,1.2-0.9c0.4-0.3,0.9-0.5,1.4-0.5v-0.1l0.2,0.1
		c0-0.1,0.1-0.2,0.1-0.3s0.1-0.3,0.1-0.4l0.1-0.9c0-0.1,0.1-0.3,0.1-0.7c0.1-0.4,0.2-0.7,0.2-0.7l0.2-0.2c0.1,0,0.1,0,0.1-0.1
		c0,0,0-0.1-0.1-0.1H132c-0.1-0.1-0.1-0.1-0.1-0.2c0-0.2,0.1-0.4,0.1-0.6c0.1-0.1,0.1-0.2,0.1-0.3s0-0.2,0.1-0.3h-0.1
		c-0.1,0-0.1-0.1-0.1-0.2c0-0.3,0.1-0.5,0.3-0.8s0.2-0.5,0.2-0.7c0-0.4,0.1-0.9,0.1-1.3c0-0.2,0.1-0.4,0.1-0.6s0-0.4,0-0.6
		c0-0.3,0-0.4-0.1-0.5c0,0.1-0.1,0.1-0.1,0.2h0.1c-0.3,0.6-0.7,1.3-1.2,2.1s-0.9,1.6-1.4,2.4s-0.9,1.5-1.3,2c-0.7,1-1.6,2-2.5,2.9
		s-1.9,1.6-3.1,2.2l-0.1-0.1c-0.1,0.1-0.3,0.2-0.5,0.2s-0.3,0.1-0.5,0.1c-0.7,0-1.3-0.3-1.6-0.9c-0.3-0.6-0.5-1.3-0.5-1.9
		c0-0.5,0-1.1,0.1-1.7c0.1-0.6,0.2-1.1,0.5-1.7l0.1-0.4c0,0,0.1-0.1,0.1-0.3c0.2-0.1,0.3-0.3,0.4-0.6s0.2-0.5,0.2-0.7
		c0.2-0.1,0.3-0.3,0.3-0.5l0.2-0.3c0.1-0.1,0.2-0.1,0.3-0.1c0-0.3,0-0.5,0.1-0.7s0.3-0.3,0.5-0.3v-0.2l0.2-0.3l-0.2-1
		c0.1-0.1,0.2-0.3,0.4-0.6s0.3-0.5,0.4-0.7c-0.1-0.1-0.1-0.2-0.1-0.3c0-0.3,0.2-0.6,0.6-1l0.2-0.2c0.2-0.2,0.3-0.5,0.3-0.7l0.4-0.1
		c0-0.2,0.2-0.3,0.4-0.3h0.1c0.1-0.3,0.3-0.6,0.4-0.7c0.1-0.2,0.2-0.3,0.4-0.4c0.1-0.1,0.2-0.2,0.2-0.2l0.2-0.1
		c0.2-0.2,0.4-0.3,0.5-0.4s0.2-0.3,0.4-0.6c0.1-0.1,0.1-0.2,0.2-0.3s0.1-0.2,0.2-0.3c0.5-0.4,1.1-0.8,1.9-1c0.8-0.2,1.5-0.3,2.2-0.3
		c0.6,0,1.3,0.1,2.1,0.3c0.8,0.2,1.4,0.6,1.7,1.2c0.4,0.6,0.7,1.3,1,1.9s0.5,1.3,0.5,2.1v0.2c0,0.1,0,0.2-0.1,0.2
		c0,0.1-0.1,0.2-0.1,0.3v0.5c0,0.1,0,0.2,0.1,0.3s0.1,0.2,0.1,0.3v-0.1c0,0.1-0.1,0.4-0.2,0.7c-0.2,0.4-0.3,0.7-0.5,1.1
		s-0.4,0.5-0.5,0.5s-0.2-0.1-0.2-0.1c0-0.1-0.1-0.2-0.1-0.2c0-0.2,0-0.3,0-0.5s0-0.3,0.1-0.5c0-0.2,0.1-0.3,0.1-0.5s0.1-0.3,0.1-0.5
		c0.1-0.3,0.2-0.7,0.2-1.1c0.1-0.4,0.1-0.7,0.1-1.1c0-0.2,0-0.5-0.1-0.8c0-0.3-0.1-0.5-0.2-0.7c-0.1-0.1-0.1-0.2-0.2-0.3
		c-0.1-0.1-0.1-0.2-0.2-0.3c-0.1-0.1-0.1-0.2-0.2-0.3c-0.1-0.1-0.2-0.2-0.2-0.3c-0.3-0.4-0.7-0.6-1.2-0.6c-0.2,0-0.4,0.1-0.6,0.1
		l-0.1,0.1c-0.2,0-0.3,0-0.4,0c-0.1,0-0.3,0.1-0.4,0.2l-0.3,0.1l-0.3,0.2c-2.1,1.3-3.9,3-5.4,5.1s-2.8,4.2-3.8,6.4
		c-0.2,0.5-0.5,1.1-0.7,1.7c-0.2,0.6-0.4,1.2-0.4,1.7c0,0.3,0.1,0.5,0.1,0.8l0.1,0.1c0,0,0.1,0.1,0.2,0.1c0.2,0,0.5-0.1,0.8-0.4
		c0.3-0.3,0.6-0.5,1-0.9c0.3-0.3,0.6-0.6,0.8-0.7c0.2-0.2,0.4-0.4,0.6-0.4c0.3-0.4,0.6-0.9,0.9-1.2c0.2-0.2,0.3-0.3,0.5-0.5
		s0.3-0.3,0.4-0.5c0.8-1,1.6-2.1,2.4-3.3c0.9-1.2,1.5-2.2,1.9-3.2c0.1-0.2,0.1-0.3,0.2-0.5s0.1-0.4,0.1-0.5c0-0.3,0.2-0.6,0.6-0.9
		l0.7-0.1c0.3,0.1,0.6,0.1,0.8,0.1s0.3,0,0.4-0.1h0.4c0.4,0,0.6,0.2,0.7,0.5s0.1,0.7,0.2,0.9c0,0.1,0,0.2,0.1,0.2l0.1,0.1
		c0,0.1,0,0.2,0,0.3c0,0.2,0.1,0.3,0.1,0.4s0,0.2,0,0.3c0,0.5-0.1,1-0.2,1.4c-0.2,0.5-0.2,0.9-0.2,1.4c0,0.4-0.1,0.7-0.3,1.1
		c-0.2,0.3-0.3,0.7-0.3,1.1c0,0.3-0.1,0.5-0.3,0.5h-0.1c-0.1,0-0.1,0-0.1,0.1s0,0.1,0.1,0.2c0,0.1,0.1,0.2,0.1,0.3
		c0,0,0,0.1-0.1,0.3c-0.1,0.1-0.1,0.2-0.1,0.3s-0.2,0.2-0.4,0.2c-0.1,0-0.2,0.1-0.3,0.1s-0.2,0-0.2,0h-0.1c0,0.1,0.1,0.1,0.1,0.1
		s0.1-0.1,0.2-0.1c0.1,0,0.2,0,0.3,0c0.2,0,0.2,0.1,0.2,0.2c0,0.1-0.1,0.3-0.2,0.6c-0.1,0.3-0.3,0.6-0.4,0.9
		c-0.1,0.3-0.3,0.6-0.3,0.7l0.2,0.2l-0.1,0.1c0,0,0,0.1-0.1,0.1l-0.2,0.2c0.8,0.2,1.3,0.4,1.7,0.7s0.6,0.9,0.6,1.9
		c0,0.4-0.1,0.6-0.2,0.7c-0.1,0.1-0.2,0.2-0.2,0.3s-0.1,0.1-0.2,0.2c-0.1,0.1-0.2,0.1-0.2,0.1c-0.1,0-0.2-0.1-0.2-0.1v-0.1h-0.1
		l0.3-0.8c0-0.1,0.1-0.2,0.1-0.3s0.1-0.2,0.1-0.3c0-0.4-0.3-0.6-0.8-0.8s-1-0.3-1.3-0.4c-0.5,1.2-1.1,2.4-1.8,3.6
		c-0.7,1.2-1.3,2.4-1.9,3.5c-0.2,0.4-0.5,0.8-0.7,1.2s-0.5,0.9-0.7,1.3c-0.5,0.9-1,1.7-1.6,2.4c-0.4,0.6-0.9,1.2-1.4,1.9
		c-0.5,0.6-1,1.2-1.4,1.9c-0.4,0.6-0.9,1.1-1.4,1.4s-1,0.6-1.6,0.9c-0.5,0.3-1.1,0.7-1.8,1.2c-0.3,0-0.6,0.1-1,0.3
		c-0.3,0.2-0.6,0.3-1,0.2C116.5,59.3,116.5,59.3,116.5,59.3L116.5,59.3z M115.4,57.5c0.1,0,0.3-0.1,0.4-0.1s0.2,0,0.3,0
		c0.1-0.1,0.2-0.1,0.3-0.2s0.2-0.1,0.3-0.2l0.7-0.4c0.3-0.2,0.5-0.3,0.7-0.5s0.4-0.3,0.6-0.5l0.2-0.2l0.2-0.2
		c0.1-0.1,0.1-0.2,0.2-0.3s0.2-0.2,0.2-0.2c0.1-0.1,0.1-0.2,0.2-0.3s0.2-0.2,0.2-0.2c0.1-0.1,0.1-0.2,0.2-0.3s0.2-0.2,0.2-0.2
		l0.3-0.1v0.1c0.2-0.2,0.3-0.4,0.5-0.6s0.4-0.4,0.6-0.5l-0.1-0.1l0.9-0.8V52l0.1-0.1l0.1-0.1l0.3-0.7l-0.1-0.1l-0.1,0.1h-0.2v-0.2
		c0.4-0.5,0.8-1.1,1.3-1.7c0.5-0.6,1-1.2,1.4-1.8s0.6-1.2,0.7-1.7l0.8-0.8h0.1l1-1.6l-0.1-0.3l1.5-1.9c0-0.2,0.2-0.5,0.4-0.7
		c0.2-0.3,0.3-0.5,0.3-0.8c0-0.1,0-0.1-0.1-0.1c-0.3,0-0.9,0.3-1.7,0.9c-0.1,0.1-0.3,0.1-0.4,0.2s-0.3,0.2-0.5,0.3
		c-0.3,0.2-0.6,0.4-0.9,0.4l-2.2,1.7h-0.1l-3.9,3.2c-0.2,0.2-0.5,0.6-0.9,1.1s-0.6,1-0.8,1.4l-0.2-0.2c0,0-0.1,0.2-0.2,0.5
		c-0.1,0.2-0.1,0.3-0.2,0.4c-0.1,0.1-0.1,0.2-0.1,0.3v0.1c0,0,0,0.1-0.1,0.1s-0.1,0.1-0.2,0.1l-0.1-0.1l-1.2,1.9h-0.1l-0.1-0.1
		c0,0.1-0.1,0.1-0.1,0.2s0,0.2-0.1,0.2c0,0.2-0.1,0.3-0.2,0.4l-0.9,2.3c0,0.1,0,0.2,0,0.4c0,0.1,0,0.2-0.1,0.4
		c-0.1,0.3-0.1,0.5-0.1,0.7C114.8,56.8,115,57.2,115.4,57.5L115.4,57.5z M122.7,31.2L122.7,31.2V31V31.2
		C122.6,31.2,122.7,31.2,122.7,31.2z" />
                        <path id="cspaint" d="M143.1,38.9c-0.2,0-0.3,0-0.5,0c-0.1,0-0.3,0-0.5-0.1s-0.3-0.1-0.5-0.1s-0.3-0.1-0.5-0.1l0.1-0.2
		c-1,0-1.7-0.2-2-0.6c-0.3-0.4-0.5-1.1-0.5-2.1c0-0.1,0-0.2,0.1-0.2v-0.1c0.2,0,0.3,0.1,0.4,0.1c0.1,0,0.2,0,0.2,0
		c0.3,0,0.5-0.1,0.7-0.2c0.2,0,0.4-0.1,0.6-0.1c0.2,0,0.4,0,0.6-0.1c0.2,0,0.3,0,0.5,0s0.4,0,0.5-0.1v-0.1c-0.5-1.1-1-2.1-1.4-3
		s-0.6-1.9-0.6-3c0-0.7,0.1-1.4,0.4-2c0.3-0.6,0.5-1.2,0.7-1.9c0.1-0.2,0.2-0.3,0.3-0.3s0.3,0,0.3-0.1c0.1-0.2,0.3-0.3,0.4-0.4
		c0.2-0.2,0.4-0.5,0.7-0.6c0.1-0.1,0.2-0.2,0.3-0.3l0.3-0.3c0.9-0.7,1.8-1.4,2.9-1.9s2.1-1,3.1-1.4l1.3,0.8c0.2,0.3,0.4,0.7,0.6,1
		c0.2,0.3,0.3,0.7,0.3,1.1v0.2c0,0.1-0.1,0.2-0.1,0.3l-0.3,0.4c-1,0.6-1.8,1.2-2.5,1.5c-0.7,0.4-1.2,0.7-1.7,1s-0.8,0.5-0.8,0.5
		c-0.1,0-0.2-0.1-0.2-0.1c0-0.1,0.2-0.3,0.6-0.7c0.4-0.3,0.9-0.7,1.4-1.1s1-0.7,1.4-1s0.6-0.4,0.7-0.5c-0.9,0.1-1.8,0.3-2.6,0.6
		c-0.9,0.3-1.6,0.7-2.3,1.1c-0.1,0-0.2,0-0.3,0s-0.2,0-0.3,0.1s-0.2,0.2-0.2,0.4s-0.1,0.3-0.1,0.4c-0.4,0.4-0.7,0.9-1,1.5
		c-0.2,0.6-0.4,1.2-0.4,2c0,0.2,0.1,0.5,0.2,1.1c0.2,0.6,0.4,1.2,0.6,1.9c0.3,0.7,0.5,1.3,0.8,1.8s0.6,0.8,0.8,0.8h1.2
		c0.2,0,0.4,0,0.6,0c0.2,0,0.4,0,0.6-0.1c0.4-0.1,0.7-0.2,1-0.3c0.7-0.2,1.3-0.3,2-0.3c0.2-0.1,0.5-0.2,0.8-0.3
		c0.2,0,0.3-0.1,0.5-0.1c0.1,0,0.3,0,0.4-0.1l0.3,0.1l-0.1,0.4c-0.2,0.1-0.6,0.2-1.1,0.4s-1,0.4-1.5,0.5s-0.9,0.2-1.1,0.2l-0.2-0.1
		c0,0-0.1,0-0.1-0.1h-0.1c-0.3,0-0.5,0.1-0.8,0.1c-0.1,0.1-0.3,0.1-0.4,0.2s-0.3,0.1-0.4,0.2c-0.3,0.1-0.6,0.2-0.9,0.3
		c-0.3,0.1-0.7,0.1-1,0.1c-0.1,0.6-0.3,1.2-0.7,1.8C144.4,38.6,143.8,38.9,143.1,38.9L143.1,38.9z M142.1,37c0.1,0,0.1-0.1,0.1-0.3
		c0-0.1,0-0.1-0.1-0.3s-0.1-0.2-0.1-0.2c-0.2,0-0.3,0-0.5,0s-0.4,0-0.5-0.1c-0.2,0-0.4-0.1-0.6-0.1c-0.2,0-0.4,0-0.5,0h-0.1
		c0.1,0.1,0.3,0.2,0.6,0.4s0.7,0.3,1.1,0.4C141.9,37,142,37,142.1,37L142.1,37z" />
                        <path id="ciin" d="M157,45.6c-0.1,0-0.3-0.2-0.6-0.5c-0.3-0.4-0.5-0.7-0.7-1.1c-0.2-0.4-0.3-0.7-0.3-0.8s0-0.3,0-0.4
		c0-0.1,0-0.3,0.1-0.4c0.1-0.1,0.1-0.2,0.1-0.4c0-0.1,0.1-0.2,0.1-0.4v0.2c0.2-0.1,0.3-0.2,0.3-0.4v-0.1l-0.3,0.2
		c0.1-0.1,0.2-0.2,0.3-0.3c0.1-0.2,0.2-0.3,0.3-0.3s0.2-0.1,0.3-0.2l0.3-0.3l-0.2,0.1l0.9-0.7l0.1,0.1c0.4-0.3,0.8-0.4,1.3-0.6
		s1-0.3,1.4-0.5s0.8-0.5,1-0.8v-0.1l0.2,0.1c0-0.6,0.1-1.3,0.2-2c0.1-0.7,0.3-1.3,0.6-1.9c0-0.2,0.1-0.3,0.3-0.3
		c0.1,0,0.2,0.1,0.2,0.3s0.1,0.3,0.1,0.4c0,0.5,0,1-0.1,1.5c-0.1,0.3-0.1,0.5-0.1,0.8s-0.1,0.6-0.1,0.8c0.1,0,0.2-0.1,0.3-0.1
		s0.2,0,0.3,0v0.1l2.2-0.7V37c0.1,0,0.1,0,0.1,0h0.1l-0.1,0.1h-0.1c0,0-0.1,0-0.1,0.1h0.9l-0.2,0.2h0.1c0.3,0,0.5-0.1,0.8-0.2
		l-0.1-0.1l0.3-0.1l-0.7-0.1l0.1-0.1h0.7c0.1,0,0.3,0,0.4,0c0.1,0,0.2,0,0.4-0.1c0,0,0.1-0.1,0.3-0.1h0.2c0.2,0,0.4,0,0.8,0.1
		s0.6,0.1,0.7,0.1v-0.1h0.5c0.4,0,0.6,0,0.7,0.1l0.1-0.1c-0.1-0.1-0.2-0.1-0.4-0.1s-0.3-0.1-0.2-0.1h1.1v0.1l2.5-0.1l0.1,0.1
		c0,0,0.2,0.1,0.5,0.1c0.2-0.3,0.3-0.5,0.5-0.8s0.4-0.5,0.5-0.7c0.2-0.3,0.3-0.5,0.5-0.7s0.3-0.5,0.5-0.7c1-1.6,2-3.3,2.9-5
		s1.8-3.4,2.6-5.2h-0.1c-0.3,0-0.5-0.1-0.5-0.4c0-0.1,0-0.2,0-0.3c0-0.1,0-0.2,0.1-0.4l-0.3,0.3c0,0-0.1,0.2-0.3,0.6
		c-0.2,0.3-0.4,0.7-0.7,1.2c-0.3,0.4-0.5,0.8-0.7,1.2c-0.2,0.3-0.3,0.5-0.4,0.5v-0.1c0,0-0.1,0-0.1-0.1c0-0.4,0.2-1,0.7-1.7
		c0.4-0.7,0.9-1.4,1.4-2.2c0.5-0.8,0.8-1.4,1-2l0.3-1c0.1-0.2,0.1-0.3,0.2-0.5c0.1-0.2,0.1-0.3,0.2-0.5c0.4-1,0.8-2,1.4-2.9
		c0.5-0.9,1.1-1.9,1.6-2.8c0.1-0.3,0.3-0.8,0.7-1.3s0.5-1,0.5-1.2c0-0.1,0-0.1-0.1-0.1s-0.1,0-0.1-0.2c0-0.2,0.1-0.5,0.3-1
		s0.4-0.8,0.4-1c0.1-0.2,0.3-0.4,0.4-0.7c0.1-0.2,0.3-0.4,0.4-0.6l0.8-1.1l-0.8-0.1l0.1-0.1L188.7,5l-0.1,0.1l0.1,0.1h-0.1h-0.1
		c0,0.1,0,0.1,0.1,0.1c0,0,0.1,0,0.1,0.1v0.2l-0.1,0.1c-0.1-0.1-0.2-0.2-0.3-0.2s-0.2-0.3-0.3-0.3s-0.2,0.1-0.3,0.1l-0.5-0.1V5
		c-0.1,0.2-0.2,0.3-0.3,0.3c-0.3,0-0.5,0-0.8,0s-0.6,0-0.8-0.1c-0.3,0-0.6-0.1-0.9-0.1c-0.3,0-0.6,0-0.8,0h-0.3
		c-0.1,0-0.2,0.1-0.3,0.1l-0.3,0l0,0l0.1-0.1h0.5c0.2,0,0.3,0,0.3,0.1L183,5.5l0.1,0.1c-0.9,0.1-1.8,0.2-2.7,0.4
		c-0.9,0.2-1.8,0.5-2.6,0.8l0.1,0.1l-0.6,0.3l0.1-0.2c-0.5,0.5-0.9,0.9-1.2,1.1c-0.3,0.2-0.5,0.4-0.7,0.6s-0.3,0.4-0.4,0.7
		C175,9.7,175,10.2,175,11v0.2c0,0.1,0,0.2-0.1,0.2s-0.3-0.2-0.4-0.6c-0.1-0.4-0.2-0.8-0.3-1.2s-0.1-0.7-0.1-0.8
		c0-0.3,0-0.6,0.1-0.9c0.1-0.1,0.1-0.2,0.1-0.3s0.1-0.2,0.1-0.3c0.1,0,0.1-0.1,0.2-0.2c0.1-0.1,0.1-0.2,0.1-0.2l-0.1-0.1l-0.2,0.1
		l0.3-0.3c0.1-0.1,0.2-0.2,0.2-0.3h0.1c0.1,0,0.2-0.1,0.3-0.2c0.1-0.1,0.2-0.2,0.2-0.3l-0.1,0.1h-0.1l0.8-0.7v0.1
		c0.4-0.3,0.8-0.4,1.3-0.5s0.9-0.2,1.3-0.4c0.4-0.1,0.6-0.4,0.7-0.8l0.1,0.1c0.3,0,0.5-0.1,0.6-0.1c0.2-0.1,0.4-0.1,0.6-0.1h0.1
		l0.2,0.1l1.9-0.5v0.1h0.2l-0.3,0.1l0.7,0.1l-0.2,0.1l0.1,0.1c0.1,0,0.2,0,0.3-0.1s0.2-0.1,0.3-0.1l0,0h0.1c0,0,0.1,0,0.1-0.1
		l-0.5-0.1l0.1-0.1h1.3c0.2,0,0.4,0,0.7,0.1s0.6,0.1,0.7,0.3V3.4c0.4,0,0.8,0.1,1,0.2l0.1-0.1l-0.4-0.3c0.2,0,0.5,0.1,0.7,0.1
		s0.5,0.1,0.7,0.1l1.3,0.1c0-0.2,0.1-0.3,0.3-0.4s0.3-0.1,0.5-0.1c0.7,0,1.4,0.1,2.1,0.3c0.7,0.2,1.1,0.7,1.2,1.4
		c0.5,0.1,0.9,0.2,1.2,0.4c0.3,0.2,0.6,0.4,1,0.7c0.4,0.3,0.7,0.5,1.2,0.7s0.8,0.5,1.2,0.7c0.2,0.2,0.4,0.3,0.6,0.6
		c0.2,0.2,0.2,0.4,0.2,0.7c0,0.1-0.1,0.4-0.1,0.7c-0.1,0.3-0.2,0.5-0.4,0.5c-0.1,0-0.1-0.2-0.1-0.6c0-0.4-0.1-0.6-0.2-0.7l-0.1,0.1
		c-0.1-0.1-0.3-0.2-0.7-0.5c-0.4-0.3-0.8-0.4-1.1-0.6c-0.4-0.2-0.6-0.4-0.7-0.5c-0.5-0.3-0.8-0.4-1.1-0.4c-0.1,0-0.3,0-0.5,0
		s-0.4,0-0.6-0.1c-1,2.5-2.1,5-3.3,7.5l-3.7,7.3l-2.2,4.4c-0.4,0.7-0.7,1.5-1.1,2.2c-0.4,0.7-0.8,1.4-1.3,2.2
		c-0.6,0.9-1.3,2-2.2,3.3c-0.9,1.2-1.8,2.4-2.8,3.6c0.3,0,0.5,0.1,0.8,0.1s0.6,0.1,0.9,0.1l1.6,0.3v0.1c0.2,0.1,0.4,0.1,0.6,0.1
		l0.6,0.1c0.1,0.1,0.2,0.1,0.3,0.2s0.2,0.1,0.3,0.2c0.5,0.2,1,0.3,1.7,0.5s1.3,0.4,1.9,0.7c0.5,0.3,0.8,0.7,0.8,1.1
		c0,0.1,0,0.3-0.1,0.6s-0.2,0.5-0.3,0.5s-0.2-0.2-0.3-0.6c-0.1-0.4-0.2-0.6-0.3-0.6l-0.1,0.1c-0.2-0.2-0.6-0.3-1.3-0.6
		c-0.7-0.2-1.4-0.4-2-0.6c-0.7-0.2-1.2-0.3-1.4-0.3h-0.3c-0.1,0-0.2,0-0.3,0.1h-0.6c-0.4,0-0.8-0.1-1.1-0.2c-0.3-0.1-0.7-0.3-1-0.5
		v0.1l0.1,0.2l-0.2,0.1l-0.1-0.1l0.1-0.1l-0.1-0.1c0,0-0.2-0.1-0.4-0.1s-0.3,0-0.4,0.1h-0.5l-0.1,0.1h-0.1l-0.3-0.1
		c-0.4,0.4-0.7,0.7-1.1,1s-0.7,0.6-1.1,0.8c-0.1,0.1-0.3,0.2-0.6,0.5s-0.5,0.4-0.5,0.5c-0.7,0.5-1.5,0.9-2.3,1.3
		c-0.8,0.4-1.7,0.6-2.6,0.6c-1.3,0-2.3-0.3-3.2-0.8s-1.5-1.4-1.9-2.4c-0.4,0.1-0.8,0.2-1.1,0.4s-0.7,0.3-1.1,0.5l-0.7,0.4l0.2-0.2
		c0.1-0.1,0.1-0.1-0.2,0.1c-0.3,0.2-0.5,0.4-0.6,0.4c-0.3,0.1-0.5,0.3-0.8,0.6l0.4-0.3c-0.3,0.3-0.6,0.6-0.9,0.9
		c-0.3,0.3-0.4,0.7-0.4,1.2l0.1,0.6c0.1,0.2,0.1,0.4,0.1,0.6L157,45.6C157,45.5,157,45.5,157,45.6L157,45.6z M167,42.7
		c1.2,0,2.2-0.4,3.2-1.1c1-0.7,1.9-1.5,2.6-2.3c0.1,0,0.2-0.1,0.3-0.2c0.1-0.1,0.1-0.1,0.2-0.2s0.2-0.2,0.2-0.3l-0.4-0.1l0.1-0.1
		l-0.2-0.1l-0.1,0.1l0.1,0.1h-0.3c0,0.1,0.1,0.1,0.2,0.1v0.2l-0.1,0.1c0-0.1-0.2-0.1-0.4-0.1s-0.3-0.1-0.4-0.2
		c-0.2,0-0.3,0.1-0.4,0.2l-0.6-0.1l-0.1-0.1c-0.2,0.2-0.4,0.3-0.5,0.3h-0.9c-0.5,0-1,0-1.6,0.1c-0.6,0-1.1,0.1-1.6,0.1
		s-0.7,0.1-0.8,0.1v0.1l0.1-0.1h0.4c0.1,0,0.2-0.1,0.4-0.1c0,0,0.1,0,0.1,0.1h0.1H166l0.2,0.1c-0.5,0.1-1.1,0.2-1.7,0.3
		s-1.1,0.2-1.7,0.4c0.2,1,0.7,1.7,1.5,2.1C165.1,42.5,166,42.7,167,42.7L167,42.7z M174.5,7.2c0-0.1,0.1-0.1,0.1-0.1s0-0.1,0.1-0.1
		v0.1L174.5,7.2L174.5,7.2z" />
                        <path id="cnin" d="M191,39.7l-0.1-0.1c0,0-0.1-0.1-0.2-0.1l-0.1-0.1c-0.1,0-0.1-0.1-0.2-0.1h0.3c0.1,0,0.1-0.1,0.2-0.1
		c0.1,0,0.1-0.1,0.2-0.1c0.2-0.1,0.3-0.2,0.4-0.2c0.2-0.1,0.3-0.3,0.5-0.7s0.4-0.8,0.5-1.2s0.3-0.8,0.4-1l0.1-0.6
		c0-0.2,0-0.3,0.1-0.5c0.1-0.4,0.2-0.7,0.3-1s0.3-0.7,0.5-1l0.1-0.4c0-0.3,0-0.4,0.1-0.5c0,0-0.1,0-0.1-0.1h-0.1c0,0-0.1,0-0.1-0.1
		c0,0,0-0.1,0.1-0.1v-0.1l0.4-0.7c0.1-0.3,0.3-0.4,0.6-0.5c0.1-0.3,0.3-0.6,0.6-1.1s0.4-0.8,0.4-1c0-0.3-0.1-0.5-0.1-0.7
		c-0.1-0.2-0.2-0.4-0.2-0.7c0-0.1,0-0.1,0-0.2s0-0.1,0.1-0.2c0-0.1,0.1-0.1,0.1-0.2s0-0.2,0.1-0.2c0-0.1,0.1-0.2,0.1-0.5
		c0.1-0.3,0.1-0.6,0.2-0.9c0.1-0.3,0.1-0.5,0.1-0.6c0.1-0.7,0.3-1.2,0.5-1.5l-0.1-0.1c0.2-0.2,0.3-0.4,0.5-0.7
		c0.1-0.3,0.2-0.5,0.2-0.8c0-0.1,0-0.2-0.1-0.3c-0.1-0.1-0.1-0.1-0.1-0.2c0-0.2,0.1-0.3,0.2-0.4c0.1-0.1,0.2-0.2,0.3-0.2v-0.1
		c-0.2-0.1-0.3-0.1-0.4-0.2c-0.1-0.1-0.2-0.1-0.3-0.1v-0.2l0,0c0,0.1,0,0.1-0.1,0.1c0,0,0,0,0,0.1l-0.1-0.1c-0.1,0-0.1,0-0.2-0.1
		c-0.1,0-0.1,0-0.2-0.1c-0.1,0-0.1,0-0.2,0c-0.1,0-0.1,0-0.2-0.1c-0.1,0-0.2-0.1-0.2-0.2s0.1-0.1,0.2-0.2s0.3-0.1,0.3-0.1
		c0.5,0.1,1.1,0.2,1.8,0.4c0.7,0.2,1.3,0.3,2,0.6c0.6,0.2,1,0.5,1.2,0.8c0.1,0.1,0.1,0.2,0.1,0.3s0,0.2,0,0.3c0,0.3-0.1,0.6-0.2,1
		l-0.4,1c-0.1,0.1-0.1,0.3-0.1,0.4s-0.1,0.3-0.3,0.6c-0.2,0.2-0.4,0.4-0.6,0.5l0.1,0.1c0,0.1,0,0.1,0.1,0.1s0.2,0.1,0.1,0.1
		c0.1,0.1,0.1,0.2,0.1,0.3c0,0.1,0,0.2-0.1,0.3c-0.1,0.1-0.1,0.2-0.3,0.2l-0.1,0.1c-0.1,0.1-0.1,0.2-0.1,0.3v0.1h0.1
		c0,0.3-0.1,0.5-0.3,0.6c-0.1,0.3-0.2,0.6-0.3,0.9c-0.2,0.4-0.4,0.7-0.5,1v0.1c0,0.1,0,0.1-0.1,0.1l-0.1,0.1c0,0.1-0.1,0.2-0.2,0.3
		c0,0.1-0.1,0.1-0.1,0.2c-0.1,0.1-0.1,0.1-0.1,0.2c-0.1,0.1-0.1,0.2-0.2,0.3c-0.1,0.1-0.1,0.2,0,0.4h-0.1v0.1c0,0.1,0,0.1-0.1,0.1
		c-0.1,0.1-0.2,0.3-0.3,0.4c-0.1,0.1-0.3,0.2-0.5,0.3l-1.5,3.7c0,0.1-0.1,0.2-0.3,0.3l0.3,0.3h-0.4l0.2,0.2h-0.2l-0.1,0.1h-0.1
		c0,0-0.1,0.1-0.2,0.1v0.3l0.1,0.1l-0.2,0.3l-0.1,0.1h-0.1l-0.2,0.1c-0.1,0.1-0.1,0.1-0.1,0.2c0,0.2,0,0.3,0.1,0.3
		c0.1-0.1,0.3-0.4,0.7-0.7c0.3-0.4,0.6-0.7,0.9-1.2c0.3-0.4,0.6-0.8,0.8-1.2s0.3-0.6,0.3-0.7c0.2,0,0.3-0.2,0.4-0.5
		c0.1-0.1,0.2-0.2,0.2-0.3s0.1-0.1,0.2-0.2c0.6-0.5,1.2-1.1,1.7-1.7c0.5-0.6,1-1.3,1.5-1.9s1-1.3,1.5-1.9s1.2-1.3,1.9-1.9
		c0.5-0.4,1.2-0.9,1.9-1.5s1.4-1.1,2.1-1.5c0.7-0.4,1.3-0.6,1.9-0.6c0.4,0,0.6,0.2,0.6,0.6c0,0.2,0,0.3-0.1,0.6
		c0,0.2-0.1,0.4-0.1,0.6c-0.2,0.5-0.4,1.1-0.7,1.7s-0.5,1.1-0.8,1.7c-0.2,0.5-0.4,0.9-0.5,1.3c-0.2,0.5-0.4,1-0.6,1.4
		c-0.1,0.1-0.1,0.2-0.2,0.2l-0.1,0.1c0,0,0,0.1,0,0.2s0,0.2-0.1,0.3l0.3-0.1c-0.2,0.5-0.4,1-0.6,1.4c-0.1,0.4-0.2,0.9-0.2,1.4
		c0,0.1,0,0.2-0.1,0.2v0.1c-0.2,0-0.3,0-0.3-0.1c-0.1,0-0.1,0-0.2,0.1c0,0-0.1,0.1-0.1,0.2l-0.1,0.1c0,0.1,0,0.1-0.1,0.1l0.3-0.1
		c0,0.3-0.1,0.5-0.1,0.8c0,0.1-0.1,0.2-0.1,0.3s0,0.2,0,0.3c0,0.4,0.1,0.8,0.3,1.1s0.6,0.4,1,0.4c0.1,0,0.2,0,0.2-0.1h0.1
		c0.1-0.1,0.3-0.1,0.5-0.3c0.2-0.1,0.5-0.2,0.7-0.4c0.3-0.2,0.5-0.3,0.7-0.5s0.4-0.5,0.6-0.9c-0.1,0.6-0.2,0.9-0.3,1.1
		s-0.3,0.4-0.8,0.8c-0.5,0.4-1,0.7-1.7,1.2c-0.7,0.4-1.3,0.6-1.9,0.6c-0.5,0-1-0.2-1.4-0.5s-0.7-0.7-0.9-1.1l-0.2-0.2
		c-0.1-0.1-0.2-0.3-0.2-0.4c0-0.1,0-0.1,0.1-0.1v-0.1l0.3-0.1l0.1-0.1c0-0.1-0.1-0.1-0.1-0.2c0-0.1,0-0.1,0-0.2v-0.3
		c0-0.6,0.1-1.3,0.2-1.9c0.1-0.6,0.3-1.3,0.4-1.9h0.1c0.1-0.5,0.2-1,0.4-1.3l0.1-0.1h-0.2l0.1-0.2l-0.1-0.4c0.1-0.1,0.2-0.4,0.4-0.9
		s0.3-0.9,0.5-1.4c0.2-0.4,0.3-0.7,0.3-0.8c-0.1,0-0.2,0.1-0.3,0.1c-0.9,0.6-1.6,1.4-2.3,2.3c-0.3,0.5-0.7,0.9-1,1.3s-0.7,0.8-1,1.2
		c-0.7,0.8-1.5,1.6-2.3,2.4c-0.4,0.4-0.8,0.8-1.2,1.2s-0.7,0.8-1.1,1.3l-1.4,1.9c-0.5,0.6-1,1.2-1.5,1.8c-0.4,0.4-0.8,0.6-1.2,0.6
		c-0.2,0-0.4,0-0.6,0c-0.2,0-0.4,0.1-0.7,0.1L191,39.7L191,39.7z M197,30.5c0.1-0.2,0.2-0.2,0.3-0.2l-0.1-0.2c0,0.1-0.1,0.1-0.1,0.2
		C197,30.4,197,30.4,197,30.5L197,30.5L197,30.5z" />
                        <path id="cmmy" d="M225,47.8c-1.7,0-3-0.5-3.9-1.6s-1.3-2.4-1.3-3.9c0-0.7,0.1-1.5,0.2-2.2c0.2-0.7,0.4-1.4,0.6-2.1h-0.1l-0.7,2.1
		h-0.1c-0.1,0-0.1,0-0.1-0.1v-0.1c0-0.4,0.2-1.1,0.5-1.9c0.3-0.8,0.8-1.6,1.3-2.5s1-1.7,1.5-2.5s0.9-1.3,1.2-1.7l0.1,0.2
		c0.3-0.4,0.8-0.9,1.4-1.6c0.6-0.7,1.2-1.3,1.8-2s1-1.3,1.2-1.7c0.6-1.1,1-1.6,1.3-1.7s0.4,0.2,0.3,0.8c-0.1,0.6-0.6,1.5-1.4,2.5
		c-0.7,0.9-1.5,2-2.3,3.2c-0.8,1.2-1.6,2.5-2.3,3.8s-1.3,2.6-1.8,4c-0.5,1.3-0.8,2.6-0.9,3.7v0.4c0,1.5,0.5,2.5,1.4,3.1
		s2.1,0.8,3.4,0.8c1.3,0,2.6-0.4,4-1.1c1.3-0.7,2.7-1.7,4-2.8s2.7-2.4,4-3.9c1.3-1.4,2.5-2.9,3.7-4.4c0.6-0.8,1.3-1.7,1.9-2.7
		c0.7-1,1.4-1.9,2-2.8s1.2-1.7,1.6-2.2v-0.1c0,0-0.1,0-0.1-0.1v-0.1c0-0.2,0.2-0.6,0.5-1.2s0.8-1.4,1.2-2.2c0.5-0.8,0.9-1.5,1.3-2.1
		c0.4-0.6,0.6-0.9,0.6-1c0.7-0.9,1.4-1.9,2.1-2.9c0.7-1,1.3-2,1.8-3c0.3-0.5,0.5-1,0.7-1.5s0.5-1,0.7-1.5s0.4-1.1,0.6-1.6
		s0.4-1,0.6-1.5c0.2-0.3,0.4-0.9,0.6-1.6c0.1-0.3,0.3-0.7,0.4-1s0.3-0.7,0.4-1c-0.3,0-0.6-0.1-1-0.1c-0.3,0-0.7,0-1,0s-0.6,0-1,0
		c-0.3,0-0.6-0.1-0.9-0.2c-0.2-0.1-0.3-0.1-0.4-0.2l-0.1-0.1c-0.1-0.1-0.1-0.1-0.2-0.2c-0.3-0.2-0.4-0.2-0.3-0.1s0.1,0.2,0.2,0.4
		c0,0.2-0.1,0.2-0.3,0.2L254,4c-0.2-0.1-0.5-0.1-0.9-0.1s-0.7,0-0.9,0.1c0.1,0.1,0.1,0.1,0,0.2s-0.1,0.1-0.2,0.1
		c-0.2-0.1-0.4-0.2-0.7-0.3c-0.3-0.1-0.6-0.1-0.7-0.1c0.1,0.1,0.1,0.1,0.1,0.2s-0.1,0.1-0.3,0l-1.1-0.3l-0.1-0.2
		c0,0-0.1-0.1-0.3-0.1s-0.2,0.1-0.2,0.2c0,0,0,0.1,0.1,0.1s0.1,0.1,0.2,0.1c0.1,0.1,0.1,0.2,0.1,0.3c0.1,0.1,0.1,0.1-0.1,0.1
		c-0.2-0.1-0.5-0.2-0.9-0.3s-0.6,0-0.7,0.2c-0.8,0-1.9,0.1-3.1,0.5c-1.2,0.4-2.4,0.8-3.6,1.4c-1.2,0.5-2.2,1-2.9,1.5l0.1,0.1
		l-0.7,0.5V8l-1.5,1.3l-0.5,0.5h0.1l0.5-0.5l-0.1,0.1c-0.3,0.3-0.5,0.6-0.9,1c-0.3,0.4-0.6,0.8-0.7,1.2c-0.1,0.5-0.1,1.1,0,1.6
		c0.1,0.6,0.1,1,0.1,1.2l-0.1,0.1H234c-0.3-0.1-0.5-0.3-0.7-0.6c-0.1-0.3-0.3-0.6-0.4-0.9c-0.2-0.6-0.4-1-0.5-1.4
		c-0.1-0.3-0.1-0.7,0-1c0.1-0.3,0.2-0.8,0.4-1.4c0.1,0,0.3-0.1,0.4-0.3c0-0.1,0.1-0.1,0.1-0.2V8.6L233,8.8l0.4-0.5
		c0.1-0.1,0.1-0.1,0.2-0.2c0.1-0.1,0.1-0.2,0.2-0.2h0.1c0.1,0.1,0.2,0,0.4-0.3c0.1-0.1,0.2-0.2,0.2-0.3l0.1-0.1l-0.1,0.1
		c-0.2-0.1-0.3-0.1-0.3-0.1l1.2-1.1h0.1c0.6-0.4,1.2-0.8,1.8-0.9s1.1-0.3,1.6-0.6c0.5-0.2,0.9-0.6,1.3-1.2c0.2-0.1,0.3-0.3,0.3-0.4
		s0.1-0.1,0.3-0.1s0.3-0.1,0.5-0.1c0.2-0.1,0.3-0.1,0.5-0.2s0.3-0.1,0.5-0.2s0.3-0.1,0.5-0.1c0.1,0,0.1,0-0.1,0.1
		c-0.2,0.1-0.3,0.2-0.3,0.3c1.3-0.5,2.7-0.8,4.1-1.1c1.4-0.2,2.8-0.4,4.3-0.4c0.1,0,0.3,0,0.7,0s0.8,0,1.1,0.1
		c0.4,0,0.6,0.1,0.6,0.1c0.5,0.1,1,0.2,1.4,0.3c0.5,0.1,0.7,0.1,0.7,0c0.6,0.3,1.2,0.4,1.8,0.3c0.5-0.1,1.1,0,1.7,0.3l0.2-0.1
		c0,0,0.2,0,0.4,0.1c0,0,0.1,0.1,0.2,0.1l0.4,0.1c0.1-0.2,0.2-0.3,0.3-0.4c0.3-0.3,0.7-0.5,1.4-0.5c0.6,0,1.2,0.2,1.7,0.6
		c0.5,0.3,0.8,0.8,0.8,1.3L264,3.8l0.9,0.4c0.5,0.2,0.8,0.4,1.2,0.8c0.3,0.4,0.4,0.9,0.1,1.6c0,0.1-0.1,0.2-0.2,0.5
		s-0.3,0.4-0.3,0.4c-0.1-0.1-0.2-0.3-0.3-0.8c-0.1-0.4-0.2-0.7-0.3-0.7H265l-0.1,0.1L264.6,6c-0.2-0.1-0.4-0.1-0.6-0.2
		s-0.5-0.1-0.7-0.2c-0.2,0.5-0.4,0.8-0.5,1c0,0.3,0,0.7,0,1.4s-0.1,1.3-0.1,2c-0.1,0.7-0.1,1.4-0.2,1.9c-0.1,0.6-0.2,1-0.4,1.2
		l0.3,1.1H262l-0.5,0.4c-0.3,0.2-0.5,0.4-0.5,0.5s0.1,0.2,0.2,0.2c0.1,0.1,0.3,0.1,0.3,0.1s-0.1,0.1-0.1,0.2s0,0.2-0.1,0.3
		c0,0.2-0.1,0.4-0.2,0.4l-0.3-0.2c0.1,0.2,0.1,0.3,0.1,0.5v0.5c0,0.2,0,0.4-0.1,0.6s-0.1,0.4-0.2,0.6l0.1,0.4l-0.6,1l0.5,1.1
		c-0.5,0.5-0.7,1.1-0.7,1.8c0,0.2,0,0.3,0,0.5s0,0.3,0.1,0.5c0,0.2,0.1,0.3,0.1,0.5v0.5c0,1.1-0.4,2-1.1,2.7l0-0.1l-0.1,0.1
		c0,0.1,0.2,0.2,0.5,0.4c0.3,0.2,0.5,0.4,0.6,0.4c-0.1,0.3-0.2,0.6-0.2,0.9s-0.1,0.6-0.1,1c0,2,0.1,3.4,0.4,4.2s0.7,1.3,1.1,1.4
		c0.4,0.1,0.9-0.1,1.4-0.5c0.4-0.3,0.8-0.7,1.2-1.4c0.5-0.6,0.9-1.2,1.2-1.9s0.5-1,0.4-1.3l0.3,0.1c0-0.4,0.2-0.8,0.5-1.3
		c0.4-0.5,0.6-0.9,0.9-1.1v-0.1c0.1-0.1,0.1-0.2,0.2-0.4c0-0.1,0.1-0.2,0.1-0.2l0.1-0.1c0,0,0-0.1,0.1-0.1l0.1-0.1l0.1-0.2
		c0,0,0.1,0,0.1,0.1c0.1-0.1,0.1-0.1,0.2-0.2s0.1-0.2,0.1-0.3c0.1-0.2,0.1-0.3,0.2-0.5V26l0.1-0.1c0-0.1,0.1-0.2,0.1-0.3
		s0.1-0.3,0.2-0.4c0.2-0.3,0.3-0.5,0.4-0.6c0.2-0.3,0.4-0.6,0.6-0.8c0.2-0.3,0.4-0.5,0.4-0.8c0.3-0.3,0.5-0.6,0.7-1.1
		s0.4-0.8,0.7-0.9c0.1-0.1,0.1-0.2,0.2-0.3s0.2-0.2,0.2-0.3c0.1-0.1,0.1-0.2,0.2-0.3s0.2-0.2,0.2-0.3v-0.1c0-0.1,0.1-0.1,0.1-0.2
		s0.1-0.1,0.1-0.2l0.2-0.3h0.1l0.2-0.3l0.1-0.3l-0.1-0.1h0.1c0.1-0.3,0.3-0.6,0.6-0.9c0.1-0.1,0.2-0.3,0.3-0.4
		c0.1-0.1,0.2-0.3,0.3-0.4l0.1-0.1v0.1c0.1-0.2,0.3-0.4,0.4-0.6s0.3-0.3,0.4-0.5l-0.1-0.1c0-0.2,0.1-0.5,0.4-0.9s0.5-0.7,0.6-0.8
		c0-0.1,0.2-0.3,0.5-0.8s0.6-0.9,0.9-1.4c0.3-0.4,0.5-0.7,0.6-0.7s0.2,0.1,0.2,0.1s0,0.1-0.1,0.1c-0.3,1-0.7,1.9-1.3,3
		c-0.6,1-1.2,1.9-1.8,2.7v0.2l-0.1,0.1v-0.1l-0.4,0.5v0.1c-0.1,0.2-0.2,0.3-0.3,0.4l-0.3,0.4h0.1l0.1,0.1c-0.1,0.1-0.2,0.3-0.3,0.4
		c-0.1,0.1-0.2,0.3-0.2,0.4l-0.5,0.8l-0.1-0.1l-0.3,0.1v0.2l-0.1,0.1l0.1,0.2l0.1-0.1l0.2,0.1c0,0.2-0.1,0.3-0.2,0.4l-0.1-0.1
		L273,21c-0.2,0.4-0.4,0.8-0.7,1.1s-0.6,0.7-0.9,1l0.1,0.4l-0.1,0.1l-0.4,0.1v0.1l0.1,0.1l-0.3,0.2V24c-0.1,0.1-0.1,0.2-0.1,0.3
		l-0.1,0.3c-0.1,0.1-0.2,0.2-0.3,0.3s-0.3,0.3-0.4,0.3l-0.1,0.3l-0.5,1.4c-0.5,0.5-0.9,1-1.2,1.4c-0.3,0.4-0.5,0.9-0.8,1.7l-0.1,0.1
		h-0.1c-0.1,0-0.1,0-0.2,0s-0.2,0-0.3-0.1l-0.1,0.1c0.2,0.1,0.3,0.2,0.3,0.3l-0.1,0.1c-0.4,0.2-0.6,0.5-0.6,0.9c0,0.1,0,0.1,0,0.2
		c0,0.1,0,0.2,0.1,0.3l-0.8,0.1l-0.8,2.1h-0.1l-0.1,0.1c-0.1,0-0.1,0.1-0.2,0.1s-0.1,0.1-0.2,0.1s-0.1,0.1-0.2,0.1
		c-0.1,0.1-0.1,0.1-0.2,0.1c-0.3,0.2-0.6,0.5-0.8,0.9s-0.4,0.8-0.7,1.2c-0.3,0.4-0.8,0.6-1.6,0.6c-1,0-1.8-0.3-2.5-1
		s-1.2-1.4-1.6-2.4s-0.6-1.9-0.6-2.8c0-0.4,0-0.7,0.1-1c0-0.3,0.1-0.7,0.1-1c0.1-0.3,0.1-0.6,0.1-1c0-0.3,0.1-0.7,0.1-1v-1.2
		c0.2-0.2,0.2-0.3,0.2-0.4l-0.1-0.3c0-0.1-0.1-0.1-0.1-0.2s0-0.1,0-0.2c0.2,0,0.3-0.1,0.4-0.2c0-0.1,0.1-0.1,0.1-0.2
		s0.1-0.1,0.1-0.1v-0.1c0-0.2,0-0.3-0.1-0.3c-0.1-0.1-0.1-0.1-0.1-0.2c0.1-0.1,0.1-0.1,0.2-0.1c0,0,0.1,0.1,0.2,0.1l0.2-0.1
		c-0.1-0.2-0.1-0.3-0.2-0.4s-0.1-0.3-0.1-0.6s0.1-0.6,0.1-0.9c0.1-0.3,0.2-0.6,0.3-0.8l-0.3-1c0.1-0.1,0.2-0.4,0.3-0.9
		s0.1-1.1,0.2-1.7s0.1-1.2,0.1-1.7s0-0.9,0-1.1V14c-0.8,1.4-1.7,2.8-2.5,4.2c-0.9,1.4-1.7,2.7-2.7,4.1c-0.1,0.2-0.3,0.4-0.6,0.7
		c-0.3,0.3-0.5,0.7-0.7,1s-0.3,0.5-0.3,0.7s0.1,0.2,0.2,0.2V25c-0.1,0.2-0.3,0.5-0.6,0.7c-0.1,0.1-0.2,0.3-0.3,0.4s-0.2,0.3-0.3,0.4
		c-0.3,0.3-0.6,0.8-1.1,1.4c-0.4,0.6-0.8,1.2-1.2,1.9c-0.4,0.6-0.7,1.1-1,1.5l-0.8,1c-0.1,0.2-0.3,0.3-0.4,0.5s-0.2,0.4-0.4,0.6
		c-0.1,0.2-0.3,0.5-0.5,0.8s-0.5,0.6-0.8,1c-0.6,0.8-1.3,1.6-2.2,2.5s-1.8,1.8-2.7,2.8c-0.5,0.4-1,0.9-1.5,1.3
		c-0.5,0.4-0.9,0.8-1.4,1.2c-0.9,0.8-1.7,1.4-2.5,1.9s-1.3,0.8-1.8,0.8c-0.2,0.2-0.4,0.3-0.6,0.4c-0.2,0.1-0.5,0.2-0.7,0.3
		c-1,0.5-2,0.9-2.9,1.1C227.2,47.7,226.2,47.8,225,47.8L225,47.8z M232.7,9.1l0.1-0.2h0.1c0,0,0,0.1-0.1,0.1
		C232.8,9,232.8,9.1,232.7,9.1z M280.5,38.8c-0.6,0-1.2-0.2-1.6-0.5s-0.9-0.7-1.3-1.1c0-0.1-0.1-0.2-0.1-0.4
		c-0.1-0.2-0.2-0.3-0.2-0.4c-0.4-0.5-0.6-1-0.7-1.3s-0.2-0.7-0.3-1.1c-0.1-0.4-0.2-0.9-0.3-1.5c-0.1-0.1-0.1-0.2,0-0.4
		c0-0.1,0-0.2,0.1-0.1c0-0.6,0-1.2-0.1-1.8c-0.1-0.5-0.1-1.1-0.2-1.8c0-0.1-0.1-0.2-0.1-0.3c0-0.1,0-0.2-0.1-0.3
		c0-0.1-0.1-0.3-0.1-0.6c0-0.1,0-0.3,0.1-0.5s0.1-0.3,0.2-0.4l-0.1-0.1l-0.1-0.1c0.1-0.1,0.1-0.2,0.1-0.3c0-0.1,0.1-0.2,0.2-0.2
		l-0.1-0.2l0.1-0.1c0-0.2,0-0.4,0-0.6s0-0.4,0.1-0.6c0-0.2,0.1-0.3,0.1-0.5s0-0.4,0-0.5s0-0.2,0-0.3c0-0.1,0-0.3-0.1-0.4h0.1
		l0.1,0.1l0.2-0.1l-0.1-0.7l0.1-0.1l0.1,0.1h0.1l-0.3-0.6l0.6-0.2c0-0.2-0.1-0.3-0.3-0.3l0.1-0.1l1.3-5.1l-0.1-0.1l-0.4,0.1
		c0-0.1,0.1-0.3,0.2-0.7c0.1-0.4,0.3-0.8,0.5-1.3s0.3-0.9,0.5-1.3c0.2-0.4,0.3-0.6,0.3-0.6c0-0.5,0.1-1.1,0.4-1.7
		c0.3-0.6,0.5-1.2,0.7-1.7l0.1-0.1L280,7.7l0.5-0.6V7l-0.7,0.2l-0.1-0.1l0.1-0.1l0.9-1.8c0.2-0.4,0.3-0.8,0.3-1.2c0-0.4,0-0.7,0.1-1
		s0.3-0.5,0.8-0.7l0.1-0.1h0.1v0.1c0.1,0,0.3-0.1,0.7-0.1s0.9,0.1,1.7,0.1c0.7,0.1,1.4,0.3,2,0.5s0.9,0.6,0.9,1s-0.2,0.9-0.5,1.4
		c-0.3,0.6-0.7,1.1-1.1,1.8c-0.4,0.6-0.9,1.2-1.3,1.8s-0.7,1.1-0.8,1.5l-0.4,1.1l-0.1,0.1l0.1-0.3l-0.2,0.1l-0.3,0.5l0.1,0.1
		l0.1-0.1l0.1,0.1c-0.1,0.1-0.3,0.3-0.6,0.7c-0.2,0.3-0.4,0.5-0.4,0.7l0.1,0.1l-0.1-0.1l0.2-0.2c0,0.4,0,0.8-0.1,1.2
		s-0.2,0.8-0.4,1.1l-0.5-0.1c0,0.3-0.1,0.5-0.2,0.5v-0.1l-0.1-0.1l0.1-0.1l0.4-1.1l0.1-0.1l-0.4-0.4c0.1-0.2,0.2-0.3,0.2-0.5h-0.2
		c0,0.2-0.1,0.4-0.2,0.6s-0.2,0.4-0.2,0.6c-0.1,0.2-0.1,0.4-0.2,0.6s-0.1,0.4-0.1,0.6s0,0.4,0.1,0.4l-0.3-0.1v0.1l0.2,0.2
		c-0.1,0-0.2,0.1-0.3,0.1c-0.1,0.1-0.2,0.1-0.2,0.2l0.2,0.1v-0.1h0.1c0,0-0.1,0.1-0.1,0.2c0,0.2,0,0.4,0.1,0.6
		c0,0.1,0.1,0.2,0.1,0.3c0,0.1,0,0.2,0,0.3c0,0.3-0.1,0.5-0.4,0.5c0,0.2,0.1,0.3,0.2,0.5l-0.1,1.2l0.1,0.1h-0.3l0.1,0.3
		c-0.2,0.4-0.4,0.9-0.7,1.4c-0.3,0.5-0.6,1-0.9,1.4c-0.3,0.5-0.4,0.9-0.4,1.3c0,1.2,0.1,2.3,0.1,3.5c0,0.6,0.1,1.1,0.1,1.7
		c0,0.6,0,1.1,0,1.7c0,0.4,0.1,0.9,0.2,1.3c0.1,0.2,0.1,0.4,0.2,0.7s0.1,0.4,0.1,0.7c0,0.1,0.1,0.2,0.1,0.4v0.7c0,0.1,0,0.2,0.1,0.4
		c0.1,0.5,0.4,0.9,1,1.2s1.1,0.5,1.5,0.5c0.5,0,1-0.2,1.4-0.5c0.4-0.4,0.8-0.7,1.1-1.1c0.1-0.1,0.2-0.2,0.3-0.1c0.1,0,0,0.1,0,0.3
		c-0.3,0.7-0.9,1.4-1.7,1.9C281.9,38.5,281.1,38.8,280.5,38.8L280.5,38.8z" />
                        <path id="cymy" d="M284.7,55.1c-0.2,0-0.5-0.1-0.7-0.4c-0.2-0.3-0.4-0.6-0.6-0.8c-0.2-0.3-0.3-0.7-0.3-1c1.8-2.7,3.8-5.2,6-7.6
		c2.2-2.4,4.5-4.7,6.9-6.8c0.8-1.7,1.7-3.4,2.5-5l2.5-5l-1.2,1.3c-0.4,0.5-0.8,0.9-1.2,1.3c-0.3,0.3-0.6,0.5-0.9,0.8l-0.8,0.9
		c-0.1,0.1-0.2,0.3-0.3,0.4c-0.1,0.2-0.2,0.3-0.3,0.5c-0.1,0.2-0.3,0.3-0.5,0.5c-0.1,0.1-0.3,0.2-0.4,0.3s-0.3,0.2-0.4,0.3
		s-0.3,0.2-0.4,0.3s-0.3,0.2-0.4,0.3s-0.3,0.2-0.4,0.3s-0.2,0.1-0.3,0.2c-0.1,0.1-0.3,0.2-0.4,0.4c-0.1,0.1-0.3,0.2-0.5,0.4
		c-0.3,0.3-0.7,0.5-1.1,0.5c-0.6,0-1-0.3-1.3-0.9c-0.3-0.6-0.4-1.2-0.4-1.7c0-0.7,0.1-1.5,0.4-2.2c0.1-0.4,0.3-0.7,0.4-1.1
		c0.1-0.4,0.3-0.7,0.4-1.1l2-5.4c0.2-0.3,0.3-0.7,0.5-1.1s0.4-0.8,0.6-1.2c0.4-0.7,0.6-1.5,0.6-2.3c0-0.1,0-0.2,0.1-0.2
		c0,0,0-0.1-0.1-0.1c-0.2,0.2-0.3,0.3-0.6,0.5c-0.2,0.1-0.4,0.3-0.7,0.4c-0.4,0.2-0.8,0.5-1.2,1c-0.8,1-1.6,2-2.3,3.1
		c-0.7,1.1-1.3,2.2-2,3.2c-0.1,0.1-0.2,0.3-0.3,0.4c-0.1,0.2-0.3,0.2-0.5,0.2s-0.3-0.1-0.3-0.3c0-0.4,0.2-0.8,0.6-1.4
		s0.6-1.1,0.8-1.5c0.2-0.3,0.3-0.6,0.5-0.8c0.1-0.1,0.2-0.2,0.3-0.3c0.1-0.1,0.2-0.2,0.2-0.4c0.3-0.7,0.8-1.4,1.4-2.3
		c0.6-0.8,1.4-1.6,2.2-2.2c0.8-0.6,1.6-0.9,2.3-0.9s1.3,0.3,1.6,0.8c0.4,0.5,0.5,1.1,0.5,1.7s-0.1,1.3-0.2,1.9
		c-0.2,0.7-0.3,1.3-0.5,1.8c0.1,0.1,0.1,0.2,0.1,0.4c0,0.3-0.1,0.6-0.3,0.9c-0.2,0.3-0.4,0.5-0.4,0.8c-0.1,0.7-0.3,1.2-0.5,1.5
		s-0.5,0.8-0.8,1.3c0.1,0.2,0,0.5-0.3,1.1c-0.3,0.5-0.4,0.9-0.5,1.1c-0.1,0.2-0.2,0.4-0.2,0.6s-0.1,0.4-0.2,0.6v0.2
		c0,0.1-0.1,0.1-0.1,0.2c0.1-0.1,0.2-0.1,0.3-0.2c0.1-0.1,0.1-0.1,0.2-0.1c0.1-0.1,0.2-0.2,0.3-0.2c0.1-0.1,0.2-0.1,0.4-0.2l0.1-0.1
		c0,0,0.1,0,0.1-0.1c0-0.3,0.2-0.5,0.5-0.5c0.1,0,0.1-0.1,0.2-0.1c0.1-0.1,0.1-0.1,0.2-0.1c0.1-0.1,0.2-0.2,0.3-0.2
		c0.1-0.3,0.3-0.5,0.5-0.7c0.1-0.1,0.2-0.1,0.3-0.2c0.1-0.1,0.2-0.1,0.4-0.2l1.6-1.6c0.1-0.2,0.2-0.3,0.3-0.5
		c0.1-0.1,0.1-0.3,0.2-0.4c0.1-0.2,0.3-0.4,0.8-0.6l0.2-0.3v-0.3c0-0.2,0-0.3,0.1-0.4s0.1-0.2,0.3-0.3c0.2-0.1,0.3-0.3,0.4-0.5
		c0.1-0.3,0.1-0.5,0.2-0.6l0.9-1.2c0.1-0.2,0.1-0.3,0.1-0.3l0.3-0.3v-0.1c0-0.1,0-0.1-0.1-0.1c-0.1-0.1-0.1-0.1-0.1-0.2
		s0.1-0.1,0.1-0.1l0.2-0.1c0.4,0,0.8,0.1,1.2,0.2c0.5,0.1,0.7,0.4,0.7,0.9c0,0.1,0,0.2,0,0.3c0,0.1,0,0.3-0.1,0.4
		c0,1.1-0.3,2.1-0.7,3.2c-0.2,0.5-0.4,1-0.6,1.5s-0.4,1-0.6,1.6l-0.5,1.4c-0.2,0.5-0.3,1-0.5,1.5c0.7-0.6,1.4-1.1,2.2-1.6
		s1.6-0.9,2.4-1.3c0.3-0.2,0.5-0.3,0.8-0.3c0.1,0,0.2,0.1,0.2,0.2c0,0.1-0.1,0.2-0.4,0.4l-0.5,0.4c-0.7,0.4-1.4,0.9-2.1,1.3
		c-0.7,0.5-1.3,1-1.9,1.5c-0.5,0.3-0.9,0.7-1.3,1.1c-0.2,0.2-0.3,0.4-0.4,0.6c-0.1,0.3-0.3,0.5-0.4,0.8c-0.1,0.1-0.1,0.2-0.2,0.3
		s-0.1,0.2-0.1,0.3c0,0.2-0.1,0.5-0.3,0.7c-0.1,0.2-0.3,0.4-0.4,0.6c-0.1,0.2-0.2,0.4-0.3,0.6c-0.1,0.2-0.2,0.4-0.3,0.6
		c-0.1,0.2-0.2,0.4-0.3,0.6c-0.1,0.1-0.1,0.2-0.2,0.3s-0.2,0.3-0.3,0.5c-0.1,0.2-0.2,0.3-0.3,0.5c-0.1,0.1-0.1,0.2-0.2,0.3
		c-0.2,0.4-0.4,0.7-0.6,0.9c-0.2,0.3-0.4,0.4-0.5,0.4H296c0-0.1,0-0.2,0.1-0.3c0-0.1,0.1-0.1,0.1-0.2c0-0.1,0.1-0.1,0.1-0.2
		c0.3-0.4,0.6-0.9,0.9-1.5s0.6-1,0.6-1.3c0-0.1,0-0.1-0.1-0.1l-0.4,0.6c-0.3,0.2-0.4,0.4-0.5,0.6l-0.4,0.7l-1.7,2.7l0.1,0.1
		c0,0.1,0,0.2-0.1,0.2s-0.1,0.1-0.1,0.1s0,0.1-0.1,0.1l-0.1,0.1c-0.1,0.1-0.2,0.3-0.2,0.5v0.1l0.1,0.1c0,0.1-0.1,0.2-0.2,0.2
		l-0.3,0.1l-0.1,0.1c-0.1,0.2-0.2,0.4-0.3,0.5c-0.1,0.2-0.2,0.4-0.4,0.7s-0.4,0.4-0.6,0.4c-0.3,0.4-0.6,0.8-0.9,1.2
		s-0.5,0.9-0.7,1.4c0,0,0,0.1,0.1,0.1v0.1c0,0.1-0.1,0.2-0.2,0.2h-0.1l-0.1-0.1l-0.1-0.1c0,0-0.1,0-0.1-0.1
		c-0.1,0.4-0.2,0.6-0.5,0.7c-0.1,0.2-0.2,0.3-0.4,0.4c-0.1,0-0.3,0.1-0.5,0.3h-0.1c-0.1,0.1-0.2,0.3-0.3,0.4
		c-0.2,0.1-0.3,0.2-0.4,0.2l-0.1,0.1h-0.1l-0.1,0.1c-0.1,0.2-0.3,0.3-0.5,0.4c-0.2,0.1-0.4,0.2-0.6,0.3c-0.1,0.2-0.3,0.4-0.6,0.6
		c-0.3,0.3-0.5,0.4-0.7,0.4h-0.2C285.2,55,284.9,55.1,284.7,55.1L284.7,55.1z M285.2,52.9c0.2-0.1,0.4-0.1,0.6-0.2
		c0.2-0.1,0.4-0.2,0.5-0.3c0.3-0.3,0.7-0.7,1.3-1.3c0.6-0.6,1.2-1.3,1.8-2.1c0.6-0.8,1.2-1.5,1.7-2.1s0.9-1.3,1.5-2
		c0.5-0.7,1-1.4,1.4-2.1c0.4-0.7,0.7-1.2,0.7-1.5c-0.5,0.5-0.9,0.9-1.4,1.4s-0.9,0.9-1.4,1.4c-1,1-2,2-2.9,3c-0.5,0.6-1.1,1.3-1.5,2
		c-0.5,0.7-0.9,1.3-1.4,2c-0.2,0.3-0.4,0.6-0.6,0.8C285.4,52.2,285.2,52.5,285.2,52.9C285.2,52.8,285.2,52.8,285.2,52.9L285.2,52.9z
		" />
                        <path id="gg1" d="M325.5,41.6c-0.1,0-0.2-0.1-0.2-0.2c0-0.2-0.1-0.2-0.2-0.2c-0.2,0-0.4,0.1-0.6,0.2c-0.2,0.1-0.5,0.1-0.7,0.1
		c-0.1,0-0.3-0.1-0.5-0.2c-0.2-0.1-0.3-0.3-0.3-0.4l0.1-0.1l0.1-0.1c0,0,0-0.1-0.1-0.1s-0.1,0-0.1,0.1h-0.1l-1,0.1h-0.5
		c-0.2,0-0.3,0-0.5,0.1l-0.1-0.1c0.1,0,0.1,0,0.1-0.1v-0.1c0.1,0,0.2-0.1,0.3-0.1c0.1,0,0.2-0.1,0.2-0.2l-0.1-0.1h-1.4
		c-0.1-0.1-0.3-0.3-0.5-0.4c-0.3-0.2-0.4-0.3-0.4-0.5c0,0,0-0.1,0.1-0.1c0,0,0.1-0.1,0.1-0.2c-0.6-0.4-1.1-1-1.4-1.7
		s-0.5-1.5-0.6-2.4s-0.1-1.6-0.1-2.4v-0.3c0-0.1,0.1-0.2,0.1-0.2l0.1,0.1l0.1-0.1h0.1c-0.1-0.2-0.1-0.3-0.1-0.4v-0.4
		c0-0.5,0.1-1.1,0.2-1.8c0-0.1,0-0.1,0-0.2s0-0.2,0.1-0.3c0-0.1,0-0.1,0.1-0.1v0.1l0.8-2.5c0.1-0.1,0.2-0.2,0.3-0.3l0.3-0.3
		c0.1-0.1,0.2-0.2,0.3-0.3c0.1-0.1,0.2-0.2,0.3-0.4c0-0.1,0.2-0.4,0.4-0.8c0.2-0.4,0.5-0.9,0.7-1.5c0.3-0.5,0.6-1,0.8-1.4
		c0.3-0.4,0.5-0.6,0.7-0.7c0-0.1,0.1-0.2,0.1-0.4c0.1-0.1,0.1-0.2,0.2-0.4s0.1-0.2,0.2-0.4s0.1-0.2,0.1-0.4c0.2-0.2,0.3-0.4,0.5-0.6
		s0.4-0.3,0.6-0.5c0.1,0,0.2-0.2,0.4-0.4l0.1-0.1h0.1l0.1-0.1l0.2-0.1l-0.2-0.1c0.8-1.3,1.8-2.6,3.2-3.8c1.4-1.2,2.9-2.3,4.5-3.3
		c1.4-0.9,2.9-1.8,4.4-2.6c0.1-0.2,0.1-0.3,0.1-0.3c0-0.1,0.1-0.1,0.2-0.1c0.2-0.1,0.3-0.1,0.5-0.2c0.2-0.1,0.3-0.2,0.5-0.2l1-0.4
		c1.1-0.5,2-0.9,2.8-1.3s1.6-0.7,2.4-1s1.7-0.5,2.8-0.7c0.3,0,0.5-0.1,0.8-0.1s0.6,0,0.8,0c0.5,0,1.1-0.1,1.6-0.1
		c0.4,0.1,0.8,0.3,1.2,0.7s0.7,0.8,1,1.2c0.3,0.4,0.4,0.9,0.4,1.2c0,0.7-0.3,1.2-0.8,1.5c-0.2,0.1-0.4,0.2-0.7,0.3l-0.7,0.3
		c-0.3,0.1-0.5,0.2-0.7,0.3s-0.5,0.2-0.7,0.4c-0.3,0.1-0.5,0.2-0.8,0.3s-0.5,0.2-0.8,0.3c-0.6,0.2-1.4,0.6-2.3,1
		c-1,0.4-2,0.9-3.1,1.5s-2.2,1.2-3.2,1.8c-1.1,0.6-2.1,1.3-3,2.1c-0.9,0.7-1.7,1.4-2.3,2.1c-0.7,0.7-1.1,1.4-1.2,2.1
		c-0.1,0.1-0.2,0.1-0.3,0.1c-0.2,0-0.3-0.1-0.3-0.4c0-0.1,0.1-0.2,0.1-0.2c0.5-1.5,1.3-2.9,2.6-4.1c1.2-1.2,2.6-2.2,4.2-3.1
		c1.6-0.9,3.1-1.6,4.5-2.3c1.1-0.5,2.2-1,3.4-1.5c1.1-0.5,2.2-1,3.4-1.5l0.3-0.2c0.1-0.1,0.2-0.1,0.2-0.2h0.1l0.1-0.1l-0.1-0.1
		c-0.1,0-0.1,0-0.2-0.1c-0.1,0-0.2-0.1-0.1-0.2c-0.3,0.1-0.6,0.2-1.1,0.3s-0.8,0.2-1.1,0.2c-0.2,0-0.2-0.1-0.2-0.1h-0.1
		c-0.2,0-0.6,0.1-1.3,0.3c-0.6,0.2-1.3,0.4-2.1,0.7c-0.8,0.3-1.5,0.6-2.3,0.9c-0.8,0.3-1.4,0.6-1.9,0.8c-0.5,0.2-0.9,0.4-1,0.4
		c-0.6,0.3-1.2,0.7-1.7,1.2c-0.3,0.2-0.6,0.4-0.9,0.6s-0.6,0.4-0.9,0.6c0.1,0,0.2,0,0.3,0.1c0.1,0,0.2,0.1,0.1,0.2
		c-0.2,0-0.5,0.1-1,0.3c-0.5,0.2-0.9,0.4-1.3,0.6s-0.7,0.4-0.7,0.6l0.1-0.1c0,0,0.1,0,0.1-0.1c0,0,0.1-0.1,0.2-0.1
		c0,0,0.1,0,0.1,0.1l-0.1,0.3c-0.6,0.2-1.3,0.6-2,1.2s-1.6,1.4-2.5,2.3s-1.7,1.8-2.5,2.8s-1.5,1.9-2.1,2.7c-0.6,0.8-1.1,1.5-1.5,2.1
		c-0.8,1.3-1.5,2.7-2.1,4.3c-0.6,1.6-0.9,3.2-0.9,4.7c0,3.3,1.7,4.9,5,4.9h1c0.1,0,0.2,0,0.3-0.1v-0.1c0.2-0.2,0.4-0.3,0.7-0.3
		c0,0,0.1,0,0.1,0.1h0.1c0.1-0.2,0.2-0.2,0.3-0.2l0.4-0.1l0.7,0.2v-0.1c0.2-0.2,0.4-0.3,0.8-0.5s0.7-0.3,0.8-0.3h0.1
		c0,0,0.1,0,0.1-0.1l0.2-0.1c0.3-0.2,0.5-0.4,0.7-0.6l0.6-0.6l0.4-0.2l-0.1,0.4l0.3-0.1v-0.1c0-0.1,0.1-0.2,0.1-0.2l0.1-0.1l0.2-0.1
		c0.2-0.1,0.5-0.4,1.1-0.9s1.2-1,1.9-1.5s1.3-1.1,1.9-1.5s1-0.7,1.2-0.7l-0.1-0.1c0.4-0.4,0.9-0.8,1.6-1.3s1.3-1.1,1.9-1.6
		s0.9-0.9,1-1.3h0.3c0,0.3-0.1,0.3-0.2,0.3l-0.8,1.6l-0.5,0.4c-0.1,0.1-0.2,0.1-0.3,0.2c-0.1,0.1-0.2,0.1-0.2,0.2
		c-0.8,0.9-1.8,1.9-2.9,2.9s-2.3,2.1-3.4,3.1c-1.2,1-2.3,1.8-3.4,2.3c-0.2,0.1-0.4,0.2-0.7,0.3c-0.3,0.1-0.5,0.3-0.5,0.4l0.3-0.1
		l-1.9,1.1l0.1-0.1c-0.1,0-0.3,0.1-0.7,0.3c-0.4,0.1-0.8,0.3-1.3,0.5s-0.9,0.4-1.3,0.5C325.7,41.5,325.5,41.6,325.5,41.6L325.5,41.6
		z M322.5,62c-0.9,0-1.6-0.2-2.1-0.6c-0.5-0.4-0.8-1.1-0.8-2c0-0.6,0.1-1.1,0.2-1.5l0.4-1.5l0.2-0.1l0.4-1.1l0.4-1.1
		c0.2-0.4,0.4-0.7,0.7-1.1c0.3-0.4,0.5-0.7,0.7-1.1c0.6-1.1,1.1-2,1.5-2.7s0.8-1.3,1.3-1.9c0.5-0.6,1.3-1.3,2.3-2.1
		c0-0.2,0.1-0.3,0.3-0.4c0.1,0,0.1-0.1,0.1-0.1l0.1-0.1l-0.1-0.1c0-0.1,0.1-0.1,0.2-0.1s0.2-0.1,0.2-0.1v-0.1l2.5-2.3
		c0,0,0-0.1,0.1-0.3s0.1-0.3,0.1-0.3h0.1c0,0.4-0.1,0.7-0.2,1h0.1c0,0,0.1-0.1,0.1-0.2c0.1-0.1,0.1-0.2,0.1-0.2v-0.2
		c0.5-0.4,1-1,1.4-1.5l0.1,0.2l0.5-0.6v-0.1c0.1,0,0.3-0.1,0.7-0.4c0.4-0.3,0.8-0.6,1.3-0.9c0.5-0.3,0.9-0.7,1.3-1s0.6-0.5,0.6-0.6
		l0.1-0.1l3.9-1.8l0.5,0.1c0.1-0.3,0.3-0.5,0.5-0.7c0,0,0-0.1,0.1-0.1h0.1v0c0.3-0.3,0.8-0.5,1.2-0.6l0.1-0.1
		c0.1-0.1,0.1-0.1,0.1-0.1c0-0.1,0-0.2-0.1-0.2s-0.1-0.1-0.1-0.2c0-0.2,0.1-0.4,0.2-0.6c0.1-0.2,0.2-0.4,0.2-0.6v-0.1H344
		c0,0,0,0.1-0.1,0.1c0,0-0.1,0-0.1-0.1c0-0.3,0.1-0.6,0.3-0.9c0.1-0.2,0.2-0.5,0.3-0.8l0.1-1c0-0.2,0.1-0.3,0.1-0.5
		c0-0.1,0-0.3,0-0.4s0-0.2,0-0.3c0-0.1,0-0.3-0.1-0.4l-0.1,0.1v-0.1c0-0.3,0-0.5,0-0.8s0-0.6,0.1-0.9c0-0.3,0.1-0.6,0.1-0.9
		s0-0.6,0.1-0.8c0.3-0.3,0.7-0.5,1.2-0.5s0.9,0.2,1.3,0.5s0.8,0.7,1,1.1l-0.1,0.1l0.1,0.3c0.1,0.1,0.1,0.2,0,0.3
		c0,0.1,0.1,0.3,0.1,0.7c0,0.5-0.1,1-0.1,1.5c-0.2,0.5-0.3,1.1-0.3,1.5s-0.1,0.7-0.3,1c-0.1,0.1-0.2,0.3-0.3,0.5
		c-0.1,0.2-0.1,0.3-0.1,0.5v0.4c0,0.2,0,0.3-0.1,0.4c-0.1,0.1-0.1,0.1-0.2,0.1s-0.2,0.1-0.2,0.2c0,0.1,0,0.2,0.1,0.2
		c0,0.1,0.1,0.1,0.1,0.2c0,0.1,0,0.1-0.1,0.2c0,0.1-0.1,0.1-0.1,0.2h0.6c0.9,0,1.8,0.1,2.5,0.4c0.8,0.2,1.1,0.9,1.1,1.9
		c0,0.2-0.1,0.4-0.2,0.5s-0.2,0.2-0.2,0.4c-0.1,0.1-0.1,0.1-0.1,0.2c0,0.1-0.1,0.1-0.2,0.1s-0.1,0-0.1-0.1c0,0,0-0.1-0.1-0.1
		c0-0.2,0.1-0.4,0.2-0.6c0.1-0.2,0.1-0.4,0.1-0.6c0-0.3-0.2-0.5-0.5-0.7s-0.7-0.3-1.1-0.4s-0.7-0.1-1-0.1s-0.5,0-0.7,0
		s-0.4,0.1-0.7,0.1c0.1,0.1,0.1,0.2,0.1,0.3l-0.1,0.6c-0.1,0.3-0.2,0.5-0.2,0.5c-0.5,1.3-1.1,2.6-1.9,4s-1.5,2.7-2.3,4.1
		c-0.5,0.7-1,1.6-1.6,2.5s-1.2,1.9-1.8,2.8c-0.6,0.9-1.1,1.7-1.6,2.4c-0.2,0.4-0.5,0.7-0.7,1.1c-0.3,0.4-0.5,0.8-0.8,1.1
		c-0.3,0.4-0.5,0.7-0.8,1.1c-0.3,0.4-0.5,0.7-0.7,1.1c-0.5,0.8-1,1.4-1.4,1.8c-0.5,0.4-1,0.8-1.5,1.1c-0.5,0.4-1.2,0.9-1.9,1.5
		c-0.4,0-0.9,0.2-1.4,0.4s-1.1,0.2-1.5,0.2c-0.1,0.1-0.3,0.2-0.6,0.3s-0.6,0.3-0.9,0.4c-0.3,0.1-0.5,0.2-0.6,0.1
		C323.6,62,323.1,62,322.5,62L322.5,62z M322.9,60.8c0.2,0,0.5,0,1-0.1s0.9-0.1,1.4-0.3c0.5-0.1,0.8-0.2,1-0.3s0.5-0.3,0.9-0.7
		s0.9-0.7,1.3-1.1c0.5-0.4,0.8-0.7,1-0.9s0.5-0.5,0.8-0.9s0.6-0.8,0.7-1c0.5-0.6,1.1-1.4,1.8-2.2c0.7-0.9,1.4-1.7,2-2.6
		c0.7-0.9,1.2-1.8,1.7-2.6s0.8-1.6,0.8-2.2l0.8-0.8h0.1c0.3-0.4,0.5-0.9,0.7-1.3c0.2-0.4,0.4-0.9,0.7-1.3c0.1-0.3,0.3-0.6,0.6-0.9
		c0.1-0.2,0.2-0.3,0.3-0.5c0.1-0.1,0.2-0.3,0.3-0.5c0.1-0.2,0.3-0.5,0.5-1c0.3-0.4,0.5-0.9,0.7-1.3c0.2-0.4,0.3-0.7,0.3-0.9v-0.1
		c0.1-0.3,0.2-0.6,0.3-1c0.1-0.2,0.1-0.3,0.2-0.5s0.1-0.3,0.2-0.5c-0.7,0.3-1.4,0.6-2.1,0.9c-0.7,0.3-1.3,0.6-2,0.9
		c-0.1,0.1-0.3,0.1-0.4,0.2c-0.1,0.1-0.2,0.1-0.4,0.2c-0.3,0.1-0.5,0.3-0.7,0.4c-0.3,0.2-0.6,0.4-0.9,0.7c-0.3,0.2-0.6,0.5-0.9,0.7
		s-0.6,0.4-0.9,0.7c-0.3,0.2-0.6,0.4-0.9,0.7l-1,0.7c0,0-0.1,0.1-0.2,0.2c-0.1,0.1-0.2,0.1-0.2,0.1l0.1-0.1l-3.6,3.2h-0.1
		c-1.1,1.1-2.1,2.3-3,3.6c-0.2,0.3-0.4,0.6-0.6,1c-0.2,0.3-0.3,0.7-0.5,1s-0.3,0.6-0.6,1c-0.2,0.3-0.4,0.7-0.7,1
		c-0.2,0.3-0.3,0.5-0.5,0.8s-0.4,0.5-0.6,0.7c-0.1,0.4-0.3,0.9-0.5,1.4c-0.2,0.6-0.4,1.1-0.6,1.7s-0.3,1-0.3,1.3
		c0,0.6,0.1,1.2,0.4,1.6C321.7,60.6,322.2,60.8,322.9,60.8L322.9,60.8z" />
                        <path id="ga1" d="M362.3,40.3c-0.3-0.4-0.7-0.7-1-0.9s-0.6-0.4-0.9-0.7c-0.2-0.3-0.4-0.6-0.4-1.1h0.1l-0.1-0.7l-0.1,0.1l-0.1,0.1
		c0-0.1,0.1-0.2,0.1-0.4c0-0.1,0.1-0.2,0.1-0.3c0-0.2,0.1-0.3,0.1-0.5c0-0.1,0-0.3,0-0.5c0-0.4,0-0.8,0.1-1.2s0.1-0.8,0.2-1.2
		s0.2-0.8,0.3-1.2s0.2-0.8,0.2-1.3h0.1l0.5-1.2l-0.1-0.2c-0.1,0.1-0.1,0.2-0.1,0.2c0,0.1-0.1,0.1-0.1,0.2c-0.4,0.5-0.8,1.1-1.3,1.9
		c-0.5,0.7-1,1.4-1.5,2s-1,1.1-1.4,1.3c-0.3,0.2-0.4,0.3-0.5,0.4c-0.1,0.1-0.2,0.3-0.3,0.6c-0.3,0.1-0.6,0.3-0.9,0.6
		c-0.3,0.4-0.6,0.7-0.9,1s-0.6,0.5-1,0.5l-0.1,0.2c-0.2,0.2-0.5,0.3-0.8,0.4c-0.3,0.1-0.6,0.1-0.9,0.2c-0.7-0.3-1.4-0.6-2.1-1.1
		c-0.7-0.4-1-1.1-1-1.9c0-0.3,0.1-0.6,0.1-0.8h0.1v-0.2c-0.1-0.1-0.1-0.3-0.1-0.4c0-0.2,0.1-0.2,0.1-0.2l0.1,0.1
		c0.1-0.1,0.1-0.3,0.1-0.5s0-0.4,0-0.4l0.1-0.1c0-0.2,0.1-0.5,0.3-0.7c0.2-0.3,0.4-0.5,0.7-0.7c0.2-0.2,0.3-0.4,0.3-0.5l0.1-0.1
		c0-0.2,0-0.3-0.1-0.4c-0.1-0.1-0.1-0.2-0.1-0.3v-0.2h0.2l0.1-0.2v-0.1c-0.1-0.1-0.1-0.1-0.1-0.1v-0.1c0-0.1,0-0.2,0.1-0.2l0.1-0.1
		v-0.1c0,0,0-0.1,0.1-0.1v-0.1l0.2-0.2c0.1-0.1,0.2-0.2,0.3-0.2c0.3-0.4,0.5-0.7,0.6-1h0.2l0.1,0.1c0-0.1-0.1-0.1-0.1-0.1v-0.1
		c0-0.3,0.2-0.6,0.7-1.1c0.4-0.5,1-1,1.6-1.6s1.2-1.1,1.8-1.6c0.6-0.5,1-0.9,1.3-1.2v-0.2h0.1c0.1-0.1,0.3-0.2,0.4-0.3
		s0.3-0.3,0.5-0.4c0.3-0.3,0.6-0.5,0.8-0.5l0.1-0.2l0.3-0.1l0.1-0.1l0.1-0.1c0.1,0,0.1-0.1,0.1-0.1s0.1,0,0.1-0.1l0.1-0.1l0.1-0.1
		v-0.1c0,0,0-0.1,0.1-0.1l0.9-0.3l0.1,0.1l0.7-0.3l0.1-0.1h0.1l0.6-0.1l0.3-0.2l0.1-0.1v0.1l0.1-0.1l0.1,0.1
		c0.3-0.1,0.6-0.2,0.9-0.2s0.7,0.1,1.2,0.1c0.5,0.1,0.9,0.2,1.3,0.5c0.4,0.2,0.7,0.5,0.7,0.8V20l-1,0.6c0.1-0.2,0.1-0.3,0.1-0.3
		v-0.1c0-0.1-0.1-0.1-0.2-0.1h-0.3c-0.7,0-1.3,0.2-1.9,0.6s-1.1,0.8-1.6,1.2c-0.3,0.1-0.6,0.3-0.9,0.6c-0.3,0.3-0.6,0.6-0.9,0.7
		c-1.3,1-2.4,1.9-3.4,2.9c-1,0.9-2,2.1-2.9,3.4c-0.2,0.3-0.4,0.6-0.6,1c-0.3,0.4-0.5,0.7-0.7,0.8c-0.2,0.3-0.3,0.6-0.5,0.9
		c-0.2,0.3-0.3,0.6-0.4,0.9s-0.3,0.6-0.4,0.9c-0.2,0.3-0.3,0.6-0.5,0.8c0,0.4-0.1,0.8-0.1,1.1c-0.1,0.2-0.1,0.4-0.1,0.5
		s-0.1,0.2-0.1,0.3s0,0.2-0.1,0.2l0.2,0.4c0.4-0.2,0.9-0.4,1.4-0.6c0.5-0.3,0.8-0.5,0.8-0.9l0.3-0.1h0.1v-0.1
		c0.1-0.1,0.1-0.1,0.1-0.1h0.1l0.1-0.2v-0.1l0.2,0.2l0.6-0.6c0-0.2,0.1-0.3,0.3-0.3c0.5-0.4,1-1,1.4-1.6c0.2-0.3,0.5-0.6,0.7-0.9
		c0.2-0.3,0.5-0.6,0.7-0.8h0.1l0.6-0.8l0.3-0.2l0.7-0.9h0.1c0.1-0.2,0.2-0.4,0.3-0.6l0.1,0.1l0.4-0.5l-0.1-0.1
		c0.2-0.3,0.3-0.5,0.5-0.8s0.4-0.5,0.6-0.7c0.2-0.3,0.4-0.5,0.6-0.8s0.3-0.5,0.5-0.8c0-0.2,0.1-0.4,0.2-0.6c0.2-0.2,0.4-0.3,0.6-0.3
		l0.3,0.1c0.1-0.2,0.2-0.6,0.2-1.1c0.2,0,0.3,0,0.4-0.1l0.3-0.1v0.1l0.4,0.1c0.1-0.1,0.2-0.1,0.3-0.1c0.3,0,0.5,0.1,0.8,0.2
		s0.5,0.3,0.7,0.5c0,0.1,0,0.1,0.1,0.1c0,0,0-0.1,0.1-0.1h0.2c0.4,0,0.6,0.2,0.6,0.5v0.1c-0.2,0.2-0.3,0.4-0.5,0.7
		c-0.1,0.2-0.3,0.4-0.4,0.7c-0.3,0.4-0.6,0.8-1.1,1.2v0.1l-0.8,1.1l0.1,0.2l-1.6,2l-0.1,0.1c-0.1,0.2-0.1,0.4-0.2,0.6
		c-0.1,0.2-0.2,0.4-0.3,0.6l-0.4,0.1c0.1,0.1,0.1,0.1,0.1,0.2c0,0.1,0,0.2,0.1,0.2c-0.3,0.5-0.5,1-0.7,1.4c-0.2,0.5-0.2,1-0.2,1.5
		c-0.1,0.1-0.2,0.1-0.2,0.3c0,0.1,0,0.2,0,0.3c0,0.2,0,0.3,0,0.5c0,0.1,0,0.3,0.1,0.5s0.1,0.3,0.1,0.5s0.1,0.3,0.1,0.5l0.5-0.3h0.1
		l0.1-0.1l0.1-0.1c0-0.1,0.1-0.2,0.1-0.3l0.1,0.4l0.4-0.2v0.2h0.1c0.1,0,0.2-0.1,0.3-0.3c0.1-0.1,0.1-0.1,0.2-0.2
		c0.1-0.1,0.2-0.1,0.3-0.1l0.1-0.1v-0.1c0-0.2,0.1-0.3,0.3-0.4c0.1,0,0.2-0.1,0.3-0.1c0.1-0.1,0.2-0.1,0.2-0.1h0.1l1.3-1.2h0.1
		c0.1-0.1,0.2-0.2,0.4-0.4c0.2-0.2,0.4-0.3,0.6-0.4v-0.3l0.3-0.1h0.1l1.1-1.5c0,0,0,0.1,0.1,0.1s0.1,0,0.1,0.1c0,0,0.1-0.1,0.2-0.2
		c0.1-0.1,0.1-0.2,0.1-0.3l0.1-0.1c0.1-0.1,0.1-0.1,0.3-0.1c0.1-0.1,0.2-0.1,0.2-0.1c0.1,0,0.1,0,0.1-0.1c-0.4,0.7-0.7,1.3-0.9,1.8
		c-0.3,0.5-0.5,1.1-0.8,1.6s-0.5,1.1-0.9,1.6c-0.3,0.5-0.7,1-1.2,1.5l-0.2-0.2l0.3-0.4l-0.1-0.3l-0.1,0.1v0.2l-0.3,0.3
		c0,0.4-0.2,0.7-0.4,0.9h-0.2l-0.1-0.1v0.2l-0.3,0.3l-0.1-0.1l-0.6,0.8v-0.1l-0.1,0.1c-0.1,0-0.1,0.1-0.2,0.1s-0.1,0.1-0.2,0.1
		c-0.2,0.1-0.3,0.2-0.3,0.3L362.3,40.3L362.3,40.3z M367.1,36.5c0-0.1,0-0.2,0.1-0.2l0.1-0.1l-0.2,0.1h0.1L367.1,36.5L367.1,36.5
		L367.1,36.5L367.1,36.5z" />
                        <path id="gr" d="M376.4,35.9c-0.1,0-0.2,0-0.2-0.1c0,0-0.1,0.1-0.3,0.1c-0.4,0-0.8-0.3-1.3-0.9c-0.4-0.6-0.6-1.1-0.6-1.5
		c0-0.7,0.2-1.5,0.6-2.3l1.1-2.2c0.2-0.4,0.3-0.6,0.3-0.8l-0.2-0.4l-0.2-0.2l-0.2-0.2l-0.2-0.2c-0.2-0.2-0.4-0.5-0.6-0.8
		s-0.3-0.6-0.4-1c-0.1,0.1-0.2,0.3-0.4,0.7s-0.5,0.8-0.7,1.2c-0.2,0.4-0.4,0.6-0.5,0.6s-0.1,0-0.1-0.1l-0.1-0.1
		c-0.1,0-0.1,0.1-0.2,0.4c-0.1,0.2-0.3,0.5-0.5,0.8c-0.2,0.4-0.5,0.7-0.7,1s-0.4,0.5-0.6,0.5c-0.1,0-0.2-0.1-0.2-0.2
		c0-0.1,0.1-0.3,0.2-0.6c0.1-0.3,0.3-0.5,0.5-0.8s0.3-0.4,0.4-0.5c0.4-0.5,0.7-1,1-1.4s0.5-0.8,0.7-1.3c0.2-0.4,0.4-0.8,0.6-1.3
		c0.2-0.4,0.5-0.9,0.7-1.5c0.1-0.4,0.2-0.9,0.3-1.4c0.5-1.4,1.1-2.7,1.7-3.8c0.7-1.2,1.6-2.3,2.5-3.3c0.2-0.2,0.5-0.5,0.8-0.8
		c0.3-0.3,0.6-0.7,0.9-0.9c0.3-0.3,0.6-0.4,0.8-0.4c0.2,0,0.4,0.1,0.7,0.2c0.1,0.1,0.2,0.1,0.3,0.2c0.1,0.1,0.2,0.1,0.3,0.2l1,0.5
		c0.4,0.2,0.5,0.5,0.5,0.9c0,0.2,0,0.3-0.1,0.3c-0.1,0.3-0.4,0.7-0.9,1.1s-1.1,0.8-1.7,1.2c-0.6,0.4-1.1,0.8-1.5,1.2
		c-0.6,0.5-1.1,1.1-1.5,1.7s-0.8,1.3-1.2,2.1c0,0.1-0.1,0.2-0.1,0.3c-0.1,0.1-0.1,0.2-0.1,0.3c0,0.2-0.1,0.5-0.2,0.8
		c0,0.1-0.1,0.1-0.1,0.2s-0.1,0.2-0.1,0.3c0,0.2,0,0.3,0.1,0.3c0,0.1,0.1,0.2,0.1,0.4c0,0.2,0,0.3-0.1,0.4c0,0.1-0.1,0.2-0.1,0.4
		c0,0.3,0.2,0.7,0.5,1c0.4,0.3,0.7,0.6,1,1c0.3,0.3,0.5,0.8,0.5,1.2c0,0.4-0.1,0.9-0.4,1.4s-0.5,1.1-0.9,1.6c-0.3,0.5-0.6,1-0.8,1.5
		l-0.2,0.6l-0.1,0.3c0,0.1,0,0.1,0.1,0.1l0.1,0.1c0.3,0,0.7-0.2,1.2-0.6c0.5-0.4,1-0.9,1.5-1.4s0.9-0.8,1.1-1
		c0.4-0.4,0.7-0.9,1.1-1.3s0.6-0.9,0.9-1.4c0.1-0.2,0.2-0.3,0.3-0.6c0.1-0.2,0.3-0.3,0.5-0.3s0.3,0.1,0.3,0.3c0,0.2-0.2,0.6-0.5,1.1
		c-0.3,0.6-0.7,1.1-1.1,1.7c-0.4,0.5-0.7,0.9-0.8,1.1l-0.1,0.1v0.1c-0.1,0.2-0.2,0.4-0.4,0.4c0,0-0.1,0.1-0.1,0.2s-0.1,0.2-0.1,0.2
		c0,0.1-0.1,0.1-0.1,0.2l-0.2,0.1c0,0.1-0.1,0.2-0.3,0.3l-0.3,0.3c0,0-0.1,0-0.1,0.1s0,0.1-0.1,0.1c0,0.2-0.2,0.3-0.4,0.3
		c-0.1,0.1-0.2,0.3-0.3,0.5s-0.3,0.3-0.4,0.3c-0.2,0.2-0.4,0.3-0.6,0.3l-0.1,0.1c0,0,0,0.1-0.1,0.1c-0.1,0.2-0.2,0.2-0.4,0.2
		C376.6,35.9,376.5,35.9,376.4,35.9L376.4,35.9z" />
                        <path id="ga2" d="M393.1,40.3c-0.3-0.4-0.7-0.7-1-0.9s-0.6-0.4-0.9-0.7s-0.4-0.6-0.4-1.1h0.1l-0.1-0.7l-0.1,0.1l-0.1,0.1
		c0-0.1,0.1-0.2,0.1-0.4c0-0.1,0.1-0.2,0.1-0.3c0-0.2,0.1-0.3,0.1-0.5c0-0.1,0-0.3,0-0.5c0-0.4,0-0.8,0.1-1.2s0.1-0.8,0.2-1.2
		s0.2-0.8,0.3-1.2c0.1-0.4,0.2-0.8,0.2-1.3h0.1l0.5-1.2l-0.1-0.2c-0.1,0.1-0.1,0.2-0.1,0.2c0,0.1-0.1,0.1-0.1,0.2
		c-0.4,0.5-0.8,1.1-1.3,1.9c-0.5,0.7-1,1.4-1.5,2s-1,1.1-1.4,1.3c-0.3,0.2-0.4,0.3-0.5,0.4c-0.1,0.1-0.2,0.3-0.3,0.6
		c-0.3,0.1-0.6,0.3-0.9,0.6c-0.3,0.4-0.6,0.7-0.9,1s-0.6,0.5-1,0.5l-0.2,0.4c-0.2,0.2-0.5,0.3-0.8,0.4s-0.6,0.1-0.9,0.2
		c-0.7-0.3-1.4-0.6-2.1-1.1s-1-1.1-1-1.9c0-0.3,0.1-0.6,0.1-0.8h0.1v-0.2c-0.1-0.1-0.1-0.3-0.1-0.4c0-0.2,0.1-0.2,0.1-0.2l0.1,0.1
		c0.1-0.1,0.1-0.3,0.1-0.5s0-0.4,0-0.4l0.1-0.1c0-0.2,0.1-0.5,0.3-0.7c0.2-0.3,0.4-0.5,0.7-0.7s0.3-0.4,0.3-0.5l0.1-0.1
		c0-0.2,0-0.3-0.1-0.4c-0.1-0.1-0.1-0.2-0.1-0.3v-0.4h0.2l0.1-0.2v-0.1c-0.1-0.1-0.1-0.1-0.1-0.1v-0.1c0-0.1,0-0.2,0.1-0.2l0.1-0.1
		v-0.1c0,0,0-0.1,0.1-0.1v-0.1l0.2-0.2c0.1-0.1,0.2-0.2,0.3-0.2c0.3-0.4,0.5-0.7,0.6-1h0.2l0.1,0.1c0-0.1-0.1-0.1-0.1-0.1v-0.1
		c0-0.3,0.2-0.6,0.7-1.1c0.4-0.5,1-1,1.6-1.6s1.2-1.1,1.8-1.6c0.6-0.5,1-0.9,1.3-1.2v-0.2h0.1c0.1-0.1,0.3-0.2,0.4-0.3
		c0.2-0.1,0.3-0.3,0.5-0.4c0.3-0.3,0.6-0.5,0.8-0.5l0.1-0.2l0.3-0.1l0.1-0.1l0.1-0.1c0.1,0,0.1-0.1,0.1-0.1s0.1,0,0.1-0.1l0.1-0.1
		l0.1-0.1v-0.1c0,0,0-0.1,0.1-0.1l0.9-0.3l0.1,0.1l0.7-0.3l0.1-0.1h0.1l0.6-0.1l0.3-0.2l0.1-0.1v0.1l0.1-0.1l0.1,0.1
		c0.3-0.1,0.6-0.2,0.9-0.2s0.7,0.1,1.2,0.1c0.5,0.1,0.9,0.2,1.3,0.5c0.4,0.2,0.7,0.5,0.7,0.8V20l-1,0.6c0.1-0.2,0.1-0.3,0.1-0.3
		v-0.1c0-0.1-0.1-0.1-0.2-0.1h-0.3c-0.7,0-1.3,0.2-1.9,0.6s-1.1,0.8-1.6,1.2c-0.3,0.1-0.6,0.3-0.9,0.6s-0.6,0.6-0.9,0.7
		c-1.3,1-2.4,1.9-3.4,2.9c-1,0.9-2,2.1-2.9,3.4c-0.2,0.3-0.4,0.6-0.6,1c-0.3,0.4-0.5,0.7-0.7,0.8c-0.2,0.3-0.3,0.6-0.5,0.9
		c-0.2,0.3-0.3,0.6-0.4,0.9c-0.1,0.3-0.3,0.6-0.4,0.9c-0.2,0.3-0.3,0.6-0.5,0.8c0,0.4-0.1,0.8-0.1,1.1c-0.1,0.2-0.1,0.4-0.1,0.5
		s-0.1,0.2-0.1,0.3s0,0.2-0.1,0.2l0.2,0.4c0.4-0.2,0.9-0.4,1.4-0.6c0.5-0.3,0.8-0.5,0.8-0.9l0.3-0.1h0.1v-0.1
		c0.1-0.1,0.1-0.1,0.1-0.1h0.1l0.1-0.2v-0.1l0.2,0.2l0.6-0.6c0-0.2,0.1-0.3,0.3-0.3c0.5-0.4,1-1,1.4-1.6c0.2-0.3,0.5-0.6,0.7-0.9
		c0.2-0.3,0.5-0.6,0.7-0.8h0.1l0.6-0.8l-0.1-0.2l0.7-0.9h0.1c0.1-0.2,0.2-0.4,0.3-0.6l0.1,0.1l0.4-0.5l-0.1-0.1
		c0.2-0.3,0.3-0.5,0.5-0.8s0.4-0.5,0.6-0.7c0.2-0.3,0.4-0.5,0.6-0.8s0.3-0.5,0.5-0.8c0-0.2,0.1-0.4,0.2-0.6s0.4-0.3,0.6-0.3l0.3,0.1
		c0.1-0.2,0.2-0.6,0.2-1.1c0.2,0,0.3,0,0.4-0.1L395,23v0.1l0.4,0.1c0.1-0.1,0.2-0.1,0.3-0.1c0.3,0,0.5,0.1,0.8,0.2s0.5,0.3,0.7,0.5
		c0,0.1,0,0.1,0.1,0.1c0,0,0-0.1,0.1-0.1h0.2c0.4,0,0.6,0.2,0.6,0.5v0.1c-0.2,0.2-0.3,0.4-0.5,0.7c-0.1,0.2-0.3,0.4-0.4,0.7
		c-0.3,0.4-0.6,0.8-1.1,1.2v0.1l-0.8,1.1l0.1,0.2l-1.6,2l-0.1,0.1c-0.1,0.2-0.1,0.4-0.2,0.6c-0.1,0.2-0.2,0.4-0.3,0.6l-0.4,0.1
		c0.1,0.1,0.1,0.1,0.1,0.2c0,0.1,0,0.2,0.1,0.2c-0.3,0.5-0.5,1-0.7,1.4c-0.2,0.5-0.2,1-0.2,1.5c-0.1,0.1-0.2,0.1-0.2,0.3
		c0,0.1,0,0.2,0,0.3c0,0.2,0,0.3,0,0.5c0,0.1,0,0.3,0.1,0.5c0,0.2,0.1,0.3,0.1,0.5s0.1,0.3,0.1,0.5l0.5-0.3h0.1l0.1-0.1l0.1-0.1
		c0-0.1,0.1-0.2,0.1-0.3l0.1,0.4l0.4-0.2v0.2h0.1c0.1,0,0.2-0.1,0.3-0.3c0.1-0.1,0.1-0.1,0.2-0.2c0.1-0.1,0.2-0.1,0.3-0.1l0.1-0.1
		v-0.1c0-0.2,0.1-0.3,0.3-0.4c0.1,0,0.2-0.1,0.3-0.1c0.1-0.1,0.2-0.1,0.2-0.1h0.1l1.3-1.2h0.1c0.1-0.1,0.2-0.2,0.4-0.4
		c0.2-0.2,0.4-0.3,0.6-0.4v-0.3l0.3-0.1h0.1l1.1-1.5c0,0,0,0.1,0.1,0.1s0.1,0,0.1,0.1c0,0,0.1-0.1,0.2-0.2c0.1-0.1,0.1-0.2,0.1-0.3
		l0.1-0.1c0.1-0.1,0.1-0.1,0.3-0.1c0.1-0.1,0.2-0.1,0.2-0.1c0.1,0,0.1,0,0.1-0.1c-0.4,0.7-0.7,1.3-0.9,1.8c-0.3,0.5-0.5,1.1-0.8,1.6
		s-0.5,1.1-0.9,1.6s-0.7,1-1.2,1.5l-0.2-0.2l0.3-0.4l-0.1-0.3l-0.1,0.1v0.2l-0.3,0.3c0,0.4-0.2,0.7-0.4,0.9h-0.2l-0.1-0.1v0.2
		l-0.3,0.3l-0.1-0.1l-0.6,0.8v-0.1l-0.1,0.1c-0.1,0-0.1,0.1-0.2,0.1s-0.1,0.1-0.2,0.1c-0.2,0.1-0.3,0.2-0.3,0.3L393.1,40.3
		L393.1,40.3z M397.9,36.5c0-0.1,0-0.2,0.1-0.2v-0.1l-0.2,0.1h0.1l-0.1,0.2H397.9L397.9,36.5L397.9,36.5z" />
                        <path id="gg2" d="M395.4,59.3c-0.1,0-0.1-0.1-0.2-0.1c-0.7-0.3-1.4-0.6-2-1.1c-0.6-0.4-0.9-1.1-0.9-2c0-0.4,0.1-0.9,0.2-1.4
		c0.1-0.2,0.2-0.4,0.2-0.7c0.1-0.2,0.1-0.4,0.1-0.7l0.2-0.1l0.1-0.8l0.4-0.8c0.1-0.3,0.3-0.6,0.5-1s0.4-0.8,0.6-1.2s0.4-0.6,0.6-0.8
		v-0.2l0.2,0.2c0.4-0.6,0.8-1.1,1.3-1.5s1-0.8,1.5-1.2c0-0.2,0.1-0.4,0.3-0.4l-0.1-0.2l0.3-0.1l3.1-2.6l0.1-0.1c0-0.1,0-0.2-0.1-0.3
		c0.1,0,0.2,0.1,0.3,0.3c0.1,0.2,0.1,0.2,0.1,0.1v-0.1l0.1-0.1l0.1-0.1h-0.1c0,0-0.1,0-0.1-0.1l0.1-0.2l0.1-0.1
		c0.1-0.1,0.2-0.1,0.2-0.1c0.1,0,0.1,0,0.1,0.1s0,0.1,0,0.1l0.4-0.6l0.1,0.2l0.2-0.2v-0.1c0.2,0,0.5-0.2,0.8-0.5s0.6-0.5,0.6-0.7
		h0.1l1.5-0.8l0.8-0.7h0.2v0.1c0.4-0.3,0.7-0.6,1.2-0.9c0.4-0.3,0.9-0.5,1.4-0.5v-0.1l0.2,0.1c0-0.1,0.1-0.2,0.1-0.3
		s0.1-0.3,0.1-0.4l0.1-0.9c0-0.1,0.1-0.3,0.1-0.7c0.1-0.4,0.2-0.7,0.2-0.7l0.2-0.2c0.1,0,0.1,0,0.1-0.1c0,0,0-0.1-0.1-0.1h-0.1
		c-0.1-0.1-0.1-0.1-0.1-0.2c0-0.2,0.1-0.4,0.1-0.6c0.1-0.1,0.1-0.2,0.1-0.3s0-0.2,0.1-0.3H411c-0.1,0-0.1-0.1-0.1-0.2
		c0-0.3,0.1-0.5,0.3-0.8c0.2-0.3,0.2-0.5,0.2-0.7c0-0.4,0.1-0.9,0.1-1.3c0-0.2,0.1-0.4,0.1-0.6s0-0.4,0-0.6c0-0.3,0-0.4-0.1-0.5
		c0,0.1-0.1,0.1-0.1,0.2h0.1c-0.3,0.6-0.7,1.3-1.2,2.1s-0.9,1.6-1.4,2.4s-0.9,1.5-1.3,2c-0.7,1-1.6,2-2.5,2.9s-1.9,1.6-3.1,2.2
		l-0.1-0.1c-0.1,0.1-0.3,0.2-0.5,0.2s-0.3,0.1-0.5,0.1c-0.7,0-1.3-0.3-1.6-0.9c-0.3-0.6-0.5-1.3-0.5-1.9c0-0.5,0-1.1,0.1-1.7
		c0.1-0.6,0.2-1.1,0.5-1.7l0.1-0.4c0,0,0.1-0.1,0.1-0.3c0.2-0.1,0.3-0.3,0.4-0.6s0.2-0.5,0.2-0.7c0.2-0.1,0.3-0.3,0.3-0.5l0.2-0.3
		c0.1-0.1,0.2-0.1,0.3-0.1c0-0.3,0-0.5,0.1-0.7s0.3-0.3,0.5-0.3v-0.2l0.2-0.3l-0.2-1c0.1-0.1,0.2-0.3,0.4-0.6s0.3-0.5,0.4-0.7
		c-0.1-0.1-0.1-0.2-0.1-0.3c0-0.3,0.2-0.6,0.6-1l0.2-0.2c0.2-0.2,0.3-0.5,0.3-0.7l0.4-0.1c0-0.2,0.2-0.3,0.4-0.3h0.1
		c0.1-0.3,0.3-0.6,0.4-0.7c0.1-0.2,0.2-0.3,0.4-0.4c0.1-0.1,0.2-0.2,0.2-0.2l0.2-0.1c0.2-0.2,0.4-0.3,0.5-0.4s0.2-0.3,0.4-0.6
		c0.1-0.1,0.1-0.2,0.2-0.3s0.1-0.2,0.2-0.3c0.5-0.4,1.1-0.8,1.9-1s1.5-0.3,2.2-0.3c0.6,0,1.3,0.1,2.1,0.3c0.8,0.2,1.4,0.6,1.7,1.2
		c0.4,0.6,0.7,1.3,1,1.9s0.5,1.3,0.5,2.1v0.2c0,0.1,0,0.2-0.1,0.2c0,0.1-0.1,0.2-0.1,0.3v0.5c0,0.1,0,0.2,0.1,0.3
		c0,0.1,0.1,0.2,0.1,0.3v-0.1c0,0.1-0.1,0.4-0.2,0.7c-0.2,0.4-0.3,0.7-0.5,1.1c-0.2,0.3-0.4,0.5-0.5,0.5s-0.2-0.1-0.2-0.1
		c0-0.1-0.1-0.2-0.1-0.2c0-0.2,0-0.3,0-0.5s0-0.3,0.1-0.5c0-0.2,0.1-0.3,0.1-0.5s0.1-0.3,0.1-0.5c0.1-0.3,0.2-0.7,0.2-1.1
		c0.1-0.4,0.1-0.7,0.1-1.1c0-0.2,0-0.5-0.1-0.8c0-0.3-0.1-0.5-0.2-0.7c-0.1-0.1-0.1-0.2-0.2-0.3c-0.1-0.1-0.1-0.2-0.2-0.3
		c-0.1-0.1-0.1-0.2-0.2-0.3s-0.2-0.2-0.2-0.3c-0.3-0.4-0.7-0.6-1.2-0.6c-0.2,0-0.4,0.1-0.6,0.1l-0.1,0.1c-0.2,0-0.3,0-0.4,0
		s-0.3,0.1-0.4,0.2l-0.3,0.1l-0.3,0.2c-2.1,1.3-3.9,3-5.4,5.1s-2.8,4.2-3.8,6.4c-0.2,0.5-0.5,1.1-0.7,1.7c-0.2,0.6-0.4,1.2-0.4,1.7
		c0,0.3,0.1,0.5,0.1,0.8l0.1,0.1c0,0,0.1,0.1,0.2,0.1c0.2,0,0.5-0.1,0.8-0.4c0.3-0.3,0.6-0.5,1-0.9c0.3-0.3,0.6-0.6,0.8-0.7
		c0.2-0.2,0.4-0.4,0.6-0.4c0.3-0.4,0.6-0.9,0.9-1.2c0.2-0.2,0.3-0.3,0.5-0.5s0.3-0.3,0.4-0.5c0.8-1,1.6-2.1,2.4-3.3
		c0.9-1.2,1.5-2.2,1.9-3.2c0.1-0.2,0.1-0.3,0.2-0.5s0.1-0.4,0.1-0.5c0-0.3,0.2-0.6,0.6-0.9l0.7-0.1c0.3,0.1,0.6,0.1,0.8,0.1
		c0.2,0,0.3,0,0.4-0.1h0.4c0.4,0,0.6,0.2,0.7,0.5s0.1,0.7,0.2,0.9c0,0.1,0,0.2,0.1,0.2l0.1,0.1c0,0.1,0,0.2,0,0.3
		c0,0.2,0.1,0.3,0.1,0.4s0,0.2,0,0.3c0,0.5-0.1,1-0.2,1.4c-0.2,0.5-0.2,0.9-0.2,1.4c0,0.4-0.1,0.7-0.3,1.1c-0.2,0.3-0.3,0.7-0.3,1.1
		c0,0.3-0.1,0.5-0.3,0.5h-0.1c-0.1,0-0.1,0-0.1,0.1s0,0.1,0.1,0.2c0,0.1,0.1,0.2,0.1,0.3c0,0,0,0.1-0.1,0.3s-0.1,0.2-0.1,0.3
		s-0.2,0.2-0.4,0.2c-0.1,0-0.2,0.1-0.3,0.1c-0.1,0-0.2,0-0.2,0h-0.1c0,0.1,0.1,0.1,0.1,0.1s0.1-0.1,0.2-0.1s0.2,0,0.3,0
		c0.2,0,0.2,0.1,0.2,0.2c0,0.1-0.1,0.3-0.2,0.6s-0.3,0.6-0.4,0.9c-0.1,0.3-0.3,0.6-0.3,0.7l0.2,0.2l-0.1,0.1c0,0,0,0.1-0.1,0.1
		l-0.2,0.2c0.8,0.2,1.3,0.4,1.7,0.7c0.4,0.3,0.6,0.9,0.6,1.9c0,0.4-0.1,0.6-0.2,0.7c-0.1,0.1-0.2,0.2-0.2,0.3s-0.1,0.1-0.2,0.2
		c-0.1,0.1-0.2,0.1-0.2,0.1c-0.1,0-0.2-0.1-0.2-0.1v-0.1h-0.1l0.3-0.8c0-0.1,0.1-0.2,0.1-0.3s0.1-0.2,0.1-0.3c0-0.4-0.3-0.6-0.8-0.8
		s-1-0.3-1.3-0.4c-0.5,1.2-1.1,2.4-1.8,3.6c-0.7,1.2-1.3,2.4-1.9,3.5c-0.2,0.4-0.5,0.8-0.7,1.2s-0.5,0.9-0.7,1.3
		c-0.5,0.9-1,1.7-1.6,2.4c-0.4,0.6-0.9,1.2-1.4,1.9c-0.5,0.6-1,1.2-1.4,1.9c-0.4,0.6-0.9,1.1-1.4,1.4c-0.5,0.3-1,0.6-1.6,0.9
		s-1.1,0.7-1.8,1.2c-0.3,0-0.6,0.1-1,0.3c-0.3,0.2-0.6,0.3-1,0.2C395.5,59.3,395.4,59.3,395.4,59.3L395.4,59.3z M394.4,57.5
		c0.1,0,0.3-0.1,0.4-0.1s0.2,0,0.3,0c0.1-0.1,0.2-0.1,0.3-0.2c0.1-0.1,0.2-0.1,0.3-0.2l0.7-0.4c0.3-0.2,0.5-0.3,0.7-0.5
		s0.4-0.3,0.6-0.5l0.2-0.2l0.1-0.2c0.1-0.1,0.1-0.2,0.2-0.3s0.2-0.2,0.2-0.2c0.1-0.1,0.1-0.2,0.2-0.3s0.2-0.2,0.2-0.2
		c0.1-0.1,0.1-0.2,0.2-0.3s0.2-0.2,0.2-0.2l0.3-0.1v0.1c0.2-0.2,0.3-0.4,0.5-0.6s0.4-0.4,0.6-0.5l-0.1-0.1l0.9-0.8V52l0.1-0.1
		l0.1-0.1l0.3-0.7l-0.1-0.1l-0.1,0.1h-0.2v-0.2c0.4-0.5,0.8-1.1,1.3-1.7c0.5-0.6,1-1.2,1.4-1.8s0.6-1.2,0.7-1.7l0.8-0.8h0.1l1-1.6
		l-0.1-0.3l1.5-1.9c0-0.2,0.2-0.5,0.4-0.7c0.2-0.3,0.3-0.5,0.3-0.8c0-0.1,0-0.1-0.1-0.1c-0.3,0-0.9,0.3-1.7,0.9
		c-0.1,0.1-0.3,0.1-0.4,0.2s-0.3,0.2-0.5,0.3c-0.3,0.2-0.6,0.4-0.9,0.4l-2.2,1.7H403l-3.9,3.2c-0.2,0.2-0.5,0.6-0.9,1.1
		s-0.6,1-0.8,1.4l-0.2-0.2c0,0-0.1,0.2-0.2,0.5c-0.1,0.2-0.1,0.3-0.2,0.4c-0.1,0.1-0.1,0.2-0.1,0.3v0.1c0,0,0,0.1-0.1,0.1
		c0,0.1-0.1,0.1-0.2,0.1l-0.1-0.1l-1.2,1.9H395l-0.1-0.1c0,0.1-0.1,0.1-0.1,0.2s0,0.2-0.1,0.2c0,0.2-0.1,0.3-0.2,0.4l-0.9,2.3
		c0,0.1,0,0.2,0,0.4c0,0.1,0,0.2-0.1,0.4c-0.1,0.3-0.1,0.5-0.1,0.7C393.8,56.8,394,57.2,394.4,57.5L394.4,57.5z M401.7,31.2l0.1-0.1
		l-0.1-0.1l-0.1,0.2C401.6,31.2,401.7,31.2,401.7,31.2z" />
                        <path id="ge" d="M419.3,38.9c-0.4,0-0.7-0.1-1.1-0.1c-0.5-0.2-1-0.7-1.5-1.6l0.4-0.1l-0.3-0.2l-0.4-1.2h-0.1c0-0.1-0.1-0.2-0.1-0.4
		V35c0-0.1,0.1-0.4,0.2-0.7c0.2-0.3,0.3-0.6,0.4-0.9l-0.5,0.1v-0.3c0,0,0.1-0.1,0.1-0.2c0-0.1,0.1-0.2,0.2-0.2l0.1,0.1l0.1-0.1v-0.2
		c0-0.1,0-0.3,0-0.4s0.1-0.3,0.2-0.4c0-0.2,0-0.3,0.1-0.3l0.1-0.2h0.1v-0.2l0.3-0.4c0.2-0.2,0.3-0.2,0.3-0.2v-0.1l-0.1,0.1
		c-0.1,0-0.2-0.1-0.2-0.2c0,0,0-0.1,0.1-0.1V30c0,0,0.1-0.1,0.1-0.2s0-0.2-0.1-0.3l0.3-0.4l0.2,0.1l-0.1-0.1h0.1l0.1-0.1l0.1-0.5
		l0.2,0.4l0.1-0.8c0-0.2,0.1-0.3,0.1-0.5s0.1-0.3,0.1-0.5l0.5-0.1v-0.4h-0.1v-0.2l0.2-0.2v0l0.1-0.1v-0.2l0.4-0.3v-0.2
		c0.2-0.1,0.4-0.3,0.6-0.7c0.1-0.2,0.3-0.4,0.7-0.4H421l0.1-0.1l-0.2,0.1v-0.4h0.1l0.1-0.1h0.1l0.1-0.2v-0.2
		c0.2-0.1,0.4-0.3,0.6-0.5s0.3-0.4,0.3-0.6l0.2-0.1V22l0.2,0.1l0.6-0.6v-0.2l0.4-0.2l0.2-0.3c0-0.1,0.1-0.1,0.1-0.1s0.1,0,0.2,0.1
		s0.2,0.1,0.3,0.1h0.3c0.5,0,1,0.2,1.5,0.6s0.9,0.8,1.3,1.3s0.5,1,0.5,1.5c0,0.2,0.1,0.3,0.1,0.5c0,0.1,0.1,0.2,0.1,0.3
		c0,0.1,0,0.2,0,0.3v0.2c0,0.1,0,0.2-0.1,0.2c-0.5,1.3-1.4,2.5-2.5,3.7s-2.3,2.1-3.5,2.8c-0.3,0.1-0.5,0.3-0.9,0.4
		c-0.3,0.1-0.6,0.2-1,0.2c-0.1,0-0.2,0-0.2-0.1l-0.3-0.1c0.1,0,0.2-0.1,0.4-0.2c0.1,0,0.1-0.1,0.2-0.1s0.1-0.1,0.2-0.1l0.3-0.1
		c0.1,0,0.1,0,0.1-0.1l-0.1-0.1c0-0.1,0.1-0.2,0.2-0.2c0.2-0.1,0.4-0.2,0.5-0.2l0.5-0.1c0.2-0.1,0.4-0.1,0.5-0.2s0.2-0.1,0.2-0.3
		c0.1-0.1,0.3-0.3,0.5-0.6c0.2-0.4,0.4-0.6,0.5-0.7l0.4-0.1l0.5-0.7l-0.1-0.2l0.4-0.2v-0.2h0.1c0.4-0.4,0.6-0.7,0.8-1
		c0.2-0.3,0.4-0.7,0.6-1.2c0-0.1,0.1-0.1,0.1-0.1v-0.1c0.2-0.4,0.3-0.8,0.3-1.1c0-0.8-0.4-1.2-1.1-1.2c-0.1,0-0.2,0-0.2-0.1
		c-0.1,0-0.2,0-0.2,0.1h0.2l-0.2,0.2c-0.2,0.1-0.3,0.2-0.5,0.3c-0.1,0.1-0.2,0.3-0.2,0.5h-0.2c0.1,0,0.1,0.1,0.1,0.2
		c-0.2,0-0.4,0.1-0.5,0.2l0.2,0.1c-0.1,0.1-0.1,0.1-0.2,0.2s-0.2,0.1-0.3,0.2c-0.1,0-0.2,0.1-0.3,0.1c-0.1,0.1-0.2,0.1-0.2,0.2
		c-0.4,0.3-0.5,0.5-0.5,0.7c0,0,0,0.1,0.1,0.1l0.1,0.1c0.1,0,0.1,0.1,0.2,0.1l-0.4-0.1c0.1,0,0.1-0.1,0.1-0.1c-0.1,0-0.2,0-0.3,0.1
		c-0.1,0-0.1,0,0,0.1l0.1,0.1c0,0-0.1,0-0.1,0.1l-0.1,0.1h-0.1c-0.1,0.2-0.3,0.3-0.4,0.5s-0.2,0.3-0.3,0.5c-0.1,0.3-0.3,0.6-0.5,0.9
		l0.3,0.2h-0.3l-0.2,0.2v0.2l-0.3,0.2l0.1,0.1l-0.5,0.8l-0.1,0.1v0.4l-0.5,0.6l0.1,0.2h-0.1v0.3c-0.2,0.2-0.4,0.5-0.4,0.9
		c0,0.3-0.2,0.6-0.4,1h0.3l-0.4,0.2v0.1l-0.1,0.1c0,0.1,0,0.2,0,0.3s0,0.2,0.1,0.3c0,0.1,0.1,0.2,0.1,0.3s0,0.2,0,0.3
		c0,0.3,0.1,0.6,0.3,1s0.4,0.6,0.7,0.6c0.6,0,1.2-0.2,1.8-0.5c0.6-0.4,1.2-0.5,1.8-0.6l1-0.8c0.5-0.4,1-0.9,1.3-1.5
		c0.4-0.6,0.9-1.1,1.4-1.5h0.1l-0.1-0.1c0.1-0.1,0.2-0.3,0.4-0.6s0.3-0.5,0.3-0.6c0,0,0.1-0.1,0.1-0.2c0-0.1,0-0.1,0.1-0.1
		c0.1-0.2,0.2-0.2,0.3-0.2s0.2,0.1,0.2,0.2c0,0.1,0,0.2-0.1,0.2c0,0.3-0.1,0.8-0.4,1.4c-0.3,0.6-0.6,0.9-0.9,1.1v0.1
		c-0.2,0.2-0.3,0.4-0.5,0.7s-0.5,0.7-0.9,1.2s-0.7,0.8-1,0.8l-0.7,0.4V37c0,0.2-0.1,0.3-0.3,0.3c-0.1,0.2-0.3,0.2-0.5,0.2
		c-0.1,0.2-0.3,0.3-0.5,0.4c-0.1,0-0.2,0.1-0.4,0.2c-0.1,0.1-0.2,0.2-0.5,0.3c-0.2,0.1-0.4,0.2-0.5,0.2c-0.2,0.1-0.4,0.2-0.6,0.2
		s-0.4,0-0.6,0L419.3,38.9L419.3,38.9z" />
                    </g>
                </svg>